M48
METRIC,LZ,000.000
;FILE_FORMAT=3:3
;TYPE=PLATED
;Layer: PTH_Through_Via
;EasyEDA v6.5.40, 2024-04-28 19:39:01
;a67cddfb3fce44daa9051d46cbbcc19f,10
;Gerber Generator version 0.2
;Holesize 1 = 0.306 mm
T01C0.306
;Holesize 2 = 0.310 mm
T02C0.310
%
G05
G90
T01
X001072Y058928
X001072Y048928
X001072Y038928
X001072Y028928
X001072Y018928
X011072Y068928
X011072Y058928
X011072Y048928
X011072Y038928
X011072Y028928
X011072Y018928
X011072Y008928
X021072Y068928
X021072Y048928
X021072Y038928
X021072Y028928
X021072Y018928
X021072Y008928
X031072Y058928
X031072Y048928
X031072Y038928
X031072Y028928
X031072Y018928
X031072Y008928
X041072Y068928
X041072Y048928
X041072Y038928
X041072Y028928
X041072Y018928
X041072Y008928
X051072Y068928
X051072Y058928
X051072Y048928
X061072Y058928
X061072Y048928
X071072Y068928
X071072Y058928
X071072Y048928
X071072Y008928
X081072Y068928
X081072Y058928
X081072Y048928
X091072Y048928
T02
X075000Y009000
X070000Y009000
X075000Y005000
X075000Y013500
X077500Y013500
X088500Y042000
X088500Y037000
X080500Y006750
X080000Y013500
X082500Y013500
X085001Y014999
X085001Y017000
X050000Y017000
X045000Y010000
X097500Y015000
M30
