M48
METRIC,LZ,000.000
;FILE_FORMAT=3:3
;TYPE=PLATED
;Layer: PTH_Through
;EasyEDA v6.5.40, 2024-04-28 19:39:01
;a67cddfb3fce44daa9051d46cbbcc19f,10
;Gerber Generator version 0.2
;Holesize 1 = 0.306 mm
T01C0.306
;Holesize 2 = 0.310 mm
T02C0.310
;Holesize 3 = 0.800 mm
T03C0.800
;Holesize 4 = 0.850 mm
T04C0.850
;Holesize 5 = 0.889 mm
T05C0.889
;Holesize 6 = 0.900 mm
T06C0.900
;Holesize 7 = 0.901 mm
T07C0.901
;Holesize 8 = 1.000 mm
T08C1.000
;Holesize 9 = 1.101 mm
T09C1.101
;Holesize 10 = 1.200 mm
T10C1.200
%
G05
G90
T01
X001072Y058928
X001072Y048928
X001072Y038928
X001072Y028928
X001072Y018928
X011072Y068928
X011072Y058928
X011072Y048928
X011072Y038928
X011072Y028928
X011072Y018928
X011072Y008928
X021072Y068928
X021072Y048928
X021072Y038928
X021072Y028928
X021072Y018928
X021072Y008928
X031072Y058928
X031072Y048928
X031072Y038928
X031072Y028928
X031072Y018928
X031072Y008928
X041072Y068928
X041072Y048928
X041072Y038928
X041072Y028928
X041072Y018928
X041072Y008928
X051072Y068928
X051072Y058928
X051072Y048928
X061072Y058928
X061072Y048928
X071072Y068928
X071072Y058928
X071072Y048928
X071072Y008928
X081072Y068928
X081072Y058928
X081072Y048928
X091072Y048928
T02
X075000Y009000
X070000Y009000
X075000Y005000
X075000Y013500
X077500Y013500
X088500Y042000
X088500Y037000
X080500Y006750
X080000Y013500
X082500Y013500
X085001Y014999
X085001Y017000
X050000Y017000
X045000Y010000
X097500Y015000
T03
X085207Y064207
X083793Y062793
T04
X035000Y062770
X035000Y061500
X035000Y060230
T05
X041191Y005999
X043731Y005999
X046271Y005999
X048811Y005999
X070081Y005999
X067541Y005999
X065001Y005999
X062461Y005999
X059921Y005999
T06
X030000Y055150
X030000Y067850
T07
X020000Y066251
X020000Y059749
T08
X090000Y045650
X090000Y054350
T09
X005001Y048730
X005001Y051270
X073730Y065000
X076270Y065000
T10
X061100Y061900G85X063600Y061900
X063600Y068100G85X061100Y068100
X057650Y066150G85X057650Y063650
M30
