G04 Layer: BottomSilkscreenLayer*
G04 EasyEDA v6.5.40, 2024-04-28 19:39:01*
G04 a67cddfb3fce44daa9051d46cbbcc19f,10*
G04 Gerber Generator version 0.2*
G04 Scale: 100 percent, Rotated: No, Reflected: No *
G04 Dimensions in millimeters *
G04 leading zeros omitted , absolute positions ,4 integer and 5 decimal *
%FSLAX45Y45*%
%MOMM*%

%ADD10C,0.2032*%
%ADD11C,0.1524*%
%ADD12C,0.2540*%
%ADD13C,0.1270*%

%LPD*%
D10*
X8799868Y351853D02*
G01*
X8799868Y160845D01*
X8730780Y306387D02*
G01*
X8730780Y315531D01*
X8721890Y333565D01*
X8712746Y342709D01*
X8694458Y351853D01*
X8658136Y351853D01*
X8640102Y342709D01*
X8630958Y333565D01*
X8621814Y315531D01*
X8621814Y297243D01*
X8630958Y279209D01*
X8648992Y251777D01*
X8739924Y160845D01*
X8612670Y160845D01*
X8416328Y306387D02*
G01*
X8425472Y324421D01*
X8443506Y342709D01*
X8461794Y351853D01*
X8498116Y351853D01*
X8516404Y342709D01*
X8534438Y324421D01*
X8543582Y306387D01*
X8552726Y279209D01*
X8552726Y233743D01*
X8543582Y206311D01*
X8534438Y188277D01*
X8516404Y169989D01*
X8498116Y160845D01*
X8461794Y160845D01*
X8443506Y169989D01*
X8425472Y188277D01*
X8416328Y206311D01*
D11*
X8448027Y615337D02*
G01*
X8448027Y532211D01*
X8453224Y516623D01*
X8458418Y511429D01*
X8468809Y506234D01*
X8479200Y506234D01*
X8489591Y511429D01*
X8494788Y516623D01*
X8499983Y532211D01*
X8499983Y542602D01*
X8351393Y615337D02*
G01*
X8403348Y615337D01*
X8408543Y568579D01*
X8403348Y573773D01*
X8387760Y578970D01*
X8372175Y578970D01*
X8356587Y573773D01*
X8346198Y563384D01*
X8341001Y547796D01*
X8341001Y537405D01*
X8346198Y521820D01*
X8356587Y511429D01*
X8372175Y506234D01*
X8387760Y506234D01*
X8403348Y511429D01*
X8408543Y516623D01*
X8413737Y527014D01*
X9899980Y5115305D02*
G01*
X9899980Y5006339D01*
X9899980Y5115305D02*
G01*
X9863658Y5115305D01*
X9847910Y5110226D01*
X9837750Y5099812D01*
X9832416Y5089397D01*
X9827336Y5073650D01*
X9827336Y5047742D01*
X9832416Y5032247D01*
X9837750Y5021834D01*
X9847910Y5011420D01*
X9863658Y5006339D01*
X9899980Y5006339D01*
X9793046Y5094478D02*
G01*
X9782632Y5099812D01*
X9766884Y5115305D01*
X9766884Y5006339D01*
X10308501Y2999994D02*
G01*
X10230523Y2999994D01*
X10215029Y3005073D01*
X10204615Y3015487D01*
X10199535Y3031236D01*
X10199535Y3041650D01*
X10204615Y3057144D01*
X10215029Y3067557D01*
X10230523Y3072637D01*
X10308501Y3072637D01*
X10287673Y3106928D02*
G01*
X10293007Y3117342D01*
X10308501Y3133089D01*
X10199535Y3133089D01*
D12*
X8201954Y104015D02*
G01*
X7811957Y104015D01*
X8193961Y530009D02*
G01*
X8301954Y530009D01*
X8301954Y270014D01*
X7795958Y530009D02*
G01*
X7703957Y530009D01*
X7703957Y269331D01*
X9599980Y4949189D02*
G01*
X9640620Y5050789D01*
X9694633Y4847986D02*
G01*
X9694633Y5147985D01*
X9506666Y4849322D02*
G01*
X9506666Y5149321D01*
X9599980Y4923789D02*
G01*
X9599980Y5076189D01*
X9650780Y4949189D02*
G01*
X9549180Y4949189D01*
X9559340Y5050789D02*
G01*
X9599980Y4949189D01*
X9640620Y5050789D02*
G01*
X9559340Y5050789D01*
D13*
X9507385Y2593594D02*
G01*
X9507385Y2999994D01*
X8516785Y2999994D01*
X8516785Y2593594D01*
X9507385Y2593594D01*
X9999967Y3399993D02*
G01*
X9549980Y3399993D01*
X9549980Y2599994D01*
X9999967Y2599994D01*
X10149979Y2599994D01*
X10149979Y3399993D01*
X9999967Y3399993D01*
X9999967Y1949983D02*
G01*
X9999967Y2599994D01*
X9999967Y3399993D01*
X9999967Y4050004D01*
X4899977Y4050004D01*
X4899977Y1949983D01*
X9999967Y1949983D01*
D12*
G75*
G01
X8262391Y481254D02*
G03X8262391Y481254I-12497J0D01*
M02*
