G04 Layer: BottomPasteMaskLayer*
G04 EasyEDA v6.5.40, 2024-04-28 19:39:01*
G04 a67cddfb3fce44daa9051d46cbbcc19f,10*
G04 Gerber Generator version 0.2*
G04 Scale: 100 percent, Rotated: No, Reflected: No *
G04 Dimensions in millimeters *
G04 leading zeros omitted , absolute positions ,4 integer and 5 decimal *
%FSLAX45Y45*%
%MOMM*%

%AMMACRO1*21,1,$1,$2,0,0,$3*%
%AMMACRO2*4,1,4,-0.8,-1.5999,0.8,-1.5999,0.8,1.5999,-0.8,1.5999,-0.8,-1.5999,0*%
%AMMACRO3*4,1,4,-0.8001,-1.5999,0.8001,-1.5999,0.8001,1.5999,-0.8001,1.5999,-0.8001,-1.5999,0*%
%ADD10MACRO1,0.5999X1.5499X0.0000*%
%ADD11MACRO1,1.2002X1.7998X0.0000*%
%ADD12MACRO1,1.1999X1.7998X0.0000*%
%ADD13MACRO1,1X1.1999X90.0000*%
%ADD14MACRO2*%
%ADD15MACRO3*%
%ADD16C,0.0143*%

%LPD*%
D10*
G01*
X8049945Y543813D03*
G01*
X8149945Y543813D03*
G01*
X7849920Y543763D03*
G01*
X7949920Y543763D03*
D11*
G01*
X8279955Y156260D03*
D12*
G01*
X7719948Y156210D03*
D13*
G01*
X9599980Y5154968D03*
G01*
X9599980Y4844986D03*
G36*
X9782987Y3872484D02*
G01*
X9783572Y3862857D01*
X9785324Y3853357D01*
X9788194Y3844112D01*
X9792157Y3835323D01*
X9797161Y3827043D01*
X9803104Y3819448D01*
X9809937Y3812616D01*
X9817557Y3806647D01*
X9825812Y3801643D01*
X9834625Y3797680D01*
X9843846Y3794810D01*
X9853345Y3793083D01*
X9862997Y3792499D01*
X9872624Y3793083D01*
X9882149Y3794810D01*
X9891369Y3797680D01*
X9900183Y3801643D01*
X9908438Y3806647D01*
X9916033Y3812616D01*
X9922865Y3819448D01*
X9928834Y3827043D01*
X9933838Y3835323D01*
X9937800Y3844112D01*
X9940670Y3853357D01*
X9942398Y3862857D01*
X9942982Y3872484D01*
X9942982Y4032504D01*
X9942398Y4042130D01*
X9940670Y4051630D01*
X9937800Y4060850D01*
X9933838Y4069664D01*
X9928834Y4077944D01*
X9922865Y4085539D01*
X9916033Y4092371D01*
X9908438Y4098340D01*
X9900183Y4103319D01*
X9891369Y4107281D01*
X9882149Y4110177D01*
X9872624Y4111904D01*
X9862997Y4112488D01*
X9853345Y4111904D01*
X9843846Y4110177D01*
X9834625Y4107281D01*
X9825812Y4103319D01*
X9817557Y4098340D01*
X9809937Y4092371D01*
X9803104Y4085539D01*
X9797161Y4077944D01*
X9792157Y4069664D01*
X9788194Y4060850D01*
X9785324Y4051630D01*
X9783572Y4042130D01*
X9782987Y4032504D01*
G37*
G36*
X9528987Y3872484D02*
G01*
X9529572Y3862857D01*
X9531324Y3853357D01*
X9534194Y3844112D01*
X9538157Y3835323D01*
X9543161Y3827043D01*
X9549104Y3819448D01*
X9555937Y3812616D01*
X9563557Y3806647D01*
X9571812Y3801643D01*
X9580625Y3797680D01*
X9589846Y3794810D01*
X9599345Y3793083D01*
X9608997Y3792499D01*
X9618624Y3793083D01*
X9628149Y3794810D01*
X9637369Y3797680D01*
X9646183Y3801643D01*
X9654438Y3806647D01*
X9662033Y3812616D01*
X9668865Y3819448D01*
X9674834Y3827043D01*
X9679838Y3835323D01*
X9683800Y3844112D01*
X9686670Y3853357D01*
X9688398Y3862857D01*
X9688982Y3872484D01*
X9688982Y4032504D01*
X9688398Y4042130D01*
X9686670Y4051630D01*
X9683800Y4060850D01*
X9679838Y4069664D01*
X9674834Y4077944D01*
X9668865Y4085539D01*
X9662033Y4092371D01*
X9654438Y4098340D01*
X9646183Y4103319D01*
X9637369Y4107281D01*
X9628149Y4110177D01*
X9618624Y4111904D01*
X9608997Y4112488D01*
X9599345Y4111904D01*
X9589846Y4110177D01*
X9580625Y4107281D01*
X9571812Y4103319D01*
X9563557Y4098340D01*
X9555937Y4092371D01*
X9549104Y4085539D01*
X9543161Y4077944D01*
X9538157Y4069664D01*
X9534194Y4060850D01*
X9531324Y4051630D01*
X9529572Y4042130D01*
X9528987Y4032504D01*
G37*
D14*
G01*
X9354985Y3952494D03*
G36*
X9020987Y3872484D02*
G01*
X9021572Y3862857D01*
X9023324Y3853357D01*
X9026194Y3844112D01*
X9030157Y3835323D01*
X9035161Y3827043D01*
X9041104Y3819448D01*
X9047937Y3812616D01*
X9055557Y3806647D01*
X9063812Y3801643D01*
X9072625Y3797680D01*
X9081846Y3794810D01*
X9091345Y3793083D01*
X9100997Y3792499D01*
X9110649Y3793083D01*
X9120149Y3794810D01*
X9129369Y3797680D01*
X9138183Y3801643D01*
X9146438Y3806647D01*
X9154033Y3812616D01*
X9160865Y3819448D01*
X9166834Y3827043D01*
X9171838Y3835323D01*
X9175800Y3844112D01*
X9178670Y3853357D01*
X9180423Y3862857D01*
X9180982Y3872484D01*
X9180982Y4032504D01*
X9180423Y4042130D01*
X9178670Y4051630D01*
X9175800Y4060850D01*
X9171838Y4069664D01*
X9166834Y4077944D01*
X9160865Y4085539D01*
X9154033Y4092371D01*
X9146438Y4098340D01*
X9138183Y4103319D01*
X9129369Y4107281D01*
X9120149Y4110177D01*
X9110649Y4111904D01*
X9100997Y4112488D01*
X9091345Y4111904D01*
X9081846Y4110177D01*
X9072625Y4107281D01*
X9063812Y4103319D01*
X9055557Y4098340D01*
X9047937Y4092371D01*
X9041104Y4085539D01*
X9035161Y4077944D01*
X9030157Y4069664D01*
X9026194Y4060850D01*
X9023324Y4051630D01*
X9021572Y4042130D01*
X9020987Y4032504D01*
G37*
G36*
X8766987Y3872484D02*
G01*
X8767572Y3862857D01*
X8769324Y3853357D01*
X8772194Y3844112D01*
X8776157Y3835323D01*
X8781161Y3827043D01*
X8787104Y3819448D01*
X8793937Y3812616D01*
X8801557Y3806647D01*
X8809812Y3801643D01*
X8818625Y3797680D01*
X8827846Y3794810D01*
X8837345Y3793083D01*
X8846997Y3792499D01*
X8856649Y3793083D01*
X8866149Y3794810D01*
X8875369Y3797680D01*
X8884183Y3801643D01*
X8892438Y3806647D01*
X8900033Y3812616D01*
X8906865Y3819448D01*
X8912834Y3827043D01*
X8917838Y3835323D01*
X8921800Y3844112D01*
X8924670Y3853357D01*
X8926423Y3862857D01*
X8926982Y3872484D01*
X8926982Y4032504D01*
X8926423Y4042130D01*
X8924670Y4051630D01*
X8921800Y4060850D01*
X8917838Y4069664D01*
X8912834Y4077944D01*
X8906865Y4085539D01*
X8900033Y4092371D01*
X8892438Y4098340D01*
X8884183Y4103319D01*
X8875369Y4107281D01*
X8866149Y4110177D01*
X8856649Y4111904D01*
X8846997Y4112488D01*
X8837345Y4111904D01*
X8827846Y4110177D01*
X8818625Y4107281D01*
X8809812Y4103319D01*
X8801557Y4098340D01*
X8793937Y4092371D01*
X8787104Y4085539D01*
X8781161Y4077944D01*
X8776157Y4069664D01*
X8772194Y4060850D01*
X8769324Y4051630D01*
X8767572Y4042130D01*
X8766987Y4032504D01*
G37*
G36*
X8512987Y3872484D02*
G01*
X8513572Y3862857D01*
X8515324Y3853357D01*
X8518194Y3844112D01*
X8522157Y3835323D01*
X8527161Y3827043D01*
X8533104Y3819448D01*
X8539937Y3812616D01*
X8547557Y3806647D01*
X8555812Y3801643D01*
X8564625Y3797680D01*
X8573846Y3794810D01*
X8583345Y3793083D01*
X8592997Y3792499D01*
X8602649Y3793083D01*
X8612149Y3794810D01*
X8621369Y3797680D01*
X8630183Y3801643D01*
X8638438Y3806647D01*
X8646033Y3812616D01*
X8652865Y3819448D01*
X8658834Y3827043D01*
X8663838Y3835323D01*
X8667800Y3844112D01*
X8670670Y3853357D01*
X8672423Y3862857D01*
X8673007Y3872484D01*
X8673007Y4032504D01*
X8672423Y4042130D01*
X8670670Y4051630D01*
X8667800Y4060850D01*
X8663838Y4069664D01*
X8658834Y4077944D01*
X8652865Y4085539D01*
X8646033Y4092371D01*
X8638438Y4098340D01*
X8630183Y4103319D01*
X8621369Y4107281D01*
X8612149Y4110177D01*
X8602649Y4111904D01*
X8592997Y4112488D01*
X8583345Y4111904D01*
X8573846Y4110177D01*
X8564625Y4107281D01*
X8555812Y4103319D01*
X8547557Y4098340D01*
X8539937Y4092371D01*
X8533104Y4085539D01*
X8527161Y4077944D01*
X8522157Y4069664D01*
X8518194Y4060850D01*
X8515324Y4051630D01*
X8513572Y4042130D01*
X8512987Y4032504D01*
G37*
G36*
X8258987Y3872484D02*
G01*
X8259572Y3862857D01*
X8261324Y3853357D01*
X8264194Y3844112D01*
X8268157Y3835323D01*
X8273161Y3827043D01*
X8279104Y3819448D01*
X8285937Y3812616D01*
X8293557Y3806647D01*
X8301812Y3801643D01*
X8310625Y3797680D01*
X8319846Y3794810D01*
X8329345Y3793083D01*
X8338997Y3792499D01*
X8348649Y3793083D01*
X8358149Y3794810D01*
X8367369Y3797680D01*
X8376183Y3801643D01*
X8384438Y3806647D01*
X8392058Y3812616D01*
X8398865Y3819448D01*
X8404834Y3827043D01*
X8409838Y3835323D01*
X8413800Y3844112D01*
X8416670Y3853357D01*
X8418423Y3862857D01*
X8419007Y3872484D01*
X8419007Y4032504D01*
X8418423Y4042130D01*
X8416670Y4051630D01*
X8413800Y4060850D01*
X8409838Y4069664D01*
X8404834Y4077944D01*
X8398865Y4085539D01*
X8392058Y4092371D01*
X8384438Y4098340D01*
X8376183Y4103319D01*
X8367369Y4107281D01*
X8358149Y4110177D01*
X8348649Y4111904D01*
X8338997Y4112488D01*
X8329345Y4111904D01*
X8319846Y4110177D01*
X8310625Y4107281D01*
X8301812Y4103319D01*
X8293557Y4098340D01*
X8285937Y4092371D01*
X8279104Y4085539D01*
X8273161Y4077944D01*
X8268157Y4069664D01*
X8264194Y4060850D01*
X8261324Y4051630D01*
X8259572Y4042130D01*
X8258987Y4032504D01*
G37*
D15*
G01*
X8084997Y3952494D03*
G36*
X7750987Y3872484D02*
G01*
X7751572Y3862857D01*
X7753324Y3853357D01*
X7756194Y3844112D01*
X7760157Y3835323D01*
X7765161Y3827043D01*
X7771104Y3819448D01*
X7777937Y3812616D01*
X7785557Y3806647D01*
X7793812Y3801643D01*
X7802625Y3797680D01*
X7811846Y3794810D01*
X7821345Y3793083D01*
X7830997Y3792499D01*
X7840649Y3793083D01*
X7850149Y3794810D01*
X7859369Y3797680D01*
X7868183Y3801643D01*
X7876438Y3806647D01*
X7884058Y3812616D01*
X7890865Y3819448D01*
X7896834Y3827043D01*
X7901838Y3835323D01*
X7905800Y3844112D01*
X7908670Y3853357D01*
X7910423Y3862857D01*
X7911007Y3872484D01*
X7911007Y4032504D01*
X7910423Y4042130D01*
X7908670Y4051630D01*
X7905800Y4060850D01*
X7901838Y4069664D01*
X7896834Y4077944D01*
X7890865Y4085539D01*
X7884058Y4092371D01*
X7876438Y4098340D01*
X7868183Y4103319D01*
X7859369Y4107281D01*
X7850149Y4110177D01*
X7840649Y4111904D01*
X7830997Y4112488D01*
X7821345Y4111904D01*
X7811846Y4110177D01*
X7802625Y4107281D01*
X7793812Y4103319D01*
X7785557Y4098340D01*
X7777937Y4092371D01*
X7771104Y4085539D01*
X7765161Y4077944D01*
X7760157Y4069664D01*
X7756194Y4060850D01*
X7753324Y4051630D01*
X7751572Y4042130D01*
X7750987Y4032504D01*
G37*
G36*
X7496987Y3872484D02*
G01*
X7497572Y3862857D01*
X7499324Y3853357D01*
X7502194Y3844112D01*
X7506157Y3835323D01*
X7511161Y3827043D01*
X7517104Y3819448D01*
X7523937Y3812616D01*
X7531557Y3806647D01*
X7539812Y3801643D01*
X7548625Y3797680D01*
X7557846Y3794810D01*
X7567345Y3793083D01*
X7576997Y3792499D01*
X7586649Y3793083D01*
X7596149Y3794810D01*
X7605369Y3797680D01*
X7614183Y3801643D01*
X7622438Y3806647D01*
X7630058Y3812616D01*
X7636865Y3819448D01*
X7642834Y3827043D01*
X7647838Y3835323D01*
X7651800Y3844112D01*
X7654670Y3853357D01*
X7656423Y3862857D01*
X7657007Y3872484D01*
X7657007Y4032504D01*
X7656423Y4042130D01*
X7654670Y4051630D01*
X7651800Y4060850D01*
X7647838Y4069664D01*
X7642834Y4077944D01*
X7636865Y4085539D01*
X7630058Y4092371D01*
X7622438Y4098340D01*
X7614183Y4103319D01*
X7605369Y4107281D01*
X7596149Y4110177D01*
X7586649Y4111904D01*
X7576997Y4112488D01*
X7567345Y4111904D01*
X7557846Y4110177D01*
X7548625Y4107281D01*
X7539812Y4103319D01*
X7531557Y4098340D01*
X7523937Y4092371D01*
X7517104Y4085539D01*
X7511161Y4077944D01*
X7506157Y4069664D01*
X7502194Y4060850D01*
X7499324Y4051630D01*
X7497572Y4042130D01*
X7496987Y4032504D01*
G37*
G36*
X7242987Y3872484D02*
G01*
X7243572Y3862857D01*
X7245324Y3853357D01*
X7248194Y3844112D01*
X7252157Y3835323D01*
X7257161Y3827043D01*
X7263129Y3819448D01*
X7269937Y3812616D01*
X7277557Y3806647D01*
X7285812Y3801643D01*
X7294625Y3797680D01*
X7303846Y3794810D01*
X7313345Y3793083D01*
X7322997Y3792499D01*
X7332649Y3793083D01*
X7342149Y3794810D01*
X7351369Y3797680D01*
X7360183Y3801643D01*
X7368438Y3806647D01*
X7376058Y3812616D01*
X7382890Y3819448D01*
X7388834Y3827043D01*
X7393838Y3835323D01*
X7397800Y3844112D01*
X7400670Y3853357D01*
X7402423Y3862857D01*
X7403007Y3872484D01*
X7403007Y4032504D01*
X7402423Y4042130D01*
X7400670Y4051630D01*
X7397800Y4060850D01*
X7393838Y4069664D01*
X7388834Y4077944D01*
X7382890Y4085539D01*
X7376058Y4092371D01*
X7368438Y4098340D01*
X7360183Y4103319D01*
X7351369Y4107281D01*
X7342149Y4110177D01*
X7332649Y4111904D01*
X7322997Y4112488D01*
X7313345Y4111904D01*
X7303846Y4110177D01*
X7294625Y4107281D01*
X7285812Y4103319D01*
X7277557Y4098340D01*
X7269937Y4092371D01*
X7263129Y4085539D01*
X7257161Y4077944D01*
X7252157Y4069664D01*
X7248194Y4060850D01*
X7245324Y4051630D01*
X7243572Y4042130D01*
X7242987Y4032504D01*
G37*
G36*
X6988987Y3872484D02*
G01*
X6989572Y3862857D01*
X6991324Y3853357D01*
X6994194Y3844112D01*
X6998157Y3835323D01*
X7003161Y3827043D01*
X7009129Y3819448D01*
X7015937Y3812616D01*
X7023557Y3806647D01*
X7031812Y3801643D01*
X7040625Y3797680D01*
X7049846Y3794810D01*
X7059345Y3793083D01*
X7068997Y3792499D01*
X7078649Y3793083D01*
X7088149Y3794810D01*
X7097369Y3797680D01*
X7106183Y3801643D01*
X7114438Y3806647D01*
X7122058Y3812616D01*
X7128890Y3819448D01*
X7134834Y3827043D01*
X7139838Y3835323D01*
X7143800Y3844112D01*
X7146670Y3853357D01*
X7148423Y3862857D01*
X7149007Y3872484D01*
X7149007Y4032504D01*
X7148423Y4042130D01*
X7146670Y4051630D01*
X7143800Y4060850D01*
X7139838Y4069664D01*
X7134834Y4077944D01*
X7128890Y4085539D01*
X7122058Y4092371D01*
X7114438Y4098340D01*
X7106183Y4103319D01*
X7097369Y4107281D01*
X7088149Y4110177D01*
X7078649Y4111904D01*
X7068997Y4112488D01*
X7059345Y4111904D01*
X7049846Y4110177D01*
X7040625Y4107281D01*
X7031812Y4103319D01*
X7023557Y4098340D01*
X7015937Y4092371D01*
X7009129Y4085539D01*
X7003161Y4077944D01*
X6998157Y4069664D01*
X6994194Y4060850D01*
X6991324Y4051630D01*
X6989572Y4042130D01*
X6988987Y4032504D01*
G37*
G01*
X6814997Y3952494D03*
G36*
X6480987Y3872484D02*
G01*
X6481572Y3862857D01*
X6483324Y3853357D01*
X6486194Y3844112D01*
X6490157Y3835323D01*
X6495161Y3827043D01*
X6501129Y3819448D01*
X6507937Y3812616D01*
X6515557Y3806647D01*
X6523812Y3801643D01*
X6532625Y3797680D01*
X6541846Y3794810D01*
X6551345Y3793083D01*
X6560997Y3792499D01*
X6570649Y3793083D01*
X6580149Y3794810D01*
X6589369Y3797680D01*
X6598183Y3801643D01*
X6606438Y3806647D01*
X6614058Y3812616D01*
X6620890Y3819448D01*
X6626834Y3827043D01*
X6631838Y3835323D01*
X6635800Y3844112D01*
X6638670Y3853357D01*
X6640423Y3862857D01*
X6641007Y3872484D01*
X6641007Y4032504D01*
X6640423Y4042130D01*
X6638670Y4051630D01*
X6635800Y4060850D01*
X6631838Y4069664D01*
X6626834Y4077944D01*
X6620890Y4085539D01*
X6614058Y4092371D01*
X6606438Y4098340D01*
X6598183Y4103319D01*
X6589369Y4107281D01*
X6580149Y4110177D01*
X6570649Y4111904D01*
X6560997Y4112488D01*
X6551345Y4111904D01*
X6541846Y4110177D01*
X6532625Y4107281D01*
X6523812Y4103319D01*
X6515557Y4098340D01*
X6507937Y4092371D01*
X6501129Y4085539D01*
X6495161Y4077944D01*
X6490157Y4069664D01*
X6486194Y4060850D01*
X6483324Y4051630D01*
X6481572Y4042130D01*
X6480987Y4032504D01*
G37*
G36*
X6226987Y3872484D02*
G01*
X6227572Y3862857D01*
X6229324Y3853357D01*
X6232194Y3844112D01*
X6236157Y3835323D01*
X6241161Y3827043D01*
X6247129Y3819448D01*
X6253962Y3812616D01*
X6261557Y3806647D01*
X6269812Y3801643D01*
X6278625Y3797680D01*
X6287846Y3794810D01*
X6297345Y3793083D01*
X6306997Y3792499D01*
X6316649Y3793083D01*
X6326149Y3794810D01*
X6335369Y3797680D01*
X6344183Y3801643D01*
X6352438Y3806647D01*
X6360058Y3812616D01*
X6366890Y3819448D01*
X6372834Y3827043D01*
X6377838Y3835323D01*
X6381800Y3844112D01*
X6384670Y3853357D01*
X6386423Y3862857D01*
X6387007Y3872484D01*
X6387007Y4032504D01*
X6386423Y4042130D01*
X6384670Y4051630D01*
X6381800Y4060850D01*
X6377838Y4069664D01*
X6372834Y4077944D01*
X6366890Y4085539D01*
X6360058Y4092371D01*
X6352438Y4098340D01*
X6344183Y4103319D01*
X6335369Y4107281D01*
X6326149Y4110177D01*
X6316649Y4111904D01*
X6306997Y4112488D01*
X6297345Y4111904D01*
X6287846Y4110177D01*
X6278625Y4107281D01*
X6269812Y4103319D01*
X6261557Y4098340D01*
X6253962Y4092371D01*
X6247129Y4085539D01*
X6241161Y4077944D01*
X6236157Y4069664D01*
X6232194Y4060850D01*
X6229324Y4051630D01*
X6227572Y4042130D01*
X6226987Y4032504D01*
G37*
G36*
X5973013Y3872484D02*
G01*
X5973572Y3862857D01*
X5975324Y3853357D01*
X5978194Y3844112D01*
X5982157Y3835323D01*
X5987161Y3827043D01*
X5993129Y3819448D01*
X5999962Y3812616D01*
X6007557Y3806647D01*
X6015812Y3801643D01*
X6024625Y3797680D01*
X6033846Y3794810D01*
X6043345Y3793083D01*
X6052997Y3792499D01*
X6062649Y3793083D01*
X6072149Y3794810D01*
X6081369Y3797680D01*
X6090183Y3801643D01*
X6098438Y3806647D01*
X6106058Y3812616D01*
X6112890Y3819448D01*
X6118834Y3827043D01*
X6123838Y3835323D01*
X6127800Y3844112D01*
X6130670Y3853357D01*
X6132423Y3862857D01*
X6133007Y3872484D01*
X6133007Y4032504D01*
X6132423Y4042130D01*
X6130670Y4051630D01*
X6127800Y4060850D01*
X6123838Y4069664D01*
X6118834Y4077944D01*
X6112890Y4085539D01*
X6106058Y4092371D01*
X6098438Y4098340D01*
X6090183Y4103319D01*
X6081369Y4107281D01*
X6072149Y4110177D01*
X6062649Y4111904D01*
X6052997Y4112488D01*
X6043345Y4111904D01*
X6033846Y4110177D01*
X6024625Y4107281D01*
X6015812Y4103319D01*
X6007557Y4098340D01*
X5999962Y4092371D01*
X5993129Y4085539D01*
X5987161Y4077944D01*
X5982157Y4069664D01*
X5978194Y4060850D01*
X5975324Y4051630D01*
X5973572Y4042130D01*
X5973013Y4032504D01*
G37*
G36*
X5719013Y3872484D02*
G01*
X5719572Y3862857D01*
X5721324Y3853357D01*
X5724194Y3844112D01*
X5728157Y3835323D01*
X5733161Y3827043D01*
X5739129Y3819448D01*
X5745962Y3812616D01*
X5753557Y3806647D01*
X5761812Y3801643D01*
X5770625Y3797680D01*
X5779846Y3794810D01*
X5789345Y3793083D01*
X5798997Y3792499D01*
X5808649Y3793083D01*
X5818149Y3794810D01*
X5827369Y3797680D01*
X5836183Y3801643D01*
X5844438Y3806647D01*
X5852058Y3812616D01*
X5858890Y3819448D01*
X5864834Y3827043D01*
X5869838Y3835323D01*
X5873800Y3844112D01*
X5876670Y3853357D01*
X5878423Y3862857D01*
X5879007Y3872484D01*
X5879007Y4032504D01*
X5878423Y4042130D01*
X5876670Y4051630D01*
X5873800Y4060850D01*
X5869838Y4069664D01*
X5864834Y4077944D01*
X5858890Y4085539D01*
X5852058Y4092371D01*
X5844438Y4098340D01*
X5836183Y4103319D01*
X5827369Y4107281D01*
X5818149Y4110177D01*
X5808649Y4111904D01*
X5798997Y4112488D01*
X5789345Y4111904D01*
X5779846Y4110177D01*
X5770625Y4107281D01*
X5761812Y4103319D01*
X5753557Y4098340D01*
X5745962Y4092371D01*
X5739129Y4085539D01*
X5733161Y4077944D01*
X5728157Y4069664D01*
X5724194Y4060850D01*
X5721324Y4051630D01*
X5719572Y4042130D01*
X5719013Y4032504D01*
G37*
D14*
G01*
X5545010Y3952494D03*
G36*
X5211013Y3872484D02*
G01*
X5211597Y3862857D01*
X5213324Y3853357D01*
X5216194Y3844112D01*
X5220157Y3835323D01*
X5225161Y3827043D01*
X5231129Y3819448D01*
X5237962Y3812616D01*
X5245557Y3806647D01*
X5253812Y3801643D01*
X5262625Y3797680D01*
X5271846Y3794810D01*
X5281371Y3793083D01*
X5290997Y3792499D01*
X5300649Y3793083D01*
X5310149Y3794810D01*
X5319369Y3797680D01*
X5328183Y3801643D01*
X5336438Y3806647D01*
X5344058Y3812616D01*
X5350890Y3819448D01*
X5356834Y3827043D01*
X5361838Y3835323D01*
X5365800Y3844112D01*
X5368670Y3853357D01*
X5370423Y3862857D01*
X5371007Y3872484D01*
X5371007Y4032504D01*
X5370423Y4042130D01*
X5368670Y4051630D01*
X5365800Y4060850D01*
X5361838Y4069664D01*
X5356834Y4077944D01*
X5350890Y4085539D01*
X5344058Y4092371D01*
X5336438Y4098340D01*
X5328183Y4103319D01*
X5319369Y4107281D01*
X5310149Y4110177D01*
X5300649Y4111904D01*
X5290997Y4112488D01*
X5281371Y4111904D01*
X5271846Y4110177D01*
X5262625Y4107281D01*
X5253812Y4103319D01*
X5245557Y4098340D01*
X5237962Y4092371D01*
X5231129Y4085539D01*
X5225161Y4077944D01*
X5220157Y4069664D01*
X5216194Y4060850D01*
X5213324Y4051630D01*
X5211597Y4042130D01*
X5211013Y4032504D01*
G37*
G36*
X4957013Y3872484D02*
G01*
X4957597Y3862857D01*
X4959324Y3853357D01*
X4962194Y3844112D01*
X4966157Y3835323D01*
X4971161Y3827043D01*
X4977129Y3819448D01*
X4983962Y3812616D01*
X4991557Y3806647D01*
X4999812Y3801643D01*
X5008625Y3797680D01*
X5017846Y3794810D01*
X5027371Y3793083D01*
X5036997Y3792499D01*
X5046649Y3793083D01*
X5056149Y3794810D01*
X5065369Y3797680D01*
X5074183Y3801643D01*
X5082438Y3806647D01*
X5090058Y3812616D01*
X5096890Y3819448D01*
X5102834Y3827043D01*
X5107838Y3835323D01*
X5111800Y3844112D01*
X5114670Y3853357D01*
X5116423Y3862857D01*
X5117007Y3872484D01*
X5117007Y4032504D01*
X5116423Y4042130D01*
X5114670Y4051630D01*
X5111800Y4060850D01*
X5107838Y4069664D01*
X5102834Y4077944D01*
X5096890Y4085539D01*
X5090058Y4092371D01*
X5082438Y4098340D01*
X5074183Y4103319D01*
X5065369Y4107281D01*
X5056149Y4110177D01*
X5046649Y4111904D01*
X5036997Y4112488D01*
X5027371Y4111904D01*
X5017846Y4110177D01*
X5008625Y4107281D01*
X4999812Y4103319D01*
X4991557Y4098340D01*
X4983962Y4092371D01*
X4977129Y4085539D01*
X4971161Y4077944D01*
X4966157Y4069664D01*
X4962194Y4060850D01*
X4959324Y4051630D01*
X4957597Y4042130D01*
X4957013Y4032504D01*
G37*
G36*
X4957013Y1967484D02*
G01*
X4957597Y1957857D01*
X4959324Y1948357D01*
X4962194Y1939137D01*
X4966157Y1930323D01*
X4971161Y1922043D01*
X4977129Y1914448D01*
X4983962Y1907616D01*
X4991557Y1901647D01*
X4999812Y1896668D01*
X5008625Y1892706D01*
X5017846Y1889810D01*
X5027371Y1888083D01*
X5036997Y1887499D01*
X5046649Y1888083D01*
X5056149Y1889810D01*
X5065369Y1892706D01*
X5074183Y1896668D01*
X5082438Y1901647D01*
X5090058Y1907616D01*
X5096890Y1914448D01*
X5102834Y1922043D01*
X5107838Y1930323D01*
X5111800Y1939137D01*
X5114670Y1948357D01*
X5116423Y1957857D01*
X5117007Y1967484D01*
X5117007Y2127504D01*
X5116423Y2137130D01*
X5114670Y2146630D01*
X5111800Y2155875D01*
X5107838Y2164664D01*
X5102834Y2172944D01*
X5096890Y2180539D01*
X5090058Y2187371D01*
X5082438Y2193340D01*
X5074183Y2198344D01*
X5065369Y2202306D01*
X5056149Y2205177D01*
X5046649Y2206904D01*
X5036997Y2207488D01*
X5027371Y2206904D01*
X5017846Y2205177D01*
X5008625Y2202306D01*
X4999812Y2198344D01*
X4991557Y2193340D01*
X4983962Y2187371D01*
X4977129Y2180539D01*
X4971161Y2172944D01*
X4966157Y2164664D01*
X4962194Y2155875D01*
X4959324Y2146630D01*
X4957597Y2137130D01*
X4957013Y2127504D01*
G37*
G36*
X5211013Y1967484D02*
G01*
X5211597Y1957857D01*
X5213324Y1948357D01*
X5216194Y1939137D01*
X5220157Y1930323D01*
X5225161Y1922043D01*
X5231129Y1914448D01*
X5237962Y1907616D01*
X5245557Y1901647D01*
X5253812Y1896668D01*
X5262625Y1892706D01*
X5271846Y1889810D01*
X5281371Y1888083D01*
X5290997Y1887499D01*
X5300649Y1888083D01*
X5310149Y1889810D01*
X5319369Y1892706D01*
X5328183Y1896668D01*
X5336438Y1901647D01*
X5344058Y1907616D01*
X5350890Y1914448D01*
X5356834Y1922043D01*
X5361838Y1930323D01*
X5365800Y1939137D01*
X5368670Y1948357D01*
X5370423Y1957857D01*
X5371007Y1967484D01*
X5371007Y2127504D01*
X5370423Y2137130D01*
X5368670Y2146630D01*
X5365800Y2155875D01*
X5361838Y2164664D01*
X5356834Y2172944D01*
X5350890Y2180539D01*
X5344058Y2187371D01*
X5336438Y2193340D01*
X5328183Y2198344D01*
X5319369Y2202306D01*
X5310149Y2205177D01*
X5300649Y2206904D01*
X5290997Y2207488D01*
X5281371Y2206904D01*
X5271846Y2205177D01*
X5262625Y2202306D01*
X5253812Y2198344D01*
X5245557Y2193340D01*
X5237962Y2187371D01*
X5231129Y2180539D01*
X5225161Y2172944D01*
X5220157Y2164664D01*
X5216194Y2155875D01*
X5213324Y2146630D01*
X5211597Y2137130D01*
X5211013Y2127504D01*
G37*
G01*
X5545010Y2047494D03*
G36*
X5719013Y1967484D02*
G01*
X5719572Y1957857D01*
X5721324Y1948357D01*
X5724194Y1939137D01*
X5728157Y1930323D01*
X5733161Y1922043D01*
X5739129Y1914448D01*
X5745962Y1907616D01*
X5753557Y1901647D01*
X5761812Y1896668D01*
X5770625Y1892706D01*
X5779846Y1889810D01*
X5789345Y1888083D01*
X5798997Y1887499D01*
X5808649Y1888083D01*
X5818149Y1889810D01*
X5827369Y1892706D01*
X5836183Y1896668D01*
X5844438Y1901647D01*
X5852058Y1907616D01*
X5858890Y1914448D01*
X5864834Y1922043D01*
X5869838Y1930323D01*
X5873800Y1939137D01*
X5876670Y1948357D01*
X5878423Y1957857D01*
X5879007Y1967484D01*
X5879007Y2127504D01*
X5878423Y2137130D01*
X5876670Y2146630D01*
X5873800Y2155875D01*
X5869838Y2164664D01*
X5864834Y2172944D01*
X5858890Y2180539D01*
X5852058Y2187371D01*
X5844438Y2193340D01*
X5836183Y2198344D01*
X5827369Y2202306D01*
X5818149Y2205177D01*
X5808649Y2206904D01*
X5798997Y2207488D01*
X5789345Y2206904D01*
X5779846Y2205177D01*
X5770625Y2202306D01*
X5761812Y2198344D01*
X5753557Y2193340D01*
X5745962Y2187371D01*
X5739129Y2180539D01*
X5733161Y2172944D01*
X5728157Y2164664D01*
X5724194Y2155875D01*
X5721324Y2146630D01*
X5719572Y2137130D01*
X5719013Y2127504D01*
G37*
G36*
X5973013Y1967484D02*
G01*
X5973572Y1957857D01*
X5975324Y1948357D01*
X5978194Y1939137D01*
X5982157Y1930323D01*
X5987161Y1922043D01*
X5993129Y1914448D01*
X5999962Y1907616D01*
X6007557Y1901647D01*
X6015812Y1896668D01*
X6024625Y1892706D01*
X6033846Y1889810D01*
X6043345Y1888083D01*
X6052997Y1887499D01*
X6062649Y1888083D01*
X6072149Y1889810D01*
X6081369Y1892706D01*
X6090183Y1896668D01*
X6098438Y1901647D01*
X6106058Y1907616D01*
X6112890Y1914448D01*
X6118834Y1922043D01*
X6123838Y1930323D01*
X6127800Y1939137D01*
X6130670Y1948357D01*
X6132423Y1957857D01*
X6133007Y1967484D01*
X6133007Y2127504D01*
X6132423Y2137130D01*
X6130670Y2146630D01*
X6127800Y2155875D01*
X6123838Y2164664D01*
X6118834Y2172944D01*
X6112890Y2180539D01*
X6106058Y2187371D01*
X6098438Y2193340D01*
X6090183Y2198344D01*
X6081369Y2202306D01*
X6072149Y2205177D01*
X6062649Y2206904D01*
X6052997Y2207488D01*
X6043345Y2206904D01*
X6033846Y2205177D01*
X6024625Y2202306D01*
X6015812Y2198344D01*
X6007557Y2193340D01*
X5999962Y2187371D01*
X5993129Y2180539D01*
X5987161Y2172944D01*
X5982157Y2164664D01*
X5978194Y2155875D01*
X5975324Y2146630D01*
X5973572Y2137130D01*
X5973013Y2127504D01*
G37*
G36*
X6226987Y1967484D02*
G01*
X6227572Y1957857D01*
X6229324Y1948357D01*
X6232194Y1939137D01*
X6236157Y1930323D01*
X6241161Y1922043D01*
X6247129Y1914448D01*
X6253962Y1907616D01*
X6261557Y1901647D01*
X6269812Y1896668D01*
X6278625Y1892706D01*
X6287846Y1889810D01*
X6297345Y1888083D01*
X6306997Y1887499D01*
X6316649Y1888083D01*
X6326149Y1889810D01*
X6335369Y1892706D01*
X6344183Y1896668D01*
X6352438Y1901647D01*
X6360058Y1907616D01*
X6366890Y1914448D01*
X6372834Y1922043D01*
X6377838Y1930323D01*
X6381800Y1939137D01*
X6384670Y1948357D01*
X6386423Y1957857D01*
X6387007Y1967484D01*
X6387007Y2127504D01*
X6386423Y2137130D01*
X6384670Y2146630D01*
X6381800Y2155875D01*
X6377838Y2164664D01*
X6372834Y2172944D01*
X6366890Y2180539D01*
X6360058Y2187371D01*
X6352438Y2193340D01*
X6344183Y2198344D01*
X6335369Y2202306D01*
X6326149Y2205177D01*
X6316649Y2206904D01*
X6306997Y2207488D01*
X6297345Y2206904D01*
X6287846Y2205177D01*
X6278625Y2202306D01*
X6269812Y2198344D01*
X6261557Y2193340D01*
X6253962Y2187371D01*
X6247129Y2180539D01*
X6241161Y2172944D01*
X6236157Y2164664D01*
X6232194Y2155875D01*
X6229324Y2146630D01*
X6227572Y2137130D01*
X6226987Y2127504D01*
G37*
G36*
X6480987Y1967484D02*
G01*
X6481572Y1957857D01*
X6483324Y1948357D01*
X6486194Y1939137D01*
X6490157Y1930323D01*
X6495161Y1922043D01*
X6501129Y1914448D01*
X6507937Y1907616D01*
X6515557Y1901647D01*
X6523812Y1896668D01*
X6532625Y1892706D01*
X6541846Y1889810D01*
X6551345Y1888083D01*
X6560997Y1887499D01*
X6570649Y1888083D01*
X6580149Y1889810D01*
X6589369Y1892706D01*
X6598183Y1896668D01*
X6606438Y1901647D01*
X6614058Y1907616D01*
X6620890Y1914448D01*
X6626834Y1922043D01*
X6631838Y1930323D01*
X6635800Y1939137D01*
X6638670Y1948357D01*
X6640423Y1957857D01*
X6641007Y1967484D01*
X6641007Y2127504D01*
X6640423Y2137130D01*
X6638670Y2146630D01*
X6635800Y2155875D01*
X6631838Y2164664D01*
X6626834Y2172944D01*
X6620890Y2180539D01*
X6614058Y2187371D01*
X6606438Y2193340D01*
X6598183Y2198344D01*
X6589369Y2202306D01*
X6580149Y2205177D01*
X6570649Y2206904D01*
X6560997Y2207488D01*
X6551345Y2206904D01*
X6541846Y2205177D01*
X6532625Y2202306D01*
X6523812Y2198344D01*
X6515557Y2193340D01*
X6507937Y2187371D01*
X6501129Y2180539D01*
X6495161Y2172944D01*
X6490157Y2164664D01*
X6486194Y2155875D01*
X6483324Y2146630D01*
X6481572Y2137130D01*
X6480987Y2127504D01*
G37*
D15*
G01*
X6814997Y2047494D03*
G36*
X6988987Y1967484D02*
G01*
X6989572Y1957857D01*
X6991324Y1948357D01*
X6994194Y1939137D01*
X6998157Y1930323D01*
X7003161Y1922043D01*
X7009129Y1914448D01*
X7015937Y1907616D01*
X7023557Y1901647D01*
X7031812Y1896668D01*
X7040625Y1892706D01*
X7049846Y1889810D01*
X7059345Y1888083D01*
X7068997Y1887499D01*
X7078649Y1888083D01*
X7088149Y1889810D01*
X7097369Y1892706D01*
X7106183Y1896668D01*
X7114438Y1901647D01*
X7122058Y1907616D01*
X7128890Y1914448D01*
X7134834Y1922043D01*
X7139838Y1930323D01*
X7143800Y1939137D01*
X7146670Y1948357D01*
X7148423Y1957857D01*
X7149007Y1967484D01*
X7149007Y2127504D01*
X7148423Y2137130D01*
X7146670Y2146630D01*
X7143800Y2155875D01*
X7139838Y2164664D01*
X7134834Y2172944D01*
X7128890Y2180539D01*
X7122058Y2187371D01*
X7114438Y2193340D01*
X7106183Y2198344D01*
X7097369Y2202306D01*
X7088149Y2205177D01*
X7078649Y2206904D01*
X7068997Y2207488D01*
X7059345Y2206904D01*
X7049846Y2205177D01*
X7040625Y2202306D01*
X7031812Y2198344D01*
X7023557Y2193340D01*
X7015937Y2187371D01*
X7009129Y2180539D01*
X7003161Y2172944D01*
X6998157Y2164664D01*
X6994194Y2155875D01*
X6991324Y2146630D01*
X6989572Y2137130D01*
X6988987Y2127504D01*
G37*
G36*
X7242987Y1967484D02*
G01*
X7243572Y1957857D01*
X7245324Y1948357D01*
X7248194Y1939137D01*
X7252157Y1930323D01*
X7257161Y1922043D01*
X7263129Y1914448D01*
X7269937Y1907616D01*
X7277557Y1901647D01*
X7285812Y1896668D01*
X7294625Y1892706D01*
X7303846Y1889810D01*
X7313345Y1888083D01*
X7322997Y1887499D01*
X7332649Y1888083D01*
X7342149Y1889810D01*
X7351369Y1892706D01*
X7360183Y1896668D01*
X7368438Y1901647D01*
X7376058Y1907616D01*
X7382890Y1914448D01*
X7388834Y1922043D01*
X7393838Y1930323D01*
X7397800Y1939137D01*
X7400670Y1948357D01*
X7402423Y1957857D01*
X7403007Y1967484D01*
X7403007Y2127504D01*
X7402423Y2137130D01*
X7400670Y2146630D01*
X7397800Y2155875D01*
X7393838Y2164664D01*
X7388834Y2172944D01*
X7382890Y2180539D01*
X7376058Y2187371D01*
X7368438Y2193340D01*
X7360183Y2198344D01*
X7351369Y2202306D01*
X7342149Y2205177D01*
X7332649Y2206904D01*
X7322997Y2207488D01*
X7313345Y2206904D01*
X7303846Y2205177D01*
X7294625Y2202306D01*
X7285812Y2198344D01*
X7277557Y2193340D01*
X7269937Y2187371D01*
X7263129Y2180539D01*
X7257161Y2172944D01*
X7252157Y2164664D01*
X7248194Y2155875D01*
X7245324Y2146630D01*
X7243572Y2137130D01*
X7242987Y2127504D01*
G37*
G36*
X7496987Y1967484D02*
G01*
X7497572Y1957857D01*
X7499324Y1948357D01*
X7502194Y1939137D01*
X7506157Y1930323D01*
X7511161Y1922043D01*
X7517104Y1914448D01*
X7523937Y1907616D01*
X7531557Y1901647D01*
X7539812Y1896668D01*
X7548625Y1892706D01*
X7557846Y1889810D01*
X7567345Y1888083D01*
X7576997Y1887499D01*
X7586649Y1888083D01*
X7596149Y1889810D01*
X7605369Y1892706D01*
X7614183Y1896668D01*
X7622438Y1901647D01*
X7630058Y1907616D01*
X7636865Y1914448D01*
X7642834Y1922043D01*
X7647838Y1930323D01*
X7651800Y1939137D01*
X7654670Y1948357D01*
X7656423Y1957857D01*
X7657007Y1967484D01*
X7657007Y2127504D01*
X7656423Y2137130D01*
X7654670Y2146630D01*
X7651800Y2155875D01*
X7647838Y2164664D01*
X7642834Y2172944D01*
X7636865Y2180539D01*
X7630058Y2187371D01*
X7622438Y2193340D01*
X7614183Y2198344D01*
X7605369Y2202306D01*
X7596149Y2205177D01*
X7586649Y2206904D01*
X7576997Y2207488D01*
X7567345Y2206904D01*
X7557846Y2205177D01*
X7548625Y2202306D01*
X7539812Y2198344D01*
X7531557Y2193340D01*
X7523937Y2187371D01*
X7517104Y2180539D01*
X7511161Y2172944D01*
X7506157Y2164664D01*
X7502194Y2155875D01*
X7499324Y2146630D01*
X7497572Y2137130D01*
X7496987Y2127504D01*
G37*
G36*
X7750987Y1967484D02*
G01*
X7751572Y1957857D01*
X7753324Y1948357D01*
X7756194Y1939137D01*
X7760157Y1930323D01*
X7765161Y1922043D01*
X7771104Y1914448D01*
X7777937Y1907616D01*
X7785557Y1901647D01*
X7793812Y1896668D01*
X7802625Y1892706D01*
X7811846Y1889810D01*
X7821345Y1888083D01*
X7830997Y1887499D01*
X7840649Y1888083D01*
X7850149Y1889810D01*
X7859369Y1892706D01*
X7868183Y1896668D01*
X7876438Y1901647D01*
X7884058Y1907616D01*
X7890865Y1914448D01*
X7896834Y1922043D01*
X7901838Y1930323D01*
X7905800Y1939137D01*
X7908670Y1948357D01*
X7910423Y1957857D01*
X7911007Y1967484D01*
X7911007Y2127504D01*
X7910423Y2137130D01*
X7908670Y2146630D01*
X7905800Y2155875D01*
X7901838Y2164664D01*
X7896834Y2172944D01*
X7890865Y2180539D01*
X7884058Y2187371D01*
X7876438Y2193340D01*
X7868183Y2198344D01*
X7859369Y2202306D01*
X7850149Y2205177D01*
X7840649Y2206904D01*
X7830997Y2207488D01*
X7821345Y2206904D01*
X7811846Y2205177D01*
X7802625Y2202306D01*
X7793812Y2198344D01*
X7785557Y2193340D01*
X7777937Y2187371D01*
X7771104Y2180539D01*
X7765161Y2172944D01*
X7760157Y2164664D01*
X7756194Y2155875D01*
X7753324Y2146630D01*
X7751572Y2137130D01*
X7750987Y2127504D01*
G37*
G01*
X8084997Y2047494D03*
G36*
X8258987Y1967484D02*
G01*
X8259572Y1957857D01*
X8261324Y1948357D01*
X8264194Y1939137D01*
X8268157Y1930323D01*
X8273161Y1922043D01*
X8279104Y1914448D01*
X8285937Y1907616D01*
X8293557Y1901647D01*
X8301812Y1896668D01*
X8310625Y1892706D01*
X8319846Y1889810D01*
X8329345Y1888083D01*
X8338997Y1887499D01*
X8348649Y1888083D01*
X8358149Y1889810D01*
X8367369Y1892706D01*
X8376183Y1896668D01*
X8384438Y1901647D01*
X8392058Y1907616D01*
X8398865Y1914448D01*
X8404834Y1922043D01*
X8409838Y1930323D01*
X8413800Y1939137D01*
X8416670Y1948357D01*
X8418423Y1957857D01*
X8419007Y1967484D01*
X8419007Y2127504D01*
X8418423Y2137130D01*
X8416670Y2146630D01*
X8413800Y2155875D01*
X8409838Y2164664D01*
X8404834Y2172944D01*
X8398865Y2180539D01*
X8392058Y2187371D01*
X8384438Y2193340D01*
X8376183Y2198344D01*
X8367369Y2202306D01*
X8358149Y2205177D01*
X8348649Y2206904D01*
X8338997Y2207488D01*
X8329345Y2206904D01*
X8319846Y2205177D01*
X8310625Y2202306D01*
X8301812Y2198344D01*
X8293557Y2193340D01*
X8285937Y2187371D01*
X8279104Y2180539D01*
X8273161Y2172944D01*
X8268157Y2164664D01*
X8264194Y2155875D01*
X8261324Y2146630D01*
X8259572Y2137130D01*
X8258987Y2127504D01*
G37*
G36*
X8512987Y1967484D02*
G01*
X8513572Y1957857D01*
X8515324Y1948357D01*
X8518194Y1939137D01*
X8522157Y1930323D01*
X8527161Y1922043D01*
X8533104Y1914448D01*
X8539937Y1907616D01*
X8547557Y1901647D01*
X8555812Y1896668D01*
X8564625Y1892706D01*
X8573846Y1889810D01*
X8583345Y1888083D01*
X8592997Y1887499D01*
X8602649Y1888083D01*
X8612149Y1889810D01*
X8621369Y1892706D01*
X8630183Y1896668D01*
X8638438Y1901647D01*
X8646033Y1907616D01*
X8652865Y1914448D01*
X8658834Y1922043D01*
X8663838Y1930323D01*
X8667800Y1939137D01*
X8670670Y1948357D01*
X8672423Y1957857D01*
X8673007Y1967484D01*
X8673007Y2127504D01*
X8672423Y2137130D01*
X8670670Y2146630D01*
X8667800Y2155875D01*
X8663838Y2164664D01*
X8658834Y2172944D01*
X8652865Y2180539D01*
X8646033Y2187371D01*
X8638438Y2193340D01*
X8630183Y2198344D01*
X8621369Y2202306D01*
X8612149Y2205177D01*
X8602649Y2206904D01*
X8592997Y2207488D01*
X8583345Y2206904D01*
X8573846Y2205177D01*
X8564625Y2202306D01*
X8555812Y2198344D01*
X8547557Y2193340D01*
X8539937Y2187371D01*
X8533104Y2180539D01*
X8527161Y2172944D01*
X8522157Y2164664D01*
X8518194Y2155875D01*
X8515324Y2146630D01*
X8513572Y2137130D01*
X8512987Y2127504D01*
G37*
G36*
X8766987Y1967484D02*
G01*
X8767572Y1957857D01*
X8769324Y1948357D01*
X8772194Y1939137D01*
X8776157Y1930323D01*
X8781161Y1922043D01*
X8787104Y1914448D01*
X8793937Y1907616D01*
X8801557Y1901647D01*
X8809812Y1896668D01*
X8818625Y1892706D01*
X8827846Y1889810D01*
X8837345Y1888083D01*
X8846997Y1887499D01*
X8856649Y1888083D01*
X8866149Y1889810D01*
X8875369Y1892706D01*
X8884183Y1896668D01*
X8892438Y1901647D01*
X8900033Y1907616D01*
X8906865Y1914448D01*
X8912834Y1922043D01*
X8917838Y1930323D01*
X8921800Y1939137D01*
X8924670Y1948357D01*
X8926423Y1957857D01*
X8926982Y1967484D01*
X8926982Y2127504D01*
X8926423Y2137130D01*
X8924670Y2146630D01*
X8921800Y2155875D01*
X8917838Y2164664D01*
X8912834Y2172944D01*
X8906865Y2180539D01*
X8900033Y2187371D01*
X8892438Y2193340D01*
X8884183Y2198344D01*
X8875369Y2202306D01*
X8866149Y2205177D01*
X8856649Y2206904D01*
X8846997Y2207488D01*
X8837345Y2206904D01*
X8827846Y2205177D01*
X8818625Y2202306D01*
X8809812Y2198344D01*
X8801557Y2193340D01*
X8793937Y2187371D01*
X8787104Y2180539D01*
X8781161Y2172944D01*
X8776157Y2164664D01*
X8772194Y2155875D01*
X8769324Y2146630D01*
X8767572Y2137130D01*
X8766987Y2127504D01*
G37*
G36*
X9020987Y1967484D02*
G01*
X9021572Y1957857D01*
X9023324Y1948357D01*
X9026194Y1939137D01*
X9030157Y1930323D01*
X9035161Y1922043D01*
X9041104Y1914448D01*
X9047937Y1907616D01*
X9055557Y1901647D01*
X9063812Y1896668D01*
X9072625Y1892706D01*
X9081846Y1889810D01*
X9091345Y1888083D01*
X9100997Y1887499D01*
X9110649Y1888083D01*
X9120149Y1889810D01*
X9129369Y1892706D01*
X9138183Y1896668D01*
X9146438Y1901647D01*
X9154033Y1907616D01*
X9160865Y1914448D01*
X9166834Y1922043D01*
X9171838Y1930323D01*
X9175800Y1939137D01*
X9178670Y1948357D01*
X9180423Y1957857D01*
X9180982Y1967484D01*
X9180982Y2127504D01*
X9180423Y2137130D01*
X9178670Y2146630D01*
X9175800Y2155875D01*
X9171838Y2164664D01*
X9166834Y2172944D01*
X9160865Y2180539D01*
X9154033Y2187371D01*
X9146438Y2193340D01*
X9138183Y2198344D01*
X9129369Y2202306D01*
X9120149Y2205177D01*
X9110649Y2206904D01*
X9100997Y2207488D01*
X9091345Y2206904D01*
X9081846Y2205177D01*
X9072625Y2202306D01*
X9063812Y2198344D01*
X9055557Y2193340D01*
X9047937Y2187371D01*
X9041104Y2180539D01*
X9035161Y2172944D01*
X9030157Y2164664D01*
X9026194Y2155875D01*
X9023324Y2146630D01*
X9021572Y2137130D01*
X9020987Y2127504D01*
G37*
D14*
G01*
X9354985Y2047494D03*
G36*
X9528987Y1967484D02*
G01*
X9529572Y1957857D01*
X9531324Y1948357D01*
X9534194Y1939137D01*
X9538157Y1930323D01*
X9543161Y1922043D01*
X9549104Y1914448D01*
X9555937Y1907616D01*
X9563557Y1901647D01*
X9571812Y1896668D01*
X9580625Y1892706D01*
X9589846Y1889810D01*
X9599345Y1888083D01*
X9608997Y1887499D01*
X9618624Y1888083D01*
X9628149Y1889810D01*
X9637369Y1892706D01*
X9646183Y1896668D01*
X9654438Y1901647D01*
X9662033Y1907616D01*
X9668865Y1914448D01*
X9674834Y1922043D01*
X9679838Y1930323D01*
X9683800Y1939137D01*
X9686670Y1948357D01*
X9688398Y1957857D01*
X9688982Y1967484D01*
X9688982Y2127504D01*
X9688398Y2137130D01*
X9686670Y2146630D01*
X9683800Y2155875D01*
X9679838Y2164664D01*
X9674834Y2172944D01*
X9668865Y2180539D01*
X9662033Y2187371D01*
X9654438Y2193340D01*
X9646183Y2198344D01*
X9637369Y2202306D01*
X9628149Y2205177D01*
X9618624Y2206904D01*
X9608997Y2207488D01*
X9599345Y2206904D01*
X9589846Y2205177D01*
X9580625Y2202306D01*
X9571812Y2198344D01*
X9563557Y2193340D01*
X9555937Y2187371D01*
X9549104Y2180539D01*
X9543161Y2172944D01*
X9538157Y2164664D01*
X9534194Y2155875D01*
X9531324Y2146630D01*
X9529572Y2137130D01*
X9528987Y2127504D01*
G37*
G36*
X9782987Y1967484D02*
G01*
X9783572Y1957857D01*
X9785324Y1948357D01*
X9788194Y1939137D01*
X9792157Y1930323D01*
X9797161Y1922043D01*
X9803104Y1914448D01*
X9809937Y1907616D01*
X9817557Y1901647D01*
X9825812Y1896668D01*
X9834625Y1892706D01*
X9843846Y1889810D01*
X9853345Y1888083D01*
X9862997Y1887499D01*
X9872624Y1888083D01*
X9882149Y1889810D01*
X9891369Y1892706D01*
X9900183Y1896668D01*
X9908438Y1901647D01*
X9916033Y1907616D01*
X9922865Y1914448D01*
X9928834Y1922043D01*
X9933838Y1930323D01*
X9937800Y1939137D01*
X9940670Y1948357D01*
X9942398Y1957857D01*
X9942982Y1967484D01*
X9942982Y2127504D01*
X9942398Y2137130D01*
X9940670Y2146630D01*
X9937800Y2155875D01*
X9933838Y2164664D01*
X9928834Y2172944D01*
X9922865Y2180539D01*
X9916033Y2187371D01*
X9908438Y2193340D01*
X9900183Y2198344D01*
X9891369Y2202306D01*
X9882149Y2205177D01*
X9872624Y2206904D01*
X9862997Y2207488D01*
X9853345Y2206904D01*
X9843846Y2205177D01*
X9834625Y2202306D01*
X9825812Y2198344D01*
X9817557Y2193340D01*
X9809937Y2187371D01*
X9803104Y2180539D01*
X9797161Y2172944D01*
X9792157Y2164664D01*
X9788194Y2155875D01*
X9785324Y2146630D01*
X9783572Y2137130D01*
X9782987Y2127504D01*
G37*
G36*
X5117007Y2919984D02*
G01*
X5126634Y2920568D01*
X5136159Y2922320D01*
X5145379Y2925190D01*
X5154168Y2929153D01*
X5162448Y2934157D01*
X5170043Y2940100D01*
X5176875Y2946933D01*
X5182844Y2954553D01*
X5187848Y2962808D01*
X5191810Y2971622D01*
X5194681Y2980842D01*
X5196408Y2990342D01*
X5196992Y2999994D01*
X5196408Y3009645D01*
X5194681Y3019145D01*
X5191810Y3028365D01*
X5187848Y3037179D01*
X5182844Y3045434D01*
X5176875Y3053054D01*
X5170043Y3059887D01*
X5162448Y3065830D01*
X5154168Y3070834D01*
X5145379Y3074796D01*
X5136159Y3077667D01*
X5126634Y3079419D01*
X5117007Y3080004D01*
X4957013Y3080004D01*
X4947361Y3079419D01*
X4937861Y3077667D01*
X4928641Y3074796D01*
X4919827Y3070834D01*
X4911547Y3065830D01*
X4903952Y3059887D01*
X4897120Y3053054D01*
X4891176Y3045434D01*
X4886172Y3037179D01*
X4882210Y3028365D01*
X4879340Y3019145D01*
X4877587Y3009645D01*
X4877003Y2999994D01*
X4877587Y2990342D01*
X4879340Y2980842D01*
X4882210Y2971622D01*
X4886172Y2962808D01*
X4891176Y2954553D01*
X4897120Y2946933D01*
X4903952Y2940100D01*
X4911547Y2934157D01*
X4919827Y2929153D01*
X4928641Y2925190D01*
X4937861Y2922320D01*
X4947361Y2920568D01*
X4957013Y2919984D01*
G37*
G36*
X5117007Y2665984D02*
G01*
X5126634Y2666568D01*
X5136159Y2668320D01*
X5145379Y2671190D01*
X5154168Y2675153D01*
X5162448Y2680157D01*
X5170043Y2686126D01*
X5176875Y2692933D01*
X5182844Y2700553D01*
X5187848Y2708808D01*
X5191810Y2717622D01*
X5194681Y2726842D01*
X5196408Y2736342D01*
X5196992Y2745994D01*
X5196408Y2755645D01*
X5194681Y2765145D01*
X5191810Y2774365D01*
X5187848Y2783179D01*
X5182844Y2791434D01*
X5176875Y2799054D01*
X5170043Y2805887D01*
X5162448Y2811830D01*
X5154168Y2816834D01*
X5145379Y2820796D01*
X5136159Y2823667D01*
X5126634Y2825419D01*
X5117007Y2826004D01*
X4957013Y2826004D01*
X4947361Y2825419D01*
X4937861Y2823667D01*
X4928641Y2820796D01*
X4919827Y2816834D01*
X4911547Y2811830D01*
X4903952Y2805887D01*
X4897120Y2799054D01*
X4891176Y2791434D01*
X4886172Y2783179D01*
X4882210Y2774365D01*
X4879340Y2765145D01*
X4877587Y2755645D01*
X4877003Y2745994D01*
X4877587Y2736342D01*
X4879340Y2726842D01*
X4882210Y2717622D01*
X4886172Y2708808D01*
X4891176Y2700553D01*
X4897120Y2692933D01*
X4903952Y2686126D01*
X4911547Y2680157D01*
X4919827Y2675153D01*
X4928641Y2671190D01*
X4937861Y2668320D01*
X4947361Y2666568D01*
X4957013Y2665984D01*
G37*
G36*
X5117007Y3173984D02*
G01*
X5126634Y3174568D01*
X5136159Y3176320D01*
X5145379Y3179190D01*
X5154168Y3183153D01*
X5162448Y3188157D01*
X5170043Y3194100D01*
X5176875Y3200933D01*
X5182844Y3208553D01*
X5187848Y3216808D01*
X5191810Y3225622D01*
X5194681Y3234842D01*
X5196408Y3244342D01*
X5196992Y3253994D01*
X5196408Y3263645D01*
X5194681Y3273145D01*
X5191810Y3282365D01*
X5187848Y3291179D01*
X5182844Y3299434D01*
X5176875Y3307054D01*
X5170043Y3313861D01*
X5162448Y3319830D01*
X5154168Y3324834D01*
X5145379Y3328796D01*
X5136159Y3331667D01*
X5126634Y3333419D01*
X5117007Y3334004D01*
X4957013Y3334004D01*
X4947361Y3333419D01*
X4937861Y3331667D01*
X4928641Y3328796D01*
X4919827Y3324834D01*
X4911547Y3319830D01*
X4903952Y3313861D01*
X4897120Y3307054D01*
X4891176Y3299434D01*
X4886172Y3291179D01*
X4882210Y3282365D01*
X4879340Y3273145D01*
X4877587Y3263645D01*
X4877003Y3253994D01*
X4877587Y3244342D01*
X4879340Y3234842D01*
X4882210Y3225622D01*
X4886172Y3216808D01*
X4891176Y3208553D01*
X4897120Y3200933D01*
X4903952Y3194100D01*
X4911547Y3188157D01*
X4919827Y3183153D01*
X4928641Y3179190D01*
X4937861Y3176320D01*
X4947361Y3174568D01*
X4957013Y3173984D01*
G37*
M02*
