G04 Layer: TopLayer*
G04 EasyEDA v6.5.40, 2024-04-28 19:39:01*
G04 a67cddfb3fce44daa9051d46cbbcc19f,10*
G04 Gerber Generator version 0.2*
G04 Scale: 100 percent, Rotated: No, Reflected: No *
G04 Dimensions in millimeters *
G04 leading zeros omitted , absolute positions ,4 integer and 5 decimal *
%FSLAX45Y45*%
%MOMM*%

%ADD10C,1.0000*%
%ADD11C,0.3000*%
%ADD12C,1.8000*%
%ADD13R,1.5748X1.7000*%
%ADD14C,1.7000*%
%ADD15R,1.5748X1.5748*%
%ADD16C,1.5748*%
%ADD17R,1.5000X1.0700*%
%ADD18O,1.499997X1.0700004*%
%ADD19C,1.8796*%
%ADD20C,1.7780*%
%ADD21C,1.3000*%
%ADD22R,1.7000X1.5748*%
%ADD23O,4.5999908X1.9999959999999999*%
%ADD24O,1.9999959999999999X4.5999908*%
%ADD25C,0.6200*%
%ADD26C,0.6100*%
%ADD27C,0.0103*%

%LPD*%
G36*
X726033Y25908D02*
G01*
X722172Y26670D01*
X718921Y28803D01*
X716686Y32004D01*
X715873Y35864D01*
X716534Y39674D01*
X718616Y43027D01*
X721766Y45313D01*
X725373Y46939D01*
X752805Y61722D01*
X779272Y78130D01*
X804672Y96164D01*
X828954Y115722D01*
X851916Y136702D01*
X873607Y159105D01*
X893826Y182778D01*
X912571Y207670D01*
X929741Y233629D01*
X945286Y260654D01*
X959103Y288544D01*
X971194Y317246D01*
X981506Y346659D01*
X989990Y376631D01*
X996594Y407060D01*
X1001268Y437845D01*
X1004112Y468884D01*
X1004976Y499973D01*
X1004112Y531114D01*
X1001268Y562152D01*
X996594Y592937D01*
X989990Y623366D01*
X981506Y653338D01*
X971194Y682752D01*
X959103Y711454D01*
X945286Y739343D01*
X929741Y766368D01*
X912571Y792327D01*
X893826Y817219D01*
X873607Y840892D01*
X851916Y863295D01*
X828954Y884275D01*
X804672Y903833D01*
X779272Y921867D01*
X752805Y938276D01*
X725373Y953058D01*
X697077Y966063D01*
X668070Y977341D01*
X638403Y986790D01*
X608177Y994410D01*
X577545Y1000150D01*
X546658Y1003960D01*
X515569Y1005890D01*
X484428Y1005890D01*
X453339Y1003960D01*
X422401Y1000150D01*
X391820Y994410D01*
X361594Y986790D01*
X331927Y977341D01*
X302869Y966063D01*
X274624Y953058D01*
X247192Y938276D01*
X220725Y921867D01*
X195275Y903833D01*
X171043Y884275D01*
X148031Y863295D01*
X126390Y840892D01*
X106172Y817219D01*
X87426Y792327D01*
X70256Y766368D01*
X54711Y739343D01*
X45161Y720090D01*
X42316Y716584D01*
X38252Y714705D01*
X33731Y714705D01*
X29718Y716686D01*
X26924Y720242D01*
X25908Y724611D01*
X25908Y6285687D01*
X26670Y6289548D01*
X28854Y6292850D01*
X32156Y6295034D01*
X36017Y6295847D01*
X39928Y6295085D01*
X43230Y6292900D01*
X45872Y6288532D01*
X59740Y6260642D01*
X75234Y6233617D01*
X92405Y6207658D01*
X111150Y6182766D01*
X131419Y6159093D01*
X153060Y6136690D01*
X176072Y6115710D01*
X200304Y6096152D01*
X225704Y6078118D01*
X252171Y6061710D01*
X279603Y6046927D01*
X307898Y6033922D01*
X336956Y6022644D01*
X366623Y6013196D01*
X396798Y6005576D01*
X427431Y5999835D01*
X458317Y5996025D01*
X489407Y5994095D01*
X520547Y5994095D01*
X551637Y5996025D01*
X582574Y5999835D01*
X613206Y6005576D01*
X643382Y6013196D01*
X673049Y6022644D01*
X702106Y6033922D01*
X730402Y6046927D01*
X757834Y6061710D01*
X784301Y6078118D01*
X809701Y6096152D01*
X833932Y6115710D01*
X856945Y6136690D01*
X878586Y6159093D01*
X898855Y6182766D01*
X917549Y6207658D01*
X934719Y6233617D01*
X950264Y6260642D01*
X964133Y6288532D01*
X976223Y6317234D01*
X986485Y6346647D01*
X994968Y6376619D01*
X1001572Y6407048D01*
X1006297Y6437833D01*
X1009091Y6468872D01*
X1010005Y6499961D01*
X1009091Y6531102D01*
X1006297Y6562140D01*
X1001572Y6592925D01*
X994968Y6623354D01*
X986485Y6653326D01*
X976223Y6682740D01*
X964133Y6711442D01*
X950264Y6739331D01*
X934719Y6766356D01*
X917549Y6792315D01*
X898855Y6817207D01*
X878586Y6840880D01*
X856945Y6863283D01*
X833932Y6884263D01*
X809701Y6903821D01*
X784301Y6921855D01*
X757834Y6938264D01*
X730402Y6953046D01*
X726795Y6954672D01*
X723595Y6956958D01*
X721563Y6960311D01*
X720852Y6964121D01*
X721715Y6967981D01*
X723950Y6971182D01*
X727202Y6973316D01*
X731012Y6974078D01*
X9278975Y6974078D01*
X9282785Y6973316D01*
X9286036Y6971182D01*
X9288272Y6967981D01*
X9289084Y6964121D01*
X9288424Y6960311D01*
X9286392Y6956958D01*
X9283192Y6954672D01*
X9279585Y6953046D01*
X9252153Y6938264D01*
X9225686Y6921855D01*
X9200286Y6903821D01*
X9176054Y6884263D01*
X9153042Y6863283D01*
X9131401Y6840880D01*
X9111132Y6817207D01*
X9092387Y6792315D01*
X9075216Y6766356D01*
X9059722Y6739331D01*
X9045854Y6711442D01*
X9033764Y6682740D01*
X9023451Y6653326D01*
X9015018Y6623354D01*
X9008414Y6592925D01*
X9003690Y6562140D01*
X9000896Y6531102D01*
X8999982Y6500012D01*
X9000896Y6468872D01*
X9003690Y6437833D01*
X9008414Y6407048D01*
X9015018Y6376619D01*
X9023451Y6346647D01*
X9033764Y6317234D01*
X9045854Y6288532D01*
X9059722Y6260642D01*
X9075216Y6233617D01*
X9092387Y6207658D01*
X9111132Y6182766D01*
X9131401Y6159093D01*
X9153042Y6136690D01*
X9176054Y6115710D01*
X9200286Y6096152D01*
X9225686Y6078118D01*
X9252153Y6061710D01*
X9279585Y6046927D01*
X9307880Y6033922D01*
X9336938Y6022644D01*
X9366605Y6013196D01*
X9396780Y6005576D01*
X9427413Y5999835D01*
X9458299Y5996025D01*
X9489389Y5994095D01*
X9520529Y5994095D01*
X9551619Y5996025D01*
X9582556Y5999835D01*
X9613188Y6005576D01*
X9643364Y6013196D01*
X9673031Y6022644D01*
X9702088Y6033922D01*
X9730384Y6046927D01*
X9757816Y6061710D01*
X9784283Y6078118D01*
X9809683Y6096152D01*
X9833914Y6115710D01*
X9856927Y6136690D01*
X9878568Y6159093D01*
X9898837Y6182766D01*
X9917531Y6207658D01*
X9934702Y6233617D01*
X9950246Y6260642D01*
X9954818Y6269837D01*
X9957663Y6273292D01*
X9961727Y6275222D01*
X9966248Y6275171D01*
X9970262Y6273241D01*
X9973056Y6269685D01*
X9974072Y6265316D01*
X9974072Y724611D01*
X9973056Y720191D01*
X9970262Y716686D01*
X9966248Y714705D01*
X9961727Y714654D01*
X9957663Y716584D01*
X9954818Y720090D01*
X9945268Y739343D01*
X9929723Y766368D01*
X9912553Y792327D01*
X9893808Y817219D01*
X9873589Y840892D01*
X9851898Y863295D01*
X9828936Y884275D01*
X9804654Y903833D01*
X9779254Y921867D01*
X9752787Y938276D01*
X9725355Y953058D01*
X9697059Y966063D01*
X9668052Y977341D01*
X9638385Y986790D01*
X9608159Y994410D01*
X9577527Y1000150D01*
X9546640Y1003960D01*
X9515551Y1005890D01*
X9484410Y1005890D01*
X9453321Y1003960D01*
X9422384Y1000150D01*
X9391802Y994410D01*
X9361576Y986790D01*
X9331909Y977341D01*
X9302851Y966063D01*
X9274606Y953058D01*
X9247174Y938276D01*
X9220708Y921867D01*
X9195257Y903833D01*
X9171025Y884275D01*
X9148013Y863295D01*
X9126372Y840892D01*
X9106154Y817219D01*
X9087408Y792327D01*
X9070238Y766368D01*
X9054693Y739343D01*
X9040876Y711454D01*
X9028785Y682752D01*
X9018473Y653338D01*
X9009989Y623366D01*
X9003385Y592937D01*
X8998661Y562152D01*
X8995867Y531114D01*
X8995003Y500024D01*
X8995867Y468884D01*
X8998661Y437845D01*
X9003385Y407060D01*
X9009989Y376631D01*
X9018473Y346659D01*
X9028785Y317246D01*
X9040876Y288544D01*
X9054693Y260654D01*
X9070238Y233629D01*
X9087408Y207670D01*
X9106154Y182778D01*
X9126372Y159105D01*
X9148013Y136702D01*
X9171025Y115722D01*
X9195257Y96164D01*
X9220708Y78130D01*
X9247174Y61722D01*
X9274606Y46939D01*
X9278213Y45313D01*
X9281363Y43027D01*
X9283446Y39674D01*
X9284106Y35864D01*
X9283242Y32004D01*
X9281058Y28803D01*
X9277807Y26670D01*
X9273946Y25908D01*
G37*

%LPC*%
G36*
X4040936Y495300D02*
G01*
X4073398Y495300D01*
X4073398Y554228D01*
X4014470Y554228D01*
X4014470Y521766D01*
X4015181Y515467D01*
X4017111Y509981D01*
X4020159Y505104D01*
X4024274Y500989D01*
X4029151Y497941D01*
X4034637Y496011D01*
G37*
G36*
X5913932Y495300D02*
G01*
X5946394Y495300D01*
X5946394Y554228D01*
X5887466Y554228D01*
X5887466Y521766D01*
X5888177Y515467D01*
X5890107Y509981D01*
X5893155Y505104D01*
X5897270Y500989D01*
X5902147Y497941D01*
X5907633Y496011D01*
G37*
G36*
X6037834Y495300D02*
G01*
X6070295Y495300D01*
X6076594Y496011D01*
X6082080Y497941D01*
X6086957Y500989D01*
X6091072Y505104D01*
X6094120Y509981D01*
X6096050Y515467D01*
X6096762Y521766D01*
X6096762Y554228D01*
X6037834Y554228D01*
G37*
G36*
X4164837Y495300D02*
G01*
X4197299Y495300D01*
X4203598Y496011D01*
X4209084Y497941D01*
X4213961Y500989D01*
X4218076Y505104D01*
X4221124Y509981D01*
X4223054Y515467D01*
X4223766Y521766D01*
X4223766Y554228D01*
X4164837Y554228D01*
G37*
G36*
X4627118Y495300D02*
G01*
X4640783Y496214D01*
X4654194Y498906D01*
X4667148Y503275D01*
X4679442Y509320D01*
X4690821Y516940D01*
X4701082Y525983D01*
X4710125Y536244D01*
X4717745Y547624D01*
X4723790Y559917D01*
X4728159Y572871D01*
X4730851Y586282D01*
X4731766Y599948D01*
X4730851Y613613D01*
X4728159Y627024D01*
X4723790Y639978D01*
X4717745Y652272D01*
X4710125Y663651D01*
X4701082Y673912D01*
X4690821Y682955D01*
X4679442Y690575D01*
X4667148Y696620D01*
X4654194Y700989D01*
X4640783Y703681D01*
X4627118Y704596D01*
X4613452Y703681D01*
X4600041Y700989D01*
X4587087Y696620D01*
X4574794Y690575D01*
X4563414Y682955D01*
X4553153Y673912D01*
X4544110Y663651D01*
X4536490Y652272D01*
X4530445Y639978D01*
X4526076Y627024D01*
X4523384Y613613D01*
X4522470Y599948D01*
X4523384Y586282D01*
X4526076Y572871D01*
X4530445Y559917D01*
X4536490Y547624D01*
X4544110Y536244D01*
X4553153Y525983D01*
X4563414Y516940D01*
X4574794Y509320D01*
X4587087Y503275D01*
X4600041Y498906D01*
X4613452Y496214D01*
G37*
G36*
X4373118Y495300D02*
G01*
X4386783Y496214D01*
X4400194Y498906D01*
X4413148Y503275D01*
X4425442Y509320D01*
X4436821Y516940D01*
X4447082Y525983D01*
X4456125Y536244D01*
X4463745Y547624D01*
X4469790Y559917D01*
X4474159Y572871D01*
X4476851Y586282D01*
X4477766Y599948D01*
X4476851Y613613D01*
X4474159Y627024D01*
X4469790Y639978D01*
X4463745Y652272D01*
X4456125Y663651D01*
X4447082Y673912D01*
X4436821Y682955D01*
X4425442Y690575D01*
X4419549Y693470D01*
X4416552Y695706D01*
X4414570Y698855D01*
X4413910Y702564D01*
X4413910Y1051864D01*
X4414672Y1055725D01*
X4416856Y1059027D01*
X4813808Y1455978D01*
X4817110Y1458163D01*
X4821021Y1458976D01*
X8456980Y1458976D01*
X8460587Y1458315D01*
X8463686Y1456436D01*
X8466277Y1454150D01*
X8474506Y1449070D01*
X8483447Y1445514D01*
X8492896Y1443482D01*
X8502548Y1443024D01*
X8512098Y1444294D01*
X8521293Y1447088D01*
X8529929Y1451457D01*
X8537702Y1457198D01*
X8544356Y1464157D01*
X8549741Y1472133D01*
X8553754Y1480921D01*
X8556142Y1490268D01*
X8557006Y1499870D01*
X8556142Y1509471D01*
X8553754Y1518818D01*
X8549741Y1527606D01*
X8544356Y1535582D01*
X8537702Y1542542D01*
X8529929Y1548282D01*
X8521293Y1552651D01*
X8512098Y1555445D01*
X8502548Y1556715D01*
X8492896Y1556258D01*
X8483447Y1554226D01*
X8474506Y1550670D01*
X8466277Y1545590D01*
X8463686Y1543304D01*
X8460587Y1541424D01*
X8456980Y1540764D01*
X4800346Y1540764D01*
X4791913Y1539951D01*
X4784242Y1537614D01*
X4777181Y1533855D01*
X4770577Y1528419D01*
X4344416Y1102258D01*
X4339031Y1095705D01*
X4335221Y1088644D01*
X4332935Y1080973D01*
X4332071Y1072489D01*
X4332071Y702411D01*
X4331411Y698754D01*
X4329430Y695553D01*
X4326432Y693318D01*
X4320794Y690575D01*
X4309414Y682955D01*
X4299153Y673912D01*
X4290110Y663651D01*
X4282490Y652272D01*
X4276445Y639978D01*
X4272076Y627024D01*
X4269384Y613613D01*
X4268470Y599948D01*
X4269384Y586282D01*
X4272076Y572871D01*
X4276445Y559917D01*
X4282490Y547624D01*
X4290110Y536244D01*
X4299153Y525983D01*
X4309414Y516940D01*
X4320794Y509320D01*
X4333087Y503275D01*
X4346041Y498906D01*
X4359452Y496214D01*
G37*
G36*
X4881118Y495300D02*
G01*
X4894783Y496214D01*
X4908194Y498906D01*
X4921148Y503275D01*
X4933442Y509320D01*
X4944821Y516940D01*
X4955082Y525983D01*
X4964125Y536244D01*
X4971745Y547624D01*
X4977790Y559917D01*
X4982159Y572871D01*
X4984851Y586282D01*
X4985308Y593394D01*
X4986223Y596950D01*
X4988255Y599948D01*
X5109565Y721207D01*
X5112867Y723442D01*
X5116728Y724204D01*
X5906973Y724204D01*
X5911189Y723239D01*
X5914694Y720598D01*
X5916726Y716788D01*
X5916980Y712419D01*
X5915355Y708355D01*
X5912205Y705358D01*
X5902147Y701954D01*
X5897270Y698906D01*
X5893155Y694791D01*
X5890107Y689914D01*
X5888177Y684428D01*
X5887466Y678129D01*
X5887466Y645668D01*
X5946394Y645668D01*
X5946394Y714044D01*
X5947156Y717905D01*
X5949391Y721207D01*
X5952642Y723442D01*
X5956554Y724204D01*
X6027674Y724204D01*
X6031585Y723442D01*
X6034836Y721207D01*
X6037072Y717905D01*
X6037834Y714044D01*
X6037834Y645668D01*
X6096762Y645668D01*
X6096762Y678129D01*
X6096050Y684428D01*
X6094120Y689914D01*
X6091072Y694791D01*
X6086957Y698906D01*
X6082080Y701954D01*
X6072022Y705358D01*
X6068872Y708355D01*
X6067247Y712419D01*
X6067501Y716788D01*
X6069533Y720598D01*
X6073038Y723239D01*
X6077254Y724204D01*
X6235090Y724204D01*
X6239408Y723239D01*
X6242913Y720496D01*
X6244894Y716584D01*
X6245047Y712165D01*
X6243320Y708050D01*
X6239967Y705154D01*
X6235750Y703884D01*
X6232448Y703681D01*
X6219037Y700989D01*
X6206083Y696620D01*
X6193790Y690575D01*
X6182410Y682955D01*
X6172149Y673912D01*
X6163106Y663651D01*
X6155486Y652272D01*
X6149441Y639978D01*
X6145072Y627024D01*
X6142380Y613613D01*
X6141466Y599948D01*
X6142380Y586282D01*
X6145072Y572871D01*
X6149441Y559917D01*
X6155486Y547624D01*
X6163106Y536244D01*
X6172149Y525983D01*
X6182410Y516940D01*
X6193790Y509320D01*
X6206083Y503275D01*
X6219037Y498906D01*
X6232448Y496214D01*
X6246114Y495300D01*
X6259779Y496214D01*
X6273190Y498906D01*
X6286144Y503275D01*
X6298438Y509320D01*
X6309817Y516940D01*
X6320078Y525983D01*
X6329121Y536244D01*
X6336741Y547624D01*
X6342786Y559917D01*
X6347155Y572871D01*
X6349847Y586282D01*
X6350762Y599948D01*
X6349847Y613613D01*
X6347155Y627024D01*
X6342786Y639978D01*
X6336741Y652272D01*
X6329121Y663651D01*
X6320078Y673912D01*
X6309817Y682955D01*
X6298438Y690575D01*
X6286144Y696620D01*
X6273190Y700989D01*
X6259779Y703681D01*
X6256477Y703884D01*
X6252260Y705154D01*
X6248908Y708050D01*
X6247180Y712165D01*
X6247333Y716584D01*
X6249314Y720496D01*
X6252819Y723239D01*
X6257137Y724204D01*
X6489090Y724204D01*
X6493408Y723239D01*
X6496913Y720496D01*
X6498894Y716584D01*
X6499047Y712165D01*
X6497320Y708050D01*
X6493967Y705154D01*
X6489750Y703884D01*
X6486448Y703681D01*
X6473037Y700989D01*
X6460083Y696620D01*
X6447790Y690575D01*
X6436410Y682955D01*
X6426149Y673912D01*
X6417106Y663651D01*
X6409486Y652272D01*
X6403441Y639978D01*
X6399072Y627024D01*
X6396380Y613613D01*
X6395466Y599948D01*
X6396380Y586282D01*
X6399072Y572871D01*
X6403441Y559917D01*
X6409486Y547624D01*
X6417106Y536244D01*
X6426149Y525983D01*
X6436410Y516940D01*
X6447790Y509320D01*
X6460083Y503275D01*
X6473037Y498906D01*
X6486448Y496214D01*
X6500114Y495300D01*
X6513779Y496214D01*
X6527190Y498906D01*
X6540144Y503275D01*
X6552438Y509320D01*
X6563817Y516940D01*
X6574078Y525983D01*
X6583121Y536244D01*
X6590741Y547624D01*
X6596786Y559917D01*
X6601155Y572871D01*
X6603847Y586282D01*
X6604762Y599948D01*
X6603847Y613613D01*
X6601155Y627024D01*
X6596786Y639978D01*
X6590741Y652272D01*
X6583121Y663651D01*
X6574078Y673912D01*
X6563817Y682955D01*
X6552438Y690575D01*
X6540144Y696620D01*
X6527190Y700989D01*
X6513779Y703681D01*
X6510477Y703884D01*
X6506260Y705154D01*
X6502907Y708050D01*
X6501180Y712165D01*
X6501333Y716584D01*
X6503314Y720496D01*
X6506819Y723239D01*
X6511137Y724204D01*
X6743090Y724204D01*
X6747408Y723239D01*
X6750913Y720496D01*
X6752894Y716584D01*
X6753047Y712165D01*
X6751320Y708050D01*
X6747967Y705154D01*
X6743750Y703884D01*
X6740448Y703681D01*
X6727037Y700989D01*
X6714083Y696620D01*
X6701790Y690575D01*
X6690410Y682955D01*
X6680149Y673912D01*
X6671106Y663651D01*
X6663486Y652272D01*
X6657441Y639978D01*
X6653072Y627024D01*
X6650380Y613613D01*
X6649466Y599948D01*
X6650380Y586282D01*
X6653072Y572871D01*
X6657441Y559917D01*
X6663486Y547624D01*
X6671106Y536244D01*
X6680149Y525983D01*
X6690410Y516940D01*
X6701790Y509320D01*
X6714083Y503275D01*
X6727037Y498906D01*
X6740448Y496214D01*
X6754114Y495300D01*
X6767779Y496214D01*
X6781190Y498906D01*
X6794144Y503275D01*
X6806438Y509320D01*
X6817817Y516940D01*
X6828078Y525983D01*
X6837121Y536244D01*
X6844741Y547624D01*
X6850786Y559917D01*
X6855155Y572871D01*
X6857847Y586282D01*
X6858762Y599948D01*
X6857847Y613613D01*
X6857136Y617067D01*
X6857238Y621385D01*
X6859066Y625246D01*
X6862318Y628040D01*
X6866432Y629208D01*
X6870700Y628599D01*
X6874306Y626262D01*
X6900976Y599541D01*
X6903059Y596544D01*
X6903923Y593039D01*
X6904380Y586282D01*
X6907072Y572871D01*
X6911441Y559917D01*
X6917486Y547624D01*
X6925106Y536244D01*
X6934149Y525983D01*
X6944410Y516940D01*
X6955790Y509320D01*
X6968083Y503275D01*
X6981037Y498906D01*
X6994448Y496214D01*
X7008114Y495300D01*
X7021779Y496214D01*
X7035190Y498906D01*
X7048144Y503275D01*
X7060438Y509320D01*
X7071817Y516940D01*
X7077100Y521563D01*
X7080199Y523443D01*
X7083806Y524103D01*
X8002676Y524154D01*
X8011515Y524967D01*
X8013953Y525373D01*
X8022590Y527507D01*
X8033105Y531672D01*
X8035290Y532790D01*
X8044942Y538835D01*
X8051800Y544474D01*
X8905494Y1398219D01*
X8911183Y1405077D01*
X8912606Y1407058D01*
X8917178Y1414678D01*
X8918295Y1416913D01*
X8921699Y1425092D01*
X8922461Y1427429D01*
X8924594Y1436065D01*
X8925001Y1438503D01*
X8925915Y1450086D01*
X8925915Y4199636D01*
X8925001Y4211320D01*
X8922512Y4222343D01*
X8918346Y4232910D01*
X8912656Y4242714D01*
X8905595Y4251604D01*
X8897315Y4259326D01*
X8887917Y4265726D01*
X8877706Y4270603D01*
X8866886Y4273956D01*
X8855659Y4275683D01*
X8844330Y4275683D01*
X8833104Y4273956D01*
X8822283Y4270603D01*
X8812022Y4265726D01*
X8802674Y4259326D01*
X8794343Y4251604D01*
X8787282Y4242714D01*
X8781592Y4232910D01*
X8777478Y4222343D01*
X8774938Y4211320D01*
X8774074Y4199636D01*
X8774074Y1485646D01*
X8773312Y1481734D01*
X8771077Y1478483D01*
X7971536Y678891D01*
X7968234Y676706D01*
X7964373Y675894D01*
X7083653Y675894D01*
X7080097Y676554D01*
X7076948Y678434D01*
X7071817Y682955D01*
X7060438Y690575D01*
X7048144Y696620D01*
X7035190Y700989D01*
X7021779Y703681D01*
X7014667Y704138D01*
X7011111Y705053D01*
X7008114Y707085D01*
X6859727Y855624D01*
X6852920Y861263D01*
X6850888Y862685D01*
X6841083Y868426D01*
X6830517Y872591D01*
X6821931Y874725D01*
X6819442Y875131D01*
X6810654Y875944D01*
X5078425Y875944D01*
X5069586Y875131D01*
X5067147Y874725D01*
X5058562Y872591D01*
X5056225Y871829D01*
X5047996Y868426D01*
X5045811Y867308D01*
X5036159Y861263D01*
X5029301Y855624D01*
X4880711Y707085D01*
X4877714Y705002D01*
X4874209Y704138D01*
X4867452Y703681D01*
X4854041Y700989D01*
X4841087Y696620D01*
X4828794Y690575D01*
X4817414Y682955D01*
X4807153Y673912D01*
X4798110Y663651D01*
X4790490Y652272D01*
X4784445Y639978D01*
X4780076Y627024D01*
X4777384Y613613D01*
X4776470Y599948D01*
X4777384Y586282D01*
X4780076Y572871D01*
X4784445Y559917D01*
X4790490Y547624D01*
X4798110Y536244D01*
X4807153Y525983D01*
X4817414Y516940D01*
X4828794Y509320D01*
X4841087Y503275D01*
X4854041Y498906D01*
X4867452Y496214D01*
G37*
G36*
X4164837Y645668D02*
G01*
X4223766Y645668D01*
X4223766Y678129D01*
X4223054Y684428D01*
X4221124Y689914D01*
X4218076Y694791D01*
X4213961Y698906D01*
X4209084Y701954D01*
X4203598Y703884D01*
X4197299Y704596D01*
X4164837Y704596D01*
G37*
G36*
X4014470Y645668D02*
G01*
X4073398Y645668D01*
X4073398Y704596D01*
X4040936Y704596D01*
X4034637Y703884D01*
X4029151Y701954D01*
X4024274Y698906D01*
X4020159Y694791D01*
X4017111Y689914D01*
X4015181Y684428D01*
X4014470Y678129D01*
G37*
G36*
X5002428Y1643176D02*
G01*
X5011978Y1644396D01*
X5021173Y1647240D01*
X5029809Y1651558D01*
X5037277Y1657096D01*
X5040122Y1658569D01*
X5043322Y1659077D01*
X8457031Y1659077D01*
X8460587Y1658416D01*
X8463737Y1656537D01*
X8466277Y1654302D01*
X8474506Y1649222D01*
X8483447Y1645666D01*
X8492896Y1643634D01*
X8502548Y1643176D01*
X8512098Y1644446D01*
X8521293Y1647240D01*
X8529929Y1651609D01*
X8537702Y1657350D01*
X8544356Y1664309D01*
X8549741Y1672285D01*
X8553754Y1681073D01*
X8556142Y1690420D01*
X8557006Y1700022D01*
X8556142Y1709623D01*
X8553754Y1718970D01*
X8549741Y1727758D01*
X8544356Y1735734D01*
X8537702Y1742693D01*
X8529929Y1748434D01*
X8521293Y1752803D01*
X8512098Y1755597D01*
X8502548Y1756867D01*
X8492896Y1756410D01*
X8483447Y1754378D01*
X8474506Y1750822D01*
X8466277Y1745742D01*
X8463686Y1743456D01*
X8460536Y1741576D01*
X8456980Y1740916D01*
X5043322Y1740916D01*
X5040122Y1741424D01*
X5037277Y1742897D01*
X5029809Y1748434D01*
X5021173Y1752752D01*
X5011978Y1755597D01*
X5002428Y1756816D01*
X4992776Y1756410D01*
X4983327Y1754378D01*
X4974386Y1750771D01*
X4966157Y1745742D01*
X4958943Y1739341D01*
X4952847Y1731822D01*
X4948174Y1723440D01*
X4944973Y1714347D01*
X4943348Y1704797D01*
X4943348Y1695196D01*
X4944973Y1685645D01*
X4948174Y1676552D01*
X4952847Y1668170D01*
X4958943Y1660652D01*
X4966157Y1654251D01*
X4974386Y1649222D01*
X4983327Y1645615D01*
X4992776Y1643583D01*
G37*
G36*
X8999982Y4449114D02*
G01*
X9014510Y4450029D01*
X9028785Y4452721D01*
X9042654Y4457242D01*
X9055811Y4463440D01*
X9068104Y4471212D01*
X9079331Y4480509D01*
X9089288Y4491126D01*
X9097822Y4502912D01*
X9104833Y4515662D01*
X9110218Y4529175D01*
X9113824Y4543247D01*
X9115653Y4557725D01*
X9115653Y4572254D01*
X9113824Y4586681D01*
X9110218Y4600803D01*
X9104833Y4614316D01*
X9097822Y4627067D01*
X9089288Y4638852D01*
X9079331Y4649470D01*
X9068104Y4658715D01*
X9055811Y4666538D01*
X9042654Y4672736D01*
X9028785Y4677206D01*
X9014510Y4679950D01*
X8999982Y4680864D01*
X8985453Y4679950D01*
X8971178Y4677206D01*
X8957310Y4672736D01*
X8944152Y4666538D01*
X8931859Y4658715D01*
X8920632Y4649470D01*
X8910675Y4638852D01*
X8902141Y4627067D01*
X8895130Y4614316D01*
X8889746Y4600803D01*
X8886139Y4586681D01*
X8884310Y4572254D01*
X8884310Y4557725D01*
X8886139Y4543247D01*
X8889746Y4529175D01*
X8895130Y4515662D01*
X8902141Y4502912D01*
X8910675Y4491126D01*
X8920632Y4480509D01*
X8931859Y4471212D01*
X8944152Y4463440D01*
X8957310Y4457242D01*
X8971178Y4452721D01*
X8985453Y4450029D01*
G37*
G36*
X421944Y4762093D02*
G01*
X454406Y4762093D01*
X454406Y4824120D01*
X395478Y4824120D01*
X395478Y4788560D01*
X396189Y4782261D01*
X398119Y4776774D01*
X401167Y4771898D01*
X405282Y4767783D01*
X410159Y4764684D01*
X415645Y4762804D01*
G37*
G36*
X545846Y4762093D02*
G01*
X578307Y4762093D01*
X584606Y4762804D01*
X590092Y4764684D01*
X594969Y4767783D01*
X599084Y4771898D01*
X602132Y4776774D01*
X604062Y4782261D01*
X604774Y4788560D01*
X604774Y4824120D01*
X545846Y4824120D01*
G37*
G36*
X545846Y4921859D02*
G01*
X604774Y4921859D01*
X604774Y4957419D01*
X604062Y4963718D01*
X602132Y4969205D01*
X599084Y4974082D01*
X594969Y4978196D01*
X590092Y4981295D01*
X584606Y4983175D01*
X578307Y4983886D01*
X545846Y4983886D01*
G37*
G36*
X395478Y4921859D02*
G01*
X454406Y4921859D01*
X454406Y4983886D01*
X421944Y4983886D01*
X415645Y4983175D01*
X410159Y4981295D01*
X405282Y4978196D01*
X401167Y4974082D01*
X398119Y4969205D01*
X396189Y4963718D01*
X395478Y4957419D01*
G37*
G36*
X493014Y5016347D02*
G01*
X507238Y5016347D01*
X521309Y5018125D01*
X535076Y5021732D01*
X548233Y5027066D01*
X560628Y5034076D01*
X572008Y5042560D01*
X582218Y5052415D01*
X591058Y5063540D01*
X598424Y5075682D01*
X604215Y5088686D01*
X608228Y5102301D01*
X610514Y5116322D01*
X610971Y5130546D01*
X609600Y5144668D01*
X606450Y5158536D01*
X601522Y5171897D01*
X594969Y5184495D01*
X586841Y5196128D01*
X577291Y5206644D01*
X566470Y5215839D01*
X554532Y5223611D01*
X541731Y5229758D01*
X528269Y5234228D01*
X514299Y5236972D01*
X500126Y5237886D01*
X485952Y5236972D01*
X471982Y5234228D01*
X458520Y5229758D01*
X445719Y5223611D01*
X433781Y5215839D01*
X422960Y5206644D01*
X413410Y5196128D01*
X405282Y5184495D01*
X398729Y5171897D01*
X393801Y5158536D01*
X390652Y5144668D01*
X389280Y5130546D01*
X389737Y5116322D01*
X392023Y5102301D01*
X396087Y5088686D01*
X401828Y5075682D01*
X409194Y5063540D01*
X418033Y5052415D01*
X428243Y5042560D01*
X439623Y5034076D01*
X452018Y5027066D01*
X465175Y5021732D01*
X478942Y5018125D01*
G37*
G36*
X8999982Y5319115D02*
G01*
X9014510Y5320030D01*
X9028785Y5322773D01*
X9042654Y5327243D01*
X9055811Y5333441D01*
X9068104Y5341264D01*
X9079331Y5350510D01*
X9089288Y5361127D01*
X9097822Y5372912D01*
X9104833Y5385663D01*
X9110218Y5399176D01*
X9113824Y5413298D01*
X9115653Y5427726D01*
X9115653Y5442254D01*
X9113824Y5456732D01*
X9110218Y5470804D01*
X9104833Y5484317D01*
X9097822Y5497068D01*
X9089288Y5508853D01*
X9079331Y5519470D01*
X9068104Y5528767D01*
X9055811Y5536539D01*
X9042654Y5542737D01*
X9028785Y5547258D01*
X9014510Y5549950D01*
X8999982Y5550865D01*
X8985453Y5549950D01*
X8971178Y5547258D01*
X8957310Y5542737D01*
X8944152Y5536539D01*
X8931859Y5528767D01*
X8920632Y5519470D01*
X8910675Y5508853D01*
X8902141Y5497068D01*
X8895130Y5484317D01*
X8889746Y5470804D01*
X8886139Y5456732D01*
X8884310Y5442254D01*
X8884310Y5427726D01*
X8886139Y5413298D01*
X8889746Y5399176D01*
X8895130Y5385663D01*
X8902141Y5372912D01*
X8910675Y5361127D01*
X8920632Y5350510D01*
X8931859Y5341264D01*
X8944152Y5333441D01*
X8957310Y5327243D01*
X8971178Y5322773D01*
X8985453Y5320030D01*
G37*
G36*
X2992628Y5395366D02*
G01*
X3007360Y5395366D01*
X3022041Y5397144D01*
X3036316Y5400751D01*
X3050082Y5406085D01*
X3063087Y5413095D01*
X3075127Y5421579D01*
X3086049Y5431536D01*
X3095650Y5442762D01*
X3103778Y5455056D01*
X3110382Y5468264D01*
X3115310Y5482183D01*
X3118459Y5496610D01*
X3119831Y5511292D01*
X3119374Y5526024D01*
X3117088Y5540654D01*
X3113024Y5554827D01*
X3107283Y5568442D01*
X3099917Y5581192D01*
X3091027Y5592978D01*
X3080766Y5603595D01*
X3069234Y5612841D01*
X3056686Y5620613D01*
X3043275Y5626760D01*
X3029254Y5631230D01*
X3014726Y5633923D01*
X2999994Y5634837D01*
X2985262Y5633923D01*
X2970733Y5631230D01*
X2956712Y5626760D01*
X2943301Y5620613D01*
X2930753Y5612841D01*
X2919222Y5603595D01*
X2908960Y5592978D01*
X2900070Y5581192D01*
X2892704Y5568442D01*
X2886964Y5554827D01*
X2882900Y5540654D01*
X2880614Y5526024D01*
X2880207Y5511292D01*
X2881528Y5496610D01*
X2884678Y5482183D01*
X2889605Y5468264D01*
X2896209Y5455056D01*
X2904337Y5442762D01*
X2913938Y5431536D01*
X2924860Y5421579D01*
X2936900Y5413095D01*
X2949905Y5406085D01*
X2963672Y5400751D01*
X2977946Y5397144D01*
G37*
G36*
X1999996Y5860084D02*
G01*
X2014372Y5860999D01*
X2028545Y5863691D01*
X2042261Y5868162D01*
X2055317Y5874258D01*
X2067458Y5881979D01*
X2078583Y5891174D01*
X2088438Y5901690D01*
X2096922Y5913374D01*
X2103882Y5925972D01*
X2109165Y5939383D01*
X2112772Y5953353D01*
X2114550Y5967679D01*
X2114550Y5982055D01*
X2112772Y5996381D01*
X2109165Y6010351D01*
X2103882Y6023762D01*
X2096922Y6036360D01*
X2088438Y6048044D01*
X2078583Y6058560D01*
X2067458Y6067755D01*
X2055317Y6075476D01*
X2042261Y6081572D01*
X2028545Y6086043D01*
X2014372Y6088735D01*
X1999996Y6089650D01*
X1985619Y6088735D01*
X1971446Y6086043D01*
X1957730Y6081572D01*
X1944674Y6075476D01*
X1932533Y6067755D01*
X1921408Y6058560D01*
X1911553Y6048044D01*
X1903069Y6036360D01*
X1896110Y6023762D01*
X1890826Y6010351D01*
X1887220Y5996381D01*
X1885442Y5982055D01*
X1885442Y5967679D01*
X1887220Y5953353D01*
X1890826Y5939383D01*
X1896110Y5925972D01*
X1903069Y5913374D01*
X1911553Y5901690D01*
X1921408Y5891174D01*
X1932533Y5881979D01*
X1944674Y5874258D01*
X1957730Y5868162D01*
X1971446Y5863691D01*
X1985619Y5860999D01*
G37*
G36*
X3478885Y5943600D02*
G01*
X3521100Y5943600D01*
X3533343Y5944514D01*
X3544874Y5947156D01*
X3555949Y5951474D01*
X3566210Y5957417D01*
X3575507Y5964783D01*
X3583533Y5973521D01*
X3590239Y5983325D01*
X3595370Y5993993D01*
X3598875Y6005322D01*
X3600653Y6017056D01*
X3600653Y6028944D01*
X3598875Y6040678D01*
X3595370Y6052007D01*
X3590239Y6062675D01*
X3583533Y6072479D01*
X3576980Y6079591D01*
X3574948Y6082792D01*
X3574237Y6086500D01*
X3574948Y6090208D01*
X3576980Y6093409D01*
X3583533Y6100521D01*
X3590239Y6110325D01*
X3595370Y6120993D01*
X3598875Y6132322D01*
X3600653Y6144056D01*
X3600653Y6155944D01*
X3598875Y6167678D01*
X3595370Y6179007D01*
X3588359Y6193485D01*
X3588105Y6196990D01*
X3589020Y6200343D01*
X3591051Y6203188D01*
X3595217Y6207404D01*
X3598265Y6212281D01*
X3600196Y6217767D01*
X3600907Y6224066D01*
X3600907Y6243878D01*
X3543858Y6243878D01*
X3543858Y6238646D01*
X3542995Y6234582D01*
X3540607Y6231229D01*
X3537051Y6229045D01*
X3532936Y6228537D01*
X3521100Y6229400D01*
X3478885Y6229400D01*
X3467049Y6228537D01*
X3462934Y6229045D01*
X3459378Y6231229D01*
X3456990Y6234582D01*
X3456127Y6238646D01*
X3456127Y6243878D01*
X3399078Y6243878D01*
X3399078Y6224066D01*
X3399790Y6217767D01*
X3401720Y6212281D01*
X3404768Y6207404D01*
X3408984Y6203188D01*
X3410965Y6200343D01*
X3411880Y6196990D01*
X3411626Y6193485D01*
X3404615Y6179007D01*
X3401110Y6167678D01*
X3399332Y6155944D01*
X3399332Y6144056D01*
X3401110Y6132322D01*
X3404615Y6120993D01*
X3409746Y6110325D01*
X3416452Y6100521D01*
X3423005Y6093409D01*
X3425037Y6090208D01*
X3425748Y6086500D01*
X3425037Y6082792D01*
X3423005Y6079591D01*
X3416452Y6072479D01*
X3409746Y6062675D01*
X3404615Y6052007D01*
X3401110Y6040678D01*
X3399332Y6028944D01*
X3399332Y6017056D01*
X3401110Y6005322D01*
X3404615Y5993993D01*
X3409746Y5983325D01*
X3416452Y5973521D01*
X3424478Y5964783D01*
X3433775Y5957417D01*
X3444036Y5951474D01*
X3455111Y5947156D01*
X3466642Y5944514D01*
G37*
G36*
X6105296Y6064097D02*
G01*
X6364681Y6064097D01*
X6380175Y6065012D01*
X6395110Y6067755D01*
X6409639Y6072276D01*
X6423507Y6078524D01*
X6436512Y6086398D01*
X6448450Y6095796D01*
X6459220Y6106515D01*
X6468618Y6118504D01*
X6476441Y6131509D01*
X6482689Y6145377D01*
X6487210Y6159855D01*
X6489954Y6174841D01*
X6490868Y6189980D01*
X6489954Y6205169D01*
X6487210Y6220155D01*
X6482689Y6234633D01*
X6476441Y6248501D01*
X6468618Y6261506D01*
X6459220Y6273495D01*
X6448450Y6284214D01*
X6436512Y6293612D01*
X6423507Y6301486D01*
X6409639Y6307734D01*
X6395110Y6312255D01*
X6380175Y6314998D01*
X6364681Y6315913D01*
X6105296Y6315913D01*
X6089802Y6314998D01*
X6074867Y6312255D01*
X6060338Y6307734D01*
X6046470Y6301486D01*
X6033465Y6293612D01*
X6021527Y6284214D01*
X6010757Y6273495D01*
X6001359Y6261506D01*
X5993536Y6248501D01*
X5987288Y6234633D01*
X5982766Y6220155D01*
X5980023Y6205169D01*
X5979109Y6189980D01*
X5980023Y6174841D01*
X5982766Y6159855D01*
X5987288Y6145377D01*
X5993536Y6131509D01*
X6001359Y6118504D01*
X6010757Y6106515D01*
X6021527Y6095796D01*
X6033465Y6086398D01*
X6046470Y6078524D01*
X6060338Y6072276D01*
X6074867Y6067755D01*
X6089802Y6065012D01*
G37*
G36*
X8384031Y6188506D02*
G01*
X8396630Y6190081D01*
X8408873Y6193332D01*
X8409838Y6193790D01*
X8379256Y6224320D01*
X8348725Y6193790D01*
X8358835Y6190742D01*
X8371331Y6188760D01*
G37*
G36*
X5708650Y6247536D02*
G01*
X5708650Y6368643D01*
X5639054Y6368643D01*
X5639054Y6360261D01*
X5640019Y6344818D01*
X5642762Y6329832D01*
X5647283Y6315303D01*
X5653481Y6301486D01*
X5661355Y6288481D01*
X5670753Y6276492D01*
X5681472Y6265722D01*
X5693460Y6256375D01*
X5706465Y6248501D01*
G37*
G36*
X5821324Y6247536D02*
G01*
X5823458Y6248501D01*
X5836462Y6256375D01*
X5848451Y6265722D01*
X5859221Y6276492D01*
X5868568Y6288481D01*
X5876442Y6301486D01*
X5882690Y6315303D01*
X5887212Y6329832D01*
X5889955Y6344818D01*
X5890869Y6360261D01*
X5890869Y6368643D01*
X5821324Y6368643D01*
G37*
G36*
X8293811Y6248755D02*
G01*
X8324342Y6279286D01*
X8293760Y6309868D01*
X8290052Y6296609D01*
X8288528Y6284061D01*
X8288731Y6271361D01*
X8290712Y6258814D01*
G37*
G36*
X8464651Y6248806D02*
G01*
X8467039Y6255766D01*
X8469477Y6268212D01*
X8470138Y6280861D01*
X8469020Y6293510D01*
X8466175Y6305854D01*
X8464702Y6309766D01*
X8434222Y6279286D01*
G37*
G36*
X3399078Y6310122D02*
G01*
X3456127Y6310122D01*
X3456127Y6356400D01*
X3425545Y6356400D01*
X3419246Y6355689D01*
X3413760Y6353759D01*
X3408883Y6350711D01*
X3404768Y6346596D01*
X3401720Y6341719D01*
X3399790Y6336233D01*
X3399078Y6329934D01*
G37*
G36*
X3543858Y6310122D02*
G01*
X3600907Y6310122D01*
X3600907Y6329934D01*
X3600196Y6336233D01*
X3598265Y6341719D01*
X3595217Y6346596D01*
X3591102Y6350711D01*
X3586226Y6353759D01*
X3580739Y6355689D01*
X3574440Y6356400D01*
X3543858Y6356400D01*
G37*
G36*
X8525459Y6329934D02*
G01*
X8538006Y6331508D01*
X8550300Y6334760D01*
X8561933Y6339738D01*
X8572804Y6346240D01*
X8582660Y6354216D01*
X8591296Y6363512D01*
X8598611Y6373876D01*
X8604351Y6385204D01*
X8608466Y6397193D01*
X8610904Y6409639D01*
X8611565Y6422288D01*
X8610447Y6434937D01*
X8607602Y6447282D01*
X8603081Y6459118D01*
X8596934Y6470192D01*
X8589264Y6480302D01*
X8580323Y6489293D01*
X8570163Y6496913D01*
X8559088Y6503060D01*
X8547252Y6507632D01*
X8534908Y6510477D01*
X8522258Y6511594D01*
X8509609Y6510883D01*
X8497163Y6508496D01*
X8485174Y6504381D01*
X8473897Y6498590D01*
X8463483Y6491325D01*
X8454237Y6482689D01*
X8446262Y6472834D01*
X8439708Y6461963D01*
X8434781Y6450279D01*
X8431479Y6438036D01*
X8429955Y6425438D01*
X8430158Y6412788D01*
X8432139Y6400241D01*
X8435848Y6388150D01*
X8441182Y6376670D01*
X8448344Y6365748D01*
X8456422Y6356451D01*
X8465972Y6348120D01*
X8476640Y6341211D01*
X8488121Y6335877D01*
X8500262Y6332169D01*
X8512759Y6330188D01*
G37*
G36*
X8379256Y6334201D02*
G01*
X8409736Y6364681D01*
X8405825Y6366205D01*
X8393480Y6369050D01*
X8380831Y6370167D01*
X8368182Y6369507D01*
X8355736Y6367068D01*
X8348827Y6364681D01*
G37*
G36*
X7630515Y6389166D02*
G01*
X7644688Y6390538D01*
X7658557Y6393688D01*
X7671866Y6398615D01*
X7684465Y6405168D01*
X7696098Y6413296D01*
X7706664Y6422847D01*
X7715859Y6433667D01*
X7723581Y6445554D01*
X7729778Y6458356D01*
X7734249Y6471869D01*
X7736941Y6485788D01*
X7737856Y6499961D01*
X7736941Y6514185D01*
X7734249Y6528104D01*
X7729778Y6541617D01*
X7723581Y6554419D01*
X7715859Y6566306D01*
X7706664Y6577126D01*
X7696098Y6586677D01*
X7684465Y6594805D01*
X7671866Y6601358D01*
X7658557Y6606286D01*
X7644688Y6609435D01*
X7630515Y6610807D01*
X7616342Y6610350D01*
X7602321Y6608114D01*
X7588707Y6604050D01*
X7575702Y6598310D01*
X7563561Y6590944D01*
X7552436Y6582054D01*
X7542530Y6571843D01*
X7534046Y6560464D01*
X7527086Y6548120D01*
X7521752Y6534912D01*
X7518146Y6521196D01*
X7516317Y6507073D01*
X7516317Y6492900D01*
X7518146Y6478778D01*
X7521752Y6465062D01*
X7527086Y6451854D01*
X7534046Y6439509D01*
X7542530Y6428130D01*
X7552436Y6417919D01*
X7563561Y6409029D01*
X7575702Y6401663D01*
X7588707Y6395923D01*
X7602321Y6391859D01*
X7616342Y6389624D01*
G37*
G36*
X7288580Y6395313D02*
G01*
X7324140Y6395313D01*
X7324140Y6454241D01*
X7262063Y6454241D01*
X7262063Y6421831D01*
X7262774Y6415481D01*
X7264704Y6410045D01*
X7267803Y6405118D01*
X7271867Y6401054D01*
X7276795Y6397955D01*
X7282230Y6396075D01*
G37*
G36*
X7421829Y6395313D02*
G01*
X7457389Y6395313D01*
X7463739Y6396075D01*
X7469174Y6397955D01*
X7474102Y6401054D01*
X7478166Y6405118D01*
X7481265Y6410045D01*
X7483195Y6415481D01*
X7483906Y6421831D01*
X7483906Y6454241D01*
X7421829Y6454241D01*
G37*
G36*
X1999996Y6510324D02*
G01*
X2014372Y6511239D01*
X2028545Y6513931D01*
X2042261Y6518402D01*
X2055317Y6524498D01*
X2067458Y6532219D01*
X2078583Y6541414D01*
X2088438Y6551930D01*
X2096922Y6563614D01*
X2103882Y6576212D01*
X2109165Y6589623D01*
X2112772Y6603593D01*
X2114550Y6617919D01*
X2114550Y6632295D01*
X2112772Y6646621D01*
X2109165Y6660591D01*
X2103882Y6674002D01*
X2096922Y6686600D01*
X2088438Y6698284D01*
X2078583Y6708800D01*
X2067458Y6717995D01*
X2055317Y6725716D01*
X2042261Y6731812D01*
X2028545Y6736283D01*
X2014372Y6738975D01*
X1999996Y6739890D01*
X1985619Y6738975D01*
X1971446Y6736283D01*
X1957730Y6731812D01*
X1944674Y6725716D01*
X1932533Y6717995D01*
X1921408Y6708800D01*
X1911553Y6698284D01*
X1903069Y6686600D01*
X1896110Y6674002D01*
X1890826Y6660591D01*
X1887220Y6646621D01*
X1885442Y6632295D01*
X1885442Y6617919D01*
X1887220Y6603593D01*
X1890826Y6589623D01*
X1896110Y6576212D01*
X1903069Y6563614D01*
X1911553Y6551930D01*
X1921408Y6541414D01*
X1932533Y6532219D01*
X1944674Y6524498D01*
X1957730Y6518402D01*
X1971446Y6513931D01*
X1985619Y6511239D01*
G37*
G36*
X7421829Y6545681D02*
G01*
X7483906Y6545681D01*
X7483906Y6578142D01*
X7483195Y6584492D01*
X7481265Y6589928D01*
X7478166Y6594856D01*
X7474102Y6598920D01*
X7469174Y6602018D01*
X7463739Y6603898D01*
X7457389Y6604609D01*
X7421829Y6604609D01*
G37*
G36*
X7262063Y6545681D02*
G01*
X7324140Y6545681D01*
X7324140Y6604609D01*
X7288580Y6604609D01*
X7282230Y6603898D01*
X7276795Y6602018D01*
X7271867Y6598920D01*
X7267803Y6594856D01*
X7264704Y6589928D01*
X7262774Y6584492D01*
X7262063Y6578142D01*
G37*
G36*
X5639054Y6611315D02*
G01*
X5708650Y6611315D01*
X5708650Y6732422D01*
X5706465Y6731457D01*
X5693460Y6723583D01*
X5681472Y6714185D01*
X5670753Y6703466D01*
X5661355Y6691477D01*
X5653481Y6678472D01*
X5647283Y6664604D01*
X5642762Y6650075D01*
X5640019Y6635140D01*
X5639054Y6619646D01*
G37*
G36*
X5821324Y6611315D02*
G01*
X5890869Y6611315D01*
X5890869Y6619646D01*
X5889955Y6635140D01*
X5887212Y6650075D01*
X5882690Y6664604D01*
X5876442Y6678472D01*
X5868568Y6691477D01*
X5859221Y6703466D01*
X5848451Y6714185D01*
X5836462Y6723583D01*
X5823458Y6731457D01*
X5821324Y6732422D01*
G37*
G36*
X2992628Y6665366D02*
G01*
X3007360Y6665366D01*
X3022041Y6667144D01*
X3036316Y6670751D01*
X3050082Y6676085D01*
X3063087Y6683095D01*
X3075127Y6691579D01*
X3086049Y6701536D01*
X3095650Y6712762D01*
X3103778Y6725056D01*
X3110382Y6738264D01*
X3115310Y6752183D01*
X3118459Y6766610D01*
X3119831Y6781292D01*
X3119374Y6796024D01*
X3117088Y6810654D01*
X3113024Y6824827D01*
X3107283Y6838442D01*
X3099917Y6851192D01*
X3091027Y6862978D01*
X3080766Y6873595D01*
X3069234Y6882841D01*
X3056686Y6890613D01*
X3043275Y6896760D01*
X3029254Y6901230D01*
X3014726Y6903923D01*
X2999994Y6904837D01*
X2985262Y6903923D01*
X2970733Y6901230D01*
X2956712Y6896760D01*
X2943301Y6890613D01*
X2930753Y6882841D01*
X2919222Y6873595D01*
X2908960Y6862978D01*
X2900070Y6851192D01*
X2892704Y6838442D01*
X2886964Y6824827D01*
X2882900Y6810654D01*
X2880614Y6796024D01*
X2880207Y6781292D01*
X2881528Y6766610D01*
X2884678Y6752183D01*
X2889605Y6738264D01*
X2896209Y6725056D01*
X2904337Y6712762D01*
X2913938Y6701536D01*
X2924860Y6691579D01*
X2936900Y6683095D01*
X2949905Y6676085D01*
X2963672Y6670751D01*
X2977946Y6667144D01*
G37*
G36*
X6356350Y6684060D02*
G01*
X6364681Y6684060D01*
X6380175Y6685025D01*
X6395110Y6687769D01*
X6409639Y6692290D01*
X6423507Y6698488D01*
X6436512Y6706362D01*
X6448501Y6715759D01*
X6459220Y6726478D01*
X6468618Y6738467D01*
X6476492Y6751472D01*
X6477457Y6753606D01*
X6356350Y6753606D01*
G37*
G36*
X6105296Y6684060D02*
G01*
X6113627Y6684060D01*
X6113627Y6753606D01*
X5992571Y6753606D01*
X5993536Y6751472D01*
X6001410Y6738467D01*
X6010757Y6726478D01*
X6021527Y6715759D01*
X6033465Y6706362D01*
X6046520Y6698488D01*
X6060338Y6692290D01*
X6074867Y6687769D01*
X6089802Y6685025D01*
G37*
G36*
X6356350Y6866331D02*
G01*
X6477457Y6866331D01*
X6476492Y6868464D01*
X6468618Y6881469D01*
X6459220Y6893458D01*
X6448501Y6904228D01*
X6436512Y6913575D01*
X6423507Y6921449D01*
X6409639Y6927697D01*
X6395110Y6932218D01*
X6380175Y6934962D01*
X6364681Y6935876D01*
X6356350Y6935876D01*
G37*
G36*
X5992571Y6866331D02*
G01*
X6113627Y6866331D01*
X6113627Y6935876D01*
X6105296Y6935876D01*
X6089802Y6934962D01*
X6074867Y6932218D01*
X6060338Y6927697D01*
X6046520Y6921449D01*
X6033465Y6913575D01*
X6021527Y6904228D01*
X6010757Y6893458D01*
X6001410Y6881469D01*
X5993536Y6868464D01*
G37*

%LPD*%
D10*
X4880990Y599998D02*
G01*
X5081092Y800100D01*
X5362508Y800100D01*
X7007859Y599947D02*
G01*
X6807961Y800100D01*
X5299963Y800100D01*
X7007981Y600001D02*
G01*
X8000011Y600001D01*
X8049996Y649986D01*
D11*
X8500107Y1700019D02*
G01*
X8500084Y1699996D01*
X4999990Y1699996D01*
X8500109Y1499870D02*
G01*
X4799863Y1499870D01*
X4372990Y1072997D01*
X4372990Y599998D01*
D10*
X8049996Y649986D02*
G01*
X8049996Y650008D01*
X8278352Y878365D01*
X8849982Y3699992D02*
G01*
X8849982Y1449997D01*
X8249983Y849998D01*
X8849982Y4199991D02*
G01*
X8849982Y3699992D01*
D12*
G01*
X8999981Y4564989D03*
G01*
X8999981Y5434990D03*
D13*
G01*
X500126Y4872989D03*
D14*
G01*
X500126Y5126989D03*
D15*
G01*
X4119118Y599947D03*
D16*
G01*
X4373118Y599947D03*
G01*
X4627118Y599947D03*
G01*
X4881118Y599947D03*
G01*
X7008113Y599947D03*
G01*
X6754113Y599947D03*
G01*
X6500113Y599947D03*
G01*
X6246113Y599947D03*
D15*
G01*
X5992113Y599947D03*
D17*
G01*
X3499993Y6276987D03*
D18*
G01*
X3499993Y6149987D03*
G01*
X3499993Y6022987D03*
D19*
G01*
X2999993Y5514987D03*
G01*
X2999993Y6784987D03*
D20*
G01*
X1999995Y6625107D03*
G01*
X1999995Y5974867D03*
D21*
G01*
X8520704Y6420700D03*
G01*
X8379282Y6279281D03*
D22*
G01*
X7372997Y6499974D03*
D14*
G01*
X7626997Y6499974D03*
D23*
G01*
X6234988Y6190005D03*
G01*
X6235014Y6809968D03*
D24*
G01*
X5764987Y6489979D03*
D25*
G01*
X7499984Y899998D03*
G01*
X6999986Y899998D03*
G01*
X7499984Y499998D03*
G01*
X7499984Y1349997D03*
G01*
X7749984Y1349997D03*
G01*
X8849982Y4199991D03*
G01*
X8849982Y3699992D03*
G01*
X8049983Y674999D03*
G01*
X7999984Y1349997D03*
G01*
X8249983Y1349997D03*
G01*
X8500109Y1499870D03*
G01*
X8500109Y1700021D03*
G01*
X4999990Y1699996D03*
G01*
X4499990Y999997D03*
G01*
X9749980Y1499996D03*
D26*
G01*
X107205Y5892777D03*
G01*
X107205Y4892779D03*
G01*
X107205Y3892781D03*
G01*
X107205Y2892783D03*
G01*
X107205Y1892785D03*
G01*
X1107203Y6892775D03*
G01*
X1107203Y5892777D03*
G01*
X1107203Y4892779D03*
G01*
X1107203Y3892781D03*
G01*
X1107203Y2892783D03*
G01*
X1107203Y1892785D03*
G01*
X1107203Y892787D03*
G01*
X2107201Y6892775D03*
G01*
X2107201Y4892779D03*
G01*
X2107201Y3892781D03*
G01*
X2107201Y2892783D03*
G01*
X2107201Y1892785D03*
G01*
X2107201Y892787D03*
G01*
X3107199Y5892777D03*
G01*
X3107199Y4892779D03*
G01*
X3107199Y3892781D03*
G01*
X3107199Y2892783D03*
G01*
X3107199Y1892785D03*
G01*
X3107199Y892787D03*
G01*
X4107197Y6892775D03*
G01*
X4107197Y4892779D03*
G01*
X4107197Y3892781D03*
G01*
X4107197Y2892783D03*
G01*
X4107197Y1892785D03*
G01*
X4107197Y892787D03*
G01*
X5107195Y6892775D03*
G01*
X5107195Y5892777D03*
G01*
X5107195Y4892779D03*
G01*
X6107193Y5892777D03*
G01*
X6107193Y4892779D03*
G01*
X7107191Y6892775D03*
G01*
X7107191Y5892777D03*
G01*
X7107191Y4892779D03*
G01*
X7107191Y892787D03*
G01*
X8107189Y6892775D03*
G01*
X8107189Y5892777D03*
G01*
X8107189Y4892779D03*
G01*
X9107187Y4892779D03*
M02*
