G04 Layer: TopSilkscreenLayer*
G04 EasyEDA v6.5.40, 2024-04-28 19:39:01*
G04 a67cddfb3fce44daa9051d46cbbcc19f,10*
G04 Gerber Generator version 0.2*
G04 Scale: 100 percent, Rotated: No, Reflected: No *
G04 Dimensions in millimeters *
G04 leading zeros omitted , absolute positions ,4 integer and 5 decimal *
%FSLAX45Y45*%
%MOMM*%

%ADD10C,0.2032*%
%ADD11C,0.1524*%
%ADD12C,0.2540*%
%ADD13C,0.2030*%
%ADD14C,0.3000*%
%ADD15C,0.0150*%

%LPD*%
D10*
X629292Y2177348D02*
G01*
X610819Y2195822D01*
X583110Y2205057D01*
X546166Y2205057D01*
X518457Y2195822D01*
X499983Y2177348D01*
X499983Y2158875D01*
X509219Y2140404D01*
X518457Y2131166D01*
X536928Y2121931D01*
X592348Y2103457D01*
X610819Y2094222D01*
X620057Y2084986D01*
X629292Y2066513D01*
X629292Y2038804D01*
X610819Y2020331D01*
X583110Y2011095D01*
X546166Y2011095D01*
X518457Y2020331D01*
X499983Y2038804D01*
X690252Y2205057D02*
G01*
X690252Y2011095D01*
X690252Y2205057D02*
G01*
X819561Y2011095D01*
X819561Y2205057D02*
G01*
X819561Y2011095D01*
X889759Y2121931D02*
G01*
X880521Y2112695D01*
X889759Y2103457D01*
X898994Y2112695D01*
X889759Y2121931D01*
X889759Y2057275D02*
G01*
X880521Y2048040D01*
X889759Y2038804D01*
X898994Y2048040D01*
X889759Y2057275D01*
X499983Y2705056D02*
G01*
X499983Y2511094D01*
X499983Y2705056D02*
G01*
X564639Y2705056D01*
X592348Y2695821D01*
X610819Y2677347D01*
X620057Y2658874D01*
X629292Y2631165D01*
X629292Y2584985D01*
X620057Y2557274D01*
X610819Y2538803D01*
X592348Y2520330D01*
X564639Y2511094D01*
X499983Y2511094D01*
X801088Y2640403D02*
G01*
X801088Y2511094D01*
X801088Y2612694D02*
G01*
X782617Y2631165D01*
X764143Y2640403D01*
X736434Y2640403D01*
X717961Y2631165D01*
X699488Y2612694D01*
X690252Y2584985D01*
X690252Y2566512D01*
X699488Y2538803D01*
X717961Y2520330D01*
X736434Y2511094D01*
X764143Y2511094D01*
X782617Y2520330D01*
X801088Y2538803D01*
X889759Y2705056D02*
G01*
X889759Y2548039D01*
X898994Y2520330D01*
X917468Y2511094D01*
X935939Y2511094D01*
X862048Y2640403D02*
G01*
X926703Y2640403D01*
X996899Y2584985D02*
G01*
X1107737Y2584985D01*
X1107737Y2603456D01*
X1098499Y2621930D01*
X1089263Y2631165D01*
X1070790Y2640403D01*
X1043081Y2640403D01*
X1024608Y2631165D01*
X1006137Y2612694D01*
X996899Y2584985D01*
X996899Y2566512D01*
X1006137Y2538803D01*
X1024608Y2520330D01*
X1043081Y2511094D01*
X1070790Y2511094D01*
X1089263Y2520330D01*
X1107737Y2538803D01*
X1177932Y2621930D02*
G01*
X1168697Y2612694D01*
X1177932Y2603456D01*
X1187168Y2612694D01*
X1177932Y2621930D01*
X1177932Y2557274D02*
G01*
X1168697Y2548039D01*
X1177932Y2538803D01*
X1187168Y2548039D01*
X1177932Y2557274D01*
X499973Y3205053D02*
G01*
X573864Y3011091D01*
X647755Y3205053D02*
G01*
X573864Y3011091D01*
X708715Y3084982D02*
G01*
X819551Y3084982D01*
X819551Y3103453D01*
X810315Y3121926D01*
X801077Y3131162D01*
X782607Y3140400D01*
X754898Y3140400D01*
X736424Y3131162D01*
X717951Y3112691D01*
X708715Y3084982D01*
X708715Y3066508D01*
X717951Y3038800D01*
X736424Y3020326D01*
X754898Y3011091D01*
X782607Y3011091D01*
X801077Y3020326D01*
X819551Y3038800D01*
X880511Y3140400D02*
G01*
X880511Y3011091D01*
X880511Y3084982D02*
G01*
X889749Y3112691D01*
X908220Y3131162D01*
X926693Y3140400D01*
X954402Y3140400D01*
X1116962Y3112691D02*
G01*
X1107727Y3131162D01*
X1080018Y3140400D01*
X1052309Y3140400D01*
X1024597Y3131162D01*
X1015362Y3112691D01*
X1024597Y3094217D01*
X1043071Y3084982D01*
X1089253Y3075744D01*
X1107727Y3066508D01*
X1116962Y3048035D01*
X1116962Y3038800D01*
X1107727Y3020326D01*
X1080018Y3011091D01*
X1052309Y3011091D01*
X1024597Y3020326D01*
X1015362Y3038800D01*
X1177922Y3205053D02*
G01*
X1187157Y3195817D01*
X1196395Y3205053D01*
X1187157Y3214291D01*
X1177922Y3205053D01*
X1187157Y3140400D02*
G01*
X1187157Y3011091D01*
X1303538Y3140400D02*
G01*
X1285064Y3131162D01*
X1266591Y3112691D01*
X1257355Y3084982D01*
X1257355Y3066508D01*
X1266591Y3038800D01*
X1285064Y3020326D01*
X1303538Y3011091D01*
X1331247Y3011091D01*
X1349717Y3020326D01*
X1368191Y3038800D01*
X1377429Y3066508D01*
X1377429Y3084982D01*
X1368191Y3112691D01*
X1349717Y3131162D01*
X1331247Y3140400D01*
X1303538Y3140400D01*
X1438389Y3140400D02*
G01*
X1438389Y3011091D01*
X1438389Y3103453D02*
G01*
X1466098Y3131162D01*
X1484569Y3140400D01*
X1512277Y3140400D01*
X1530751Y3131162D01*
X1539989Y3103453D01*
X1539989Y3011091D01*
X1743189Y3168108D02*
G01*
X1761660Y3177344D01*
X1789369Y3205053D01*
X1789369Y3011091D01*
X1859567Y3057270D02*
G01*
X1850329Y3048035D01*
X1859567Y3038800D01*
X1868802Y3048035D01*
X1859567Y3057270D01*
X1985180Y3205053D02*
G01*
X1957471Y3195817D01*
X1938997Y3168108D01*
X1929762Y3121926D01*
X1929762Y3094217D01*
X1938997Y3048035D01*
X1957471Y3020326D01*
X1985180Y3011091D01*
X2003653Y3011091D01*
X2031362Y3020326D01*
X2049835Y3048035D01*
X2059071Y3094217D01*
X2059071Y3121926D01*
X2049835Y3168108D01*
X2031362Y3195817D01*
X2003653Y3205053D01*
X1985180Y3205053D01*
X500049Y3704996D02*
G01*
X500049Y3511194D01*
X500049Y3704996D02*
G01*
X583107Y3704996D01*
X610793Y3695852D01*
X619937Y3686454D01*
X629335Y3668166D01*
X629335Y3649624D01*
X619937Y3631082D01*
X610793Y3621938D01*
X583107Y3612794D01*
X500049Y3612794D01*
X564565Y3612794D02*
G01*
X629335Y3511194D01*
X690295Y3704996D02*
G01*
X690295Y3511194D01*
X690295Y3704996D02*
G01*
X773353Y3704996D01*
X801039Y3695852D01*
X810437Y3686454D01*
X819581Y3668166D01*
X819581Y3640480D01*
X810437Y3621938D01*
X801039Y3612794D01*
X773353Y3603396D01*
X690295Y3603396D01*
X880541Y3704996D02*
G01*
X889685Y3695852D01*
X899083Y3704996D01*
X889685Y3714394D01*
X880541Y3704996D01*
X889685Y3640480D02*
G01*
X889685Y3511194D01*
X1102283Y3704996D02*
G01*
X1102283Y3511194D01*
X1102283Y3704996D02*
G01*
X1185341Y3704996D01*
X1213027Y3695852D01*
X1222171Y3686454D01*
X1231569Y3668166D01*
X1231569Y3640480D01*
X1222171Y3621938D01*
X1213027Y3612794D01*
X1185341Y3603396D01*
X1102283Y3603396D01*
X1292529Y3704996D02*
G01*
X1301673Y3695852D01*
X1310817Y3704996D01*
X1301673Y3714394D01*
X1292529Y3704996D01*
X1301673Y3640480D02*
G01*
X1301673Y3511194D01*
X1482775Y3612794D02*
G01*
X1464233Y3631082D01*
X1445691Y3640480D01*
X1418005Y3640480D01*
X1399717Y3631082D01*
X1381175Y3612794D01*
X1371777Y3584854D01*
X1371777Y3566566D01*
X1381175Y3538880D01*
X1399717Y3520338D01*
X1418005Y3511194D01*
X1445691Y3511194D01*
X1464233Y3520338D01*
X1482775Y3538880D01*
X1589963Y3640480D02*
G01*
X1571421Y3631082D01*
X1552879Y3612794D01*
X1543735Y3584854D01*
X1543735Y3566566D01*
X1552879Y3538880D01*
X1571421Y3520338D01*
X1589963Y3511194D01*
X1617649Y3511194D01*
X1635937Y3520338D01*
X1654479Y3538880D01*
X1663877Y3566566D01*
X1663877Y3584854D01*
X1654479Y3612794D01*
X1635937Y3631082D01*
X1617649Y3640480D01*
X1589963Y3640480D01*
X1867077Y3704996D02*
G01*
X1913051Y3511194D01*
X1959279Y3704996D02*
G01*
X1913051Y3511194D01*
X1959279Y3704996D02*
G01*
X2005507Y3511194D01*
X2051735Y3704996D02*
G01*
X2005507Y3511194D01*
X2254935Y3704996D02*
G01*
X2254935Y3511194D01*
X2254935Y3704996D02*
G01*
X2337993Y3704996D01*
X2365679Y3695852D01*
X2375077Y3686454D01*
X2384221Y3668166D01*
X2384221Y3649624D01*
X2375077Y3631082D01*
X2365679Y3621938D01*
X2337993Y3612794D01*
X2254935Y3612794D02*
G01*
X2337993Y3612794D01*
X2365679Y3603396D01*
X2375077Y3594252D01*
X2384221Y3575710D01*
X2384221Y3548024D01*
X2375077Y3529482D01*
X2365679Y3520338D01*
X2337993Y3511194D01*
X2254935Y3511194D01*
X2445181Y3640480D02*
G01*
X2445181Y3511194D01*
X2445181Y3584854D02*
G01*
X2454325Y3612794D01*
X2472867Y3631082D01*
X2491409Y3640480D01*
X2519095Y3640480D01*
X2580055Y3584854D02*
G01*
X2690799Y3584854D01*
X2690799Y3603396D01*
X2681655Y3621938D01*
X2672257Y3631082D01*
X2653969Y3640480D01*
X2626283Y3640480D01*
X2607741Y3631082D01*
X2589199Y3612794D01*
X2580055Y3584854D01*
X2580055Y3566566D01*
X2589199Y3538880D01*
X2607741Y3520338D01*
X2626283Y3511194D01*
X2653969Y3511194D01*
X2672257Y3520338D01*
X2690799Y3538880D01*
X2862757Y3640480D02*
G01*
X2862757Y3511194D01*
X2862757Y3612794D02*
G01*
X2844215Y3631082D01*
X2825673Y3640480D01*
X2797987Y3640480D01*
X2779445Y3631082D01*
X2761157Y3612794D01*
X2751759Y3584854D01*
X2751759Y3566566D01*
X2761157Y3538880D01*
X2779445Y3520338D01*
X2797987Y3511194D01*
X2825673Y3511194D01*
X2844215Y3520338D01*
X2862757Y3538880D01*
X2923717Y3704996D02*
G01*
X2923717Y3511194D01*
X3015919Y3640480D02*
G01*
X2923717Y3548024D01*
X2960547Y3584854D02*
G01*
X3025317Y3511194D01*
X3132251Y3640480D02*
G01*
X3113963Y3631082D01*
X3095421Y3612794D01*
X3086277Y3584854D01*
X3086277Y3566566D01*
X3095421Y3538880D01*
X3113963Y3520338D01*
X3132251Y3511194D01*
X3159937Y3511194D01*
X3178479Y3520338D01*
X3197021Y3538880D01*
X3206165Y3566566D01*
X3206165Y3584854D01*
X3197021Y3612794D01*
X3178479Y3631082D01*
X3159937Y3640480D01*
X3132251Y3640480D01*
X3267125Y3640480D02*
G01*
X3267125Y3548024D01*
X3276523Y3520338D01*
X3294811Y3511194D01*
X3322497Y3511194D01*
X3341039Y3520338D01*
X3368725Y3548024D01*
X3368725Y3640480D02*
G01*
X3368725Y3511194D01*
X3457371Y3704996D02*
G01*
X3457371Y3548024D01*
X3466769Y3520338D01*
X3485057Y3511194D01*
X3503599Y3511194D01*
X3429685Y3640480D02*
G01*
X3494455Y3640480D01*
X5516930Y6472707D02*
G01*
X5516930Y6638823D01*
X5599988Y6555765D02*
G01*
X5433618Y6555765D01*
X5261914Y6445021D02*
G01*
X5354370Y6445021D01*
X5363514Y6528079D01*
X5354370Y6518935D01*
X5326684Y6509537D01*
X5298998Y6509537D01*
X5271058Y6518935D01*
X5252770Y6537223D01*
X5243372Y6564909D01*
X5243372Y6583451D01*
X5252770Y6611137D01*
X5271058Y6629679D01*
X5298998Y6638823D01*
X5326684Y6638823D01*
X5354370Y6629679D01*
X5363514Y6620535D01*
X5372658Y6601993D01*
X5182412Y6445021D02*
G01*
X5108498Y6638823D01*
X5034838Y6445021D02*
G01*
X5108498Y6638823D01*
X7859115Y6762762D02*
G01*
X7859115Y6844550D01*
X7900009Y6803656D02*
G01*
X7818221Y6803656D01*
X7733639Y6749046D02*
G01*
X7779105Y6749046D01*
X7783677Y6789940D01*
X7779105Y6785368D01*
X7765389Y6780796D01*
X7751927Y6780796D01*
X7738211Y6785368D01*
X7729067Y6794512D01*
X7724495Y6808228D01*
X7724495Y6817372D01*
X7729067Y6830834D01*
X7738211Y6839978D01*
X7751927Y6844550D01*
X7765389Y6844550D01*
X7779105Y6839978D01*
X7783677Y6835406D01*
X7788249Y6826262D01*
X7694523Y6749046D02*
G01*
X7658201Y6844550D01*
X7621879Y6749046D02*
G01*
X7658201Y6844550D01*
X7331798Y6771868D02*
G01*
X7336370Y6762724D01*
X7345514Y6753580D01*
X7354658Y6749008D01*
X7372692Y6749008D01*
X7381836Y6753580D01*
X7390980Y6762724D01*
X7395552Y6771868D01*
X7399870Y6785330D01*
X7399870Y6808190D01*
X7395552Y6821906D01*
X7390980Y6830796D01*
X7381836Y6839940D01*
X7372692Y6844512D01*
X7354658Y6844512D01*
X7345514Y6839940D01*
X7336370Y6830796D01*
X7331798Y6821906D01*
X7331798Y6808190D01*
X7354658Y6808190D02*
G01*
X7331798Y6808190D01*
X7301826Y6749008D02*
G01*
X7301826Y6844512D01*
X7301826Y6749008D02*
G01*
X7238072Y6844512D01*
X7238072Y6749008D02*
G01*
X7238072Y6844512D01*
X7208100Y6749008D02*
G01*
X7208100Y6844512D01*
X7208100Y6749008D02*
G01*
X7176350Y6749008D01*
X7162634Y6753580D01*
X7153744Y6762724D01*
X7149172Y6771868D01*
X7144600Y6785330D01*
X7144600Y6808190D01*
X7149172Y6821906D01*
X7153744Y6830796D01*
X7162634Y6839940D01*
X7176350Y6844512D01*
X7208100Y6844512D01*
X6199149Y175000D02*
G01*
X6294653Y175000D01*
X6199149Y204972D02*
G01*
X6294653Y204972D01*
X6199149Y204972D02*
G01*
X6294653Y268726D01*
X6199149Y268726D02*
G01*
X6294653Y268726D01*
X6199149Y330448D02*
G01*
X6294653Y330448D01*
X6199149Y298698D02*
G01*
X6199149Y362198D01*
X6949160Y84066D02*
G01*
X6949160Y134104D01*
X6985482Y106926D01*
X6985482Y120388D01*
X6990054Y129532D01*
X6994626Y134104D01*
X7008088Y138676D01*
X7017232Y138676D01*
X7030948Y134104D01*
X7040092Y124960D01*
X7044410Y111244D01*
X7044410Y97782D01*
X7040092Y84066D01*
X7035520Y79494D01*
X7026376Y74922D01*
X7021804Y173220D02*
G01*
X7026376Y168648D01*
X7030948Y173220D01*
X7026376Y177792D01*
X7021804Y173220D01*
X6949160Y216908D02*
G01*
X6949160Y266692D01*
X6985482Y239514D01*
X6985482Y253230D01*
X6990054Y262374D01*
X6994626Y266692D01*
X7008088Y271264D01*
X7017232Y271264D01*
X7030948Y266692D01*
X7040092Y257802D01*
X7044410Y244086D01*
X7044410Y230370D01*
X7040092Y216908D01*
X7035520Y212336D01*
X7026376Y207764D01*
X6949160Y301236D02*
G01*
X7044410Y337812D01*
X6949160Y374134D02*
G01*
X7044410Y337812D01*
X6462623Y188549D02*
G01*
X6453733Y179659D01*
X6449161Y165943D01*
X6449161Y147655D01*
X6453733Y134193D01*
X6462623Y125049D01*
X6471767Y125049D01*
X6480911Y129621D01*
X6485483Y134193D01*
X6490055Y143083D01*
X6499199Y170515D01*
X6503517Y179659D01*
X6508089Y183977D01*
X6517233Y188549D01*
X6530949Y188549D01*
X6540093Y179659D01*
X6544411Y165943D01*
X6544411Y147655D01*
X6540093Y134193D01*
X6530949Y125049D01*
X6471767Y286847D02*
G01*
X6462623Y282275D01*
X6453733Y273131D01*
X6449161Y263987D01*
X6449161Y245953D01*
X6453733Y236809D01*
X6462623Y227665D01*
X6471767Y223093D01*
X6485483Y218521D01*
X6508089Y218521D01*
X6521805Y223093D01*
X6530949Y227665D01*
X6540093Y236809D01*
X6544411Y245953D01*
X6544411Y263987D01*
X6540093Y273131D01*
X6530949Y282275D01*
X6521805Y286847D01*
X6449161Y316819D02*
G01*
X6544411Y316819D01*
X6544411Y316819D02*
G01*
X6544411Y371429D01*
X6712623Y163741D02*
G01*
X6703733Y154597D01*
X6699161Y140881D01*
X6699161Y122847D01*
X6703733Y109131D01*
X6712623Y99987D01*
X6721767Y99987D01*
X6730911Y104559D01*
X6735483Y109131D01*
X6740055Y118275D01*
X6749199Y145453D01*
X6753517Y154597D01*
X6758089Y159169D01*
X6767233Y163741D01*
X6780949Y163741D01*
X6790093Y154597D01*
X6794411Y140881D01*
X6794411Y122847D01*
X6790093Y109131D01*
X6780949Y99987D01*
X6699161Y193713D02*
G01*
X6794411Y193713D01*
X6699161Y193713D02*
G01*
X6699161Y225463D01*
X6703733Y239179D01*
X6712623Y248069D01*
X6721767Y252641D01*
X6735483Y257213D01*
X6758089Y257213D01*
X6771805Y252641D01*
X6780949Y248069D01*
X6790093Y239179D01*
X6794411Y225463D01*
X6794411Y193713D01*
X6699161Y323761D02*
G01*
X6794411Y287185D01*
X6699161Y323761D02*
G01*
X6794411Y360083D01*
X6762661Y300901D02*
G01*
X6762661Y346367D01*
X5971768Y168249D02*
G01*
X5962624Y163677D01*
X5953734Y154533D01*
X5949162Y145389D01*
X5949162Y127355D01*
X5953734Y118211D01*
X5962624Y109067D01*
X5971768Y104495D01*
X5985484Y99923D01*
X6008090Y99923D01*
X6021806Y104495D01*
X6030950Y109067D01*
X6040094Y118211D01*
X6044412Y127355D01*
X6044412Y145389D01*
X6040094Y154533D01*
X6030950Y163677D01*
X6021806Y168249D01*
X6008090Y168249D01*
X6008090Y145389D02*
G01*
X6008090Y168249D01*
X5949162Y198221D02*
G01*
X6044412Y198221D01*
X5949162Y198221D02*
G01*
X6044412Y261721D01*
X5949162Y261721D02*
G01*
X6044412Y261721D01*
X5949162Y291693D02*
G01*
X6044412Y291693D01*
X5949162Y291693D02*
G01*
X5949162Y323697D01*
X5953734Y337159D01*
X5962624Y346303D01*
X5971768Y350875D01*
X5985484Y355447D01*
X6008090Y355447D01*
X6021806Y350875D01*
X6030950Y346303D01*
X6040094Y337159D01*
X6044412Y323697D01*
X6044412Y291693D01*
X7218172Y6228105D02*
G01*
X7213600Y6237249D01*
X7204456Y6246393D01*
X7195311Y6250965D01*
X7177277Y6250965D01*
X7168134Y6246393D01*
X7158990Y6237249D01*
X7154418Y6228105D01*
X7150100Y6214643D01*
X7150100Y6191783D01*
X7154418Y6178067D01*
X7158990Y6169177D01*
X7168134Y6160033D01*
X7177277Y6155461D01*
X7195311Y6155461D01*
X7204456Y6160033D01*
X7213600Y6169177D01*
X7218172Y6178067D01*
X7218172Y6191783D01*
X7195311Y6191783D02*
G01*
X7218172Y6191783D01*
X7248143Y6250965D02*
G01*
X7248143Y6155461D01*
X7248143Y6250965D02*
G01*
X7311897Y6155461D01*
X7311897Y6250965D02*
G01*
X7311897Y6155461D01*
X7341870Y6250965D02*
G01*
X7341870Y6155461D01*
X7341870Y6250965D02*
G01*
X7373620Y6250965D01*
X7387336Y6246393D01*
X7396225Y6237249D01*
X7400797Y6228105D01*
X7405370Y6214643D01*
X7405370Y6191783D01*
X7400797Y6178067D01*
X7396225Y6169177D01*
X7387336Y6160033D01*
X7373620Y6155461D01*
X7341870Y6155461D01*
X7640853Y6237211D02*
G01*
X7640853Y6155423D01*
X7599959Y6196317D02*
G01*
X7681747Y6196317D01*
X7766329Y6250927D02*
G01*
X7720863Y6250927D01*
X7716291Y6210033D01*
X7720863Y6214605D01*
X7734579Y6219177D01*
X7748041Y6219177D01*
X7761757Y6214605D01*
X7770901Y6205461D01*
X7775473Y6191745D01*
X7775473Y6182601D01*
X7770901Y6169139D01*
X7761757Y6159995D01*
X7748041Y6155423D01*
X7734579Y6155423D01*
X7720863Y6159995D01*
X7716291Y6164567D01*
X7711719Y6173711D01*
X7805445Y6250927D02*
G01*
X7841767Y6155423D01*
X7878089Y6250927D02*
G01*
X7841767Y6155423D01*
X4121772Y168249D02*
G01*
X4112628Y163677D01*
X4103738Y154533D01*
X4099166Y145389D01*
X4099166Y127355D01*
X4103738Y118211D01*
X4112628Y109067D01*
X4121772Y104495D01*
X4135488Y99923D01*
X4158094Y99923D01*
X4171810Y104495D01*
X4180954Y109067D01*
X4190098Y118211D01*
X4194416Y127355D01*
X4194416Y145389D01*
X4190098Y154533D01*
X4180954Y163677D01*
X4171810Y168249D01*
X4158094Y168249D01*
X4158094Y145389D02*
G01*
X4158094Y168249D01*
X4099166Y198221D02*
G01*
X4194416Y198221D01*
X4099166Y198221D02*
G01*
X4194416Y261721D01*
X4099166Y261721D02*
G01*
X4194416Y261721D01*
X4099166Y291693D02*
G01*
X4194416Y291693D01*
X4099166Y291693D02*
G01*
X4099166Y323697D01*
X4103738Y337159D01*
X4112628Y346303D01*
X4121772Y350875D01*
X4135488Y355447D01*
X4158094Y355447D01*
X4171810Y350875D01*
X4180954Y346303D01*
X4190098Y337159D01*
X4194416Y323697D01*
X4194416Y291693D01*
X4849164Y109067D02*
G01*
X4849164Y159105D01*
X4885486Y131927D01*
X4885486Y145389D01*
X4890058Y154533D01*
X4894630Y159105D01*
X4908092Y163677D01*
X4917236Y163677D01*
X4930952Y159105D01*
X4940096Y149961D01*
X4944414Y136245D01*
X4944414Y122783D01*
X4940096Y109067D01*
X4935524Y104495D01*
X4926380Y99923D01*
X4921808Y198221D02*
G01*
X4926380Y193649D01*
X4930952Y198221D01*
X4926380Y202793D01*
X4921808Y198221D01*
X4849164Y241909D02*
G01*
X4849164Y291693D01*
X4885486Y264515D01*
X4885486Y278231D01*
X4890058Y287375D01*
X4894630Y291693D01*
X4908092Y296265D01*
X4917236Y296265D01*
X4930952Y291693D01*
X4940096Y282803D01*
X4944414Y269087D01*
X4944414Y255371D01*
X4940096Y241909D01*
X4935524Y237337D01*
X4926380Y232765D01*
X4849164Y326237D02*
G01*
X4944414Y362813D01*
X4849164Y399135D02*
G01*
X4944414Y362813D01*
X4349076Y131838D02*
G01*
X4444580Y131838D01*
X4349076Y100088D02*
G01*
X4349076Y163588D01*
X4349076Y193560D02*
G01*
X4444580Y257314D01*
X4349076Y257314D02*
G01*
X4444580Y193560D01*
X4599076Y100025D02*
G01*
X4694580Y100025D01*
X4599076Y100025D02*
G01*
X4599076Y140919D01*
X4603648Y154635D01*
X4608220Y159207D01*
X4617364Y163525D01*
X4626254Y163525D01*
X4635398Y159207D01*
X4639970Y154635D01*
X4644542Y140919D01*
X4644542Y100025D01*
X4644542Y131775D02*
G01*
X4694580Y163525D01*
X4599076Y193751D02*
G01*
X4694580Y257251D01*
X4599076Y257251D02*
G01*
X4694580Y193751D01*
X4277372Y974496D02*
G01*
X4259084Y992784D01*
X4231906Y1001928D01*
X4195330Y1001928D01*
X4168152Y992784D01*
X4150118Y974496D01*
X4150118Y956462D01*
X4159008Y938174D01*
X4168152Y929030D01*
X4186440Y919886D01*
X4240796Y901852D01*
X4259084Y892708D01*
X4268228Y883564D01*
X4277372Y865530D01*
X4277372Y838098D01*
X4259084Y820064D01*
X4231906Y810920D01*
X4195330Y810920D01*
X4168152Y820064D01*
X4150118Y838098D01*
X4337316Y883564D02*
G01*
X4446282Y883564D01*
X4446282Y901852D01*
X4437138Y919886D01*
X4428248Y929030D01*
X4409960Y938174D01*
X4382782Y938174D01*
X4364494Y929030D01*
X4346460Y910996D01*
X4337316Y883564D01*
X4337316Y865530D01*
X4346460Y838098D01*
X4364494Y820064D01*
X4382782Y810920D01*
X4409960Y810920D01*
X4428248Y820064D01*
X4446282Y838098D01*
X4506480Y938174D02*
G01*
X4506480Y810920D01*
X4506480Y883564D02*
G01*
X4515370Y910996D01*
X4533658Y929030D01*
X4551692Y938174D01*
X4579124Y938174D01*
X4639068Y1001928D02*
G01*
X4648212Y992784D01*
X4657356Y1001928D01*
X4648212Y1010818D01*
X4639068Y1001928D01*
X4648212Y938174D02*
G01*
X4648212Y810920D01*
X4826266Y938174D02*
G01*
X4826266Y810920D01*
X4826266Y910996D02*
G01*
X4808232Y929030D01*
X4789944Y938174D01*
X4762766Y938174D01*
X4744478Y929030D01*
X4726444Y910996D01*
X4717300Y883564D01*
X4717300Y865530D01*
X4726444Y838098D01*
X4744478Y820064D01*
X4762766Y810920D01*
X4789944Y810920D01*
X4808232Y820064D01*
X4826266Y838098D01*
X4886464Y1001928D02*
G01*
X4886464Y810920D01*
X6150102Y1101852D02*
G01*
X6150102Y910844D01*
X6219190Y1056386D02*
G01*
X6219190Y1065529D01*
X6228079Y1083563D01*
X6237224Y1092707D01*
X6255511Y1101852D01*
X6291834Y1101852D01*
X6309868Y1092707D01*
X6319011Y1083563D01*
X6328156Y1065529D01*
X6328156Y1047242D01*
X6319011Y1029207D01*
X6300977Y1001776D01*
X6210045Y910844D01*
X6337300Y910844D01*
X6533641Y1056386D02*
G01*
X6524497Y1074420D01*
X6506463Y1092707D01*
X6488175Y1101852D01*
X6451854Y1101852D01*
X6433565Y1092707D01*
X6415531Y1074420D01*
X6406388Y1056386D01*
X6397243Y1029207D01*
X6397243Y983742D01*
X6406388Y956310D01*
X6415531Y938276D01*
X6433565Y919987D01*
X6451854Y910844D01*
X6488175Y910844D01*
X6506463Y919987D01*
X6524497Y938276D01*
X6533641Y956310D01*
X178117Y4831803D02*
G01*
X187261Y4836375D01*
X196405Y4845519D01*
X200977Y4854663D01*
X200977Y4872697D01*
X196405Y4881841D01*
X187261Y4890985D01*
X178117Y4895557D01*
X164655Y4899875D01*
X141795Y4899875D01*
X128079Y4895557D01*
X119189Y4890985D01*
X110045Y4881841D01*
X105473Y4872697D01*
X105473Y4854663D01*
X110045Y4845519D01*
X119189Y4836375D01*
X128079Y4831803D01*
X141795Y4831803D01*
X141795Y4854663D02*
G01*
X141795Y4831803D01*
X200977Y4801831D02*
G01*
X105473Y4801831D01*
X200977Y4801831D02*
G01*
X105473Y4738077D01*
X200977Y4738077D02*
G01*
X105473Y4738077D01*
X200977Y4708105D02*
G01*
X105473Y4708105D01*
X200977Y4708105D02*
G01*
X200977Y4676355D01*
X196405Y4662639D01*
X187261Y4653749D01*
X178117Y4649177D01*
X164655Y4644605D01*
X141795Y4644605D01*
X128079Y4649177D01*
X119189Y4653749D01*
X110045Y4662639D01*
X105473Y4676355D01*
X105473Y4708105D01*
X187223Y5359120D02*
G01*
X105435Y5359120D01*
X146329Y5400014D02*
G01*
X146329Y5318226D01*
X200939Y5233644D02*
G01*
X200939Y5279110D01*
X160045Y5283682D01*
X164617Y5279110D01*
X169189Y5265394D01*
X169189Y5251932D01*
X164617Y5238216D01*
X155473Y5229072D01*
X141757Y5224500D01*
X132613Y5224500D01*
X119151Y5229072D01*
X110007Y5238216D01*
X105435Y5251932D01*
X105435Y5265394D01*
X110007Y5279110D01*
X114579Y5283682D01*
X123723Y5288254D01*
X200939Y5194528D02*
G01*
X105435Y5158206D01*
X200939Y5121884D02*
G01*
X105435Y5158206D01*
D11*
X8599233Y5094389D02*
G01*
X8599233Y4985423D01*
X8599233Y5094389D02*
G01*
X8635555Y5094389D01*
X8651303Y5089309D01*
X8661463Y5078895D01*
X8666797Y5068481D01*
X8671877Y5052733D01*
X8671877Y5026825D01*
X8666797Y5011331D01*
X8661463Y5000917D01*
X8651303Y4990503D01*
X8635555Y4985423D01*
X8599233Y4985423D01*
X8711501Y5068481D02*
G01*
X8711501Y5073561D01*
X8716581Y5083975D01*
X8721915Y5089309D01*
X8732329Y5094389D01*
X8752903Y5094389D01*
X8763317Y5089309D01*
X8768651Y5083975D01*
X8773731Y5073561D01*
X8773731Y5063147D01*
X8768651Y5052733D01*
X8758237Y5037239D01*
X8706167Y4985423D01*
X8779065Y4985423D01*
X451865Y4615434D02*
G01*
X451865Y4532121D01*
X446786Y4516628D01*
X441452Y4511294D01*
X431292Y4506213D01*
X420878Y4506213D01*
X410463Y4511294D01*
X405129Y4516628D01*
X400050Y4532121D01*
X400050Y4542536D01*
X491489Y4589271D02*
G01*
X491489Y4594605D01*
X496570Y4605020D01*
X501904Y4610100D01*
X512318Y4615434D01*
X532892Y4615434D01*
X543305Y4610100D01*
X548639Y4605020D01*
X553720Y4594605D01*
X553720Y4584192D01*
X548639Y4573778D01*
X538226Y4558284D01*
X486155Y4506213D01*
X559054Y4506213D01*
X3801872Y665226D02*
G01*
X3801872Y582168D01*
X3796791Y566673D01*
X3791458Y561339D01*
X3781043Y556260D01*
X3770884Y556260D01*
X3760470Y561339D01*
X3755136Y566673D01*
X3750056Y582168D01*
X3750056Y592581D01*
X3846575Y665226D02*
G01*
X3903725Y665226D01*
X3872484Y623823D01*
X3888231Y623823D01*
X3898645Y618489D01*
X3903725Y613410D01*
X3909059Y597915D01*
X3909059Y587502D01*
X3903725Y571754D01*
X3893311Y561339D01*
X3877818Y556260D01*
X3862324Y556260D01*
X3846575Y561339D01*
X3841495Y566673D01*
X3836161Y577087D01*
X5702045Y665226D02*
G01*
X5702045Y582168D01*
X5696711Y566673D01*
X5691631Y561339D01*
X5681218Y556260D01*
X5670804Y556260D01*
X5660390Y561339D01*
X5655309Y566673D01*
X5649975Y582168D01*
X5649975Y592581D01*
X5788152Y665226D02*
G01*
X5736336Y592581D01*
X5814059Y592581D01*
X5788152Y665226D02*
G01*
X5788152Y556260D01*
X3913809Y6149657D02*
G01*
X3908729Y6160071D01*
X3898315Y6170485D01*
X3887901Y6175819D01*
X3872153Y6180899D01*
X3846245Y6180899D01*
X3830751Y6175819D01*
X3820337Y6170485D01*
X3809923Y6160071D01*
X3804843Y6149657D01*
X3804843Y6128829D01*
X3809923Y6118669D01*
X3820337Y6108255D01*
X3830751Y6102921D01*
X3846245Y6097841D01*
X3872153Y6097841D01*
X3887901Y6102921D01*
X3898315Y6108255D01*
X3908729Y6118669D01*
X3913809Y6128829D01*
X3913809Y6149657D01*
X3825417Y6134163D02*
G01*
X3794429Y6102921D01*
X3887901Y6058217D02*
G01*
X3892981Y6058217D01*
X3903395Y6053137D01*
X3908729Y6047803D01*
X3913809Y6037389D01*
X3913809Y6016815D01*
X3908729Y6006401D01*
X3903395Y6001067D01*
X3892981Y5995987D01*
X3882567Y5995987D01*
X3872153Y6001067D01*
X3856659Y6011481D01*
X3804843Y6063551D01*
X3804843Y5990653D01*
X3149244Y5594388D02*
G01*
X3149244Y5485422D01*
X3149244Y5594388D02*
G01*
X3195980Y5594388D01*
X3211474Y5589308D01*
X3216808Y5583974D01*
X3221888Y5573560D01*
X3221888Y5563146D01*
X3216808Y5552732D01*
X3211474Y5547652D01*
X3195980Y5542572D01*
X3149244Y5542572D01*
X3185566Y5542572D02*
G01*
X3221888Y5485422D01*
X3266592Y5594388D02*
G01*
X3323742Y5594388D01*
X3292754Y5552732D01*
X3308248Y5552732D01*
X3318662Y5547652D01*
X3323742Y5542572D01*
X3329076Y5526824D01*
X3329076Y5516410D01*
X3323742Y5500916D01*
X3313328Y5490502D01*
X3297834Y5485422D01*
X3282340Y5485422D01*
X3266592Y5490502D01*
X3261512Y5495582D01*
X3256178Y5505996D01*
X1920918Y5564555D02*
G01*
X1920918Y5486577D01*
X1925998Y5471083D01*
X1936412Y5460669D01*
X1952160Y5455589D01*
X1962574Y5455589D01*
X1978068Y5460669D01*
X1988482Y5471083D01*
X1993562Y5486577D01*
X1993562Y5564555D01*
X2033186Y5538647D02*
G01*
X2033186Y5543727D01*
X2038266Y5554141D01*
X2043600Y5559475D01*
X2054014Y5564555D01*
X2074588Y5564555D01*
X2085002Y5559475D01*
X2090336Y5554141D01*
X2095416Y5543727D01*
X2095416Y5533313D01*
X2090336Y5522899D01*
X2079922Y5507405D01*
X2027852Y5455589D01*
X2100750Y5455589D01*
X8127961Y6139395D02*
G01*
X8122627Y6149809D01*
X8112213Y6160223D01*
X8102053Y6165303D01*
X8081225Y6165303D01*
X8070811Y6160223D01*
X8060397Y6149809D01*
X8055063Y6139395D01*
X8049983Y6123647D01*
X8049983Y6097739D01*
X8055063Y6082245D01*
X8060397Y6071831D01*
X8070811Y6061417D01*
X8081225Y6056337D01*
X8102053Y6056337D01*
X8112213Y6061417D01*
X8122627Y6071831D01*
X8127961Y6082245D01*
X8162251Y6144475D02*
G01*
X8172665Y6149809D01*
X8188159Y6165303D01*
X8188159Y6056337D01*
X7095553Y6550850D02*
G01*
X7095553Y6478206D01*
X7090981Y6464490D01*
X7086409Y6459918D01*
X7077265Y6455346D01*
X7068121Y6455346D01*
X7058977Y6459918D01*
X7054405Y6464490D01*
X7050087Y6478206D01*
X7050087Y6487350D01*
X7125525Y6532816D02*
G01*
X7134415Y6537134D01*
X7148131Y6550850D01*
X7148131Y6455346D01*
X6150063Y6000877D02*
G01*
X6150063Y5905372D01*
X6150063Y6000877D02*
G01*
X6181813Y6000877D01*
X6195529Y5996304D01*
X6204419Y5987161D01*
X6208991Y5978270D01*
X6213563Y5964554D01*
X6213563Y5941695D01*
X6208991Y5928232D01*
X6204419Y5919088D01*
X6195529Y5909945D01*
X6181813Y5905372D01*
X6150063Y5905372D01*
X6311861Y5978270D02*
G01*
X6307289Y5987161D01*
X6298145Y5996304D01*
X6289001Y6000877D01*
X6270967Y6000877D01*
X6261823Y5996304D01*
X6252679Y5987161D01*
X6248107Y5978270D01*
X6243535Y5964554D01*
X6243535Y5941695D01*
X6248107Y5928232D01*
X6252679Y5919088D01*
X6261823Y5909945D01*
X6270967Y5905372D01*
X6289001Y5905372D01*
X6298145Y5909945D01*
X6307289Y5919088D01*
X6311861Y5928232D01*
X6341833Y5982843D02*
G01*
X6350977Y5987161D01*
X6364439Y6000877D01*
X6364439Y5905372D01*
G36*
X1299972Y2849981D02*
G01*
X1299972Y2449982D01*
X3499967Y2449982D01*
X3499967Y2849981D01*
G37*
G36*
X1299972Y2350008D02*
G01*
X1299972Y1950008D01*
X3499967Y1950008D01*
X3499967Y2350008D01*
G37*
G36*
X8206384Y6339890D02*
G01*
X8206486Y6326225D01*
X8207400Y6312560D01*
X8209127Y6298996D01*
X8211667Y6285585D01*
X8215020Y6272326D01*
X8216950Y6265773D01*
X8221472Y6252870D01*
X8226755Y6240272D01*
X8232749Y6228029D01*
X8239506Y6216142D01*
X8246973Y6204661D01*
X8255050Y6193637D01*
X8263839Y6183172D01*
X8273186Y6173216D01*
X8283143Y6163868D01*
X8293658Y6155080D01*
X8304631Y6146952D01*
X8316112Y6139535D01*
X8327999Y6132779D01*
X8340242Y6126784D01*
X8352891Y6121501D01*
X8359292Y6119114D01*
X8372297Y6114999D01*
X8378901Y6113221D01*
X8392261Y6110325D01*
X8405774Y6108192D01*
X8419388Y6106871D01*
X8433054Y6106363D01*
X8439861Y6106414D01*
G37*
D12*
X8859982Y4739990D02*
G01*
X8859982Y5259989D01*
X8859982Y5259989D02*
G01*
X9139981Y5259989D01*
X9139981Y4739990D02*
G01*
X9139981Y5259989D01*
X8859982Y4739990D02*
G01*
X9139981Y4739990D01*
X8859982Y4835916D02*
G01*
X9139981Y4835916D01*
D13*
X373126Y5253989D02*
G01*
X373126Y4936489D01*
D10*
X373126Y5253989D02*
G01*
X627126Y5253989D01*
X627126Y4745989D01*
X373126Y4745989D01*
X373126Y4936489D01*
X5008118Y726947D02*
G01*
X5008118Y472947D01*
X3992118Y472947D01*
X3992118Y726947D01*
X4182618Y726947D01*
D13*
X5008118Y726947D02*
G01*
X4182618Y726947D01*
D10*
X6055613Y726947D02*
G01*
X5865113Y726947D01*
X5865113Y472947D01*
X7135113Y472947D01*
X7135113Y726947D01*
D13*
X7135113Y726947D02*
G01*
X6055613Y726947D01*
D12*
X3354501Y6348031D02*
G01*
X3354501Y5963983D01*
X3165093Y5700407D02*
G01*
X2834893Y5700407D01*
X2834893Y5700407D02*
G01*
X2834893Y6599567D01*
X2834893Y6599567D02*
G01*
X3165093Y6599567D01*
X3165093Y6599567D02*
G01*
X3165093Y5700407D01*
X2177795Y6630184D02*
G01*
X2177795Y6528587D01*
X2228595Y6579387D02*
G01*
X2126995Y6579387D01*
X8633863Y6258636D02*
G01*
X8577295Y6315204D01*
X8633863Y6315204D02*
G01*
X8577295Y6258636D01*
D13*
X7753984Y6626987D02*
G01*
X7436484Y6626987D01*
D10*
X7753984Y6626987D02*
G01*
X7753984Y6372987D01*
X7245984Y6372987D01*
X7245984Y6626987D01*
X7436484Y6626987D01*
D12*
X5785012Y7579977D02*
G01*
X6685013Y7579979D01*
X6685013Y7579979D02*
G01*
X6685013Y6139942D01*
X5785015Y7209942D02*
G01*
X6685013Y7209942D01*
X5915012Y7201941D02*
G01*
X5915012Y6139942D01*
X6554990Y7201941D02*
G01*
X6554990Y6139942D01*
X6685013Y6139942D02*
G01*
X6477452Y6139942D01*
X5992550Y6139942D02*
G01*
X5785012Y6139942D01*
X5785012Y7579977D02*
G01*
X5785012Y6741447D01*
X5785012Y6238511D02*
G01*
X5785012Y6139942D01*
G75*
G01*
X3355518Y5962967D02*
G03*
X3355518Y6349048I145629J193041D01*
G75*
G01
X3322193Y6276988D02*
G03X3322193Y6276988I-12700J0D01*
G75*
G01
X2599944Y6299987D02*
G03X2599944Y6299987I-599948J0D01*
D14*
G75*
G01
X8700005Y6349990D02*
G03X8700005Y6349990I-250012J0D01*
M02*
