G04 Layer: BottomSolderMaskLayer*
G04 EasyEDA v6.5.40, 2024-04-28 19:39:01*
G04 a67cddfb3fce44daa9051d46cbbcc19f,10*
G04 Gerber Generator version 0.2*
G04 Scale: 100 percent, Rotated: No, Reflected: No *
G04 Dimensions in millimeters *
G04 leading zeros omitted , absolute positions ,4 integer and 5 decimal *
%FSLAX45Y45*%
%MOMM*%

%AMMACRO1*1,1,$1,$2,$3*1,1,$1,$4,$5*1,1,$1,0-$2,0-$3*1,1,$1,0-$4,0-$5*20,1,$1,$2,$3,$4,$5,0*20,1,$1,$4,$5,0-$2,0-$3,0*20,1,$1,0-$2,0-$3,0-$4,0-$5,0*20,1,$1,0-$4,0-$5,$2,$3,0*4,1,4,$2,$3,$4,$5,0-$2,0-$3,0-$4,0-$5,$2,$3,0*%
%AMMACRO2*4,1,4,-0.8508,-1.6507,-0.8508,1.6507,0.8508,1.6507,0.8508,-1.6507,-0.8508,-1.6507,0*%
%AMMACRO3*4,1,4,-0.8509,-1.6507,-0.8509,1.6507,0.8509,1.6507,0.8509,-1.6507,-0.8509,-1.6507,0*%
%ADD10MACRO1,0.1016X0.3X0.775X-0.3X0.775*%
%ADD11MACRO1,0.1016X0.6X0.9X-0.6X0.9*%
%ADD12MACRO1,0.1016X0.6X-0.5X0.6X0.5*%
%ADD13MACRO2*%
%ADD14MACRO3*%
%ADD15C,1.9016*%
%ADD16R,1.6764X1.8016*%
%ADD17C,1.8016*%
%ADD18MACRO1,0.1016X-0.7874X0.7874X0.7874X0.7874*%
%ADD19C,1.6764*%
%ADD20MACRO1,0.1016X0.75X0.535X0.75X-0.535*%
%ADD21O,1.6015970000000002X1.1716004000000002*%
%ADD22C,1.9812*%
%ADD23C,1.8796*%
%ADD24C,1.5032*%
%ADD25MACRO1,0.1016X-0.85X0.7874X0.85X0.7874*%
%ADD26O,4.701590799999999X2.101596*%
%ADD27O,2.101596X4.701590799999999*%
%ADD28O,0.0109X4.701590799999999*%

%LPD*%
D10*
G01*
X8049935Y543814D03*
G01*
X8149935Y543814D03*
G01*
X7849920Y543765D03*
G01*
X7949918Y543767D03*
D11*
G01*
X8279958Y156263D03*
G01*
X7719951Y156215D03*
D12*
G01*
X9599980Y5154980D03*
G01*
X9599980Y4844999D03*
G36*
X9862997Y3787419D02*
G01*
X9852736Y3788029D01*
X9842627Y3789857D01*
X9832822Y3792931D01*
X9823450Y3797147D01*
X9814661Y3802456D01*
X9806559Y3808806D01*
X9799294Y3816070D01*
X9792970Y3824147D01*
X9787661Y3832961D01*
X9783445Y3842308D01*
X9780371Y3852138D01*
X9778517Y3862247D01*
X9777907Y3872331D01*
X9777907Y4032656D01*
X9778517Y4042740D01*
X9780371Y4052849D01*
X9783445Y4062653D01*
X9787661Y4072026D01*
X9792970Y4080840D01*
X9799294Y4088917D01*
X9806559Y4096181D01*
X9814661Y4102531D01*
X9823450Y4107814D01*
X9832822Y4112031D01*
X9842627Y4115130D01*
X9852736Y4116959D01*
X9862997Y4117568D01*
X9873234Y4116959D01*
X9883368Y4115130D01*
X9893172Y4112031D01*
X9902545Y4107814D01*
X9911334Y4102531D01*
X9919411Y4096181D01*
X9926675Y4088917D01*
X9933025Y4080840D01*
X9938334Y4072026D01*
X9942550Y4062653D01*
X9945624Y4052849D01*
X9947452Y4042740D01*
X9948062Y4032656D01*
X9948062Y3872331D01*
X9947452Y3862247D01*
X9945624Y3852138D01*
X9942550Y3842308D01*
X9938334Y3832961D01*
X9933025Y3824147D01*
X9926675Y3816070D01*
X9919411Y3808806D01*
X9911334Y3802456D01*
X9902545Y3797147D01*
X9893172Y3792931D01*
X9883368Y3789857D01*
X9873234Y3788029D01*
G37*
G36*
X9608997Y3787419D02*
G01*
X9598736Y3788029D01*
X9588627Y3789857D01*
X9578822Y3792931D01*
X9569450Y3797147D01*
X9560661Y3802456D01*
X9552559Y3808806D01*
X9545294Y3816070D01*
X9538970Y3824147D01*
X9533661Y3832961D01*
X9529445Y3842308D01*
X9526371Y3852138D01*
X9524517Y3862247D01*
X9523907Y3872331D01*
X9523907Y4032656D01*
X9524517Y4042740D01*
X9526371Y4052849D01*
X9529445Y4062653D01*
X9533661Y4072026D01*
X9538970Y4080840D01*
X9545294Y4088917D01*
X9552559Y4096181D01*
X9560661Y4102531D01*
X9569450Y4107814D01*
X9578822Y4112031D01*
X9588627Y4115130D01*
X9598736Y4116959D01*
X9608997Y4117568D01*
X9619234Y4116959D01*
X9629368Y4115130D01*
X9639172Y4112031D01*
X9648545Y4107814D01*
X9657334Y4102531D01*
X9665411Y4096181D01*
X9672675Y4088917D01*
X9679025Y4080840D01*
X9684334Y4072026D01*
X9688550Y4062653D01*
X9691624Y4052849D01*
X9693452Y4042740D01*
X9694062Y4032656D01*
X9694062Y3872331D01*
X9693452Y3862247D01*
X9691624Y3852138D01*
X9688550Y3842308D01*
X9684334Y3832961D01*
X9679025Y3824147D01*
X9672675Y3816070D01*
X9665411Y3808806D01*
X9657334Y3802456D01*
X9648545Y3797147D01*
X9639172Y3792931D01*
X9629368Y3789857D01*
X9619234Y3788029D01*
G37*
D13*
G01*
X9354985Y3952493D03*
G36*
X9100997Y3787419D02*
G01*
X9090736Y3788029D01*
X9080627Y3789857D01*
X9070822Y3792931D01*
X9061450Y3797147D01*
X9052661Y3802456D01*
X9044559Y3808806D01*
X9037294Y3816070D01*
X9030970Y3824147D01*
X9025661Y3832961D01*
X9021445Y3842308D01*
X9018371Y3852138D01*
X9016517Y3862247D01*
X9015907Y3872331D01*
X9015907Y4032656D01*
X9016517Y4042740D01*
X9018371Y4052849D01*
X9021445Y4062653D01*
X9025661Y4072026D01*
X9030970Y4080840D01*
X9037294Y4088917D01*
X9044559Y4096181D01*
X9052661Y4102531D01*
X9061450Y4107814D01*
X9070822Y4112031D01*
X9080627Y4115130D01*
X9090736Y4116959D01*
X9100997Y4117568D01*
X9111259Y4116959D01*
X9121368Y4115130D01*
X9131172Y4112031D01*
X9140545Y4107814D01*
X9149334Y4102531D01*
X9157411Y4096181D01*
X9164675Y4088917D01*
X9171025Y4080840D01*
X9176334Y4072026D01*
X9180550Y4062653D01*
X9183624Y4052849D01*
X9185478Y4042740D01*
X9186062Y4032656D01*
X9186062Y3872331D01*
X9185478Y3862247D01*
X9183624Y3852138D01*
X9180550Y3842308D01*
X9176334Y3832961D01*
X9171025Y3824147D01*
X9164675Y3816070D01*
X9157411Y3808806D01*
X9149334Y3802456D01*
X9140545Y3797147D01*
X9131172Y3792931D01*
X9121368Y3789857D01*
X9111259Y3788029D01*
G37*
G36*
X8846997Y3787419D02*
G01*
X8836736Y3788029D01*
X8826627Y3789857D01*
X8816822Y3792931D01*
X8807450Y3797147D01*
X8798661Y3802456D01*
X8790559Y3808806D01*
X8783294Y3816070D01*
X8776970Y3824147D01*
X8771661Y3832961D01*
X8767445Y3842308D01*
X8764371Y3852138D01*
X8762517Y3862247D01*
X8761907Y3872331D01*
X8761907Y4032656D01*
X8762517Y4042740D01*
X8764371Y4052849D01*
X8767445Y4062653D01*
X8771661Y4072026D01*
X8776970Y4080840D01*
X8783294Y4088917D01*
X8790559Y4096181D01*
X8798661Y4102531D01*
X8807450Y4107814D01*
X8816822Y4112031D01*
X8826627Y4115130D01*
X8836736Y4116959D01*
X8846997Y4117568D01*
X8857259Y4116959D01*
X8867368Y4115130D01*
X8877172Y4112031D01*
X8886545Y4107814D01*
X8895334Y4102531D01*
X8903411Y4096181D01*
X8910675Y4088917D01*
X8917025Y4080840D01*
X8922334Y4072026D01*
X8926550Y4062653D01*
X8929624Y4052849D01*
X8931478Y4042740D01*
X8932062Y4032656D01*
X8932062Y3872331D01*
X8931478Y3862247D01*
X8929624Y3852138D01*
X8926550Y3842308D01*
X8922334Y3832961D01*
X8917025Y3824147D01*
X8910675Y3816070D01*
X8903411Y3808806D01*
X8895334Y3802456D01*
X8886545Y3797147D01*
X8877172Y3792931D01*
X8867368Y3789857D01*
X8857259Y3788029D01*
G37*
G36*
X8592997Y3787419D02*
G01*
X8582736Y3788029D01*
X8572627Y3789857D01*
X8562822Y3792931D01*
X8553450Y3797147D01*
X8544661Y3802456D01*
X8536559Y3808806D01*
X8529294Y3816070D01*
X8522970Y3824147D01*
X8517661Y3832961D01*
X8513445Y3842308D01*
X8510371Y3852138D01*
X8508517Y3862247D01*
X8507907Y3872331D01*
X8507907Y4032656D01*
X8508517Y4042740D01*
X8510371Y4052849D01*
X8513445Y4062653D01*
X8517661Y4072026D01*
X8522970Y4080840D01*
X8529294Y4088917D01*
X8536559Y4096181D01*
X8544661Y4102531D01*
X8553450Y4107814D01*
X8562822Y4112031D01*
X8572627Y4115130D01*
X8582736Y4116959D01*
X8592997Y4117568D01*
X8603259Y4116959D01*
X8613368Y4115130D01*
X8623172Y4112031D01*
X8632545Y4107814D01*
X8641334Y4102531D01*
X8649411Y4096181D01*
X8656675Y4088917D01*
X8663025Y4080840D01*
X8668334Y4072026D01*
X8672550Y4062653D01*
X8675624Y4052849D01*
X8677478Y4042740D01*
X8678087Y4032656D01*
X8678087Y3872331D01*
X8677478Y3862247D01*
X8675624Y3852138D01*
X8672550Y3842308D01*
X8668334Y3832961D01*
X8663025Y3824147D01*
X8656675Y3816070D01*
X8649411Y3808806D01*
X8641334Y3802456D01*
X8632545Y3797147D01*
X8623172Y3792931D01*
X8613368Y3789857D01*
X8603259Y3788029D01*
G37*
G36*
X8338997Y3787419D02*
G01*
X8328736Y3788029D01*
X8318627Y3789857D01*
X8308822Y3792931D01*
X8299450Y3797147D01*
X8290661Y3802456D01*
X8282559Y3808806D01*
X8275294Y3816070D01*
X8268970Y3824147D01*
X8263661Y3832961D01*
X8259445Y3842308D01*
X8256371Y3852138D01*
X8254517Y3862247D01*
X8253907Y3872331D01*
X8253907Y4032656D01*
X8254517Y4042740D01*
X8256371Y4052849D01*
X8259445Y4062653D01*
X8263661Y4072026D01*
X8268970Y4080840D01*
X8275294Y4088917D01*
X8282559Y4096181D01*
X8290661Y4102531D01*
X8299450Y4107814D01*
X8308822Y4112031D01*
X8318627Y4115130D01*
X8328736Y4116959D01*
X8338997Y4117568D01*
X8349259Y4116959D01*
X8359368Y4115130D01*
X8369172Y4112031D01*
X8378545Y4107814D01*
X8387334Y4102531D01*
X8395436Y4096181D01*
X8402675Y4088917D01*
X8409025Y4080840D01*
X8414334Y4072026D01*
X8418550Y4062653D01*
X8421624Y4052849D01*
X8423478Y4042740D01*
X8424087Y4032656D01*
X8424087Y3872331D01*
X8423478Y3862247D01*
X8421624Y3852138D01*
X8418550Y3842308D01*
X8414334Y3832961D01*
X8409025Y3824147D01*
X8402675Y3816070D01*
X8395436Y3808806D01*
X8387334Y3802456D01*
X8378545Y3797147D01*
X8369172Y3792931D01*
X8359368Y3789857D01*
X8349259Y3788029D01*
G37*
D14*
G01*
X8084997Y3952493D03*
G36*
X7830997Y3787419D02*
G01*
X7820736Y3788029D01*
X7810627Y3789857D01*
X7800822Y3792931D01*
X7791450Y3797147D01*
X7782661Y3802456D01*
X7774559Y3808806D01*
X7767294Y3816070D01*
X7760970Y3824147D01*
X7755661Y3832961D01*
X7751445Y3842308D01*
X7748371Y3852138D01*
X7746517Y3862247D01*
X7745907Y3872331D01*
X7745907Y4032656D01*
X7746517Y4042740D01*
X7748371Y4052849D01*
X7751445Y4062653D01*
X7755661Y4072026D01*
X7760970Y4080840D01*
X7767294Y4088917D01*
X7774559Y4096181D01*
X7782661Y4102531D01*
X7791450Y4107814D01*
X7800822Y4112031D01*
X7810627Y4115130D01*
X7820736Y4116959D01*
X7830997Y4117568D01*
X7841259Y4116959D01*
X7851368Y4115130D01*
X7861172Y4112031D01*
X7870545Y4107814D01*
X7879334Y4102531D01*
X7887436Y4096181D01*
X7894675Y4088917D01*
X7901025Y4080840D01*
X7906334Y4072026D01*
X7910550Y4062653D01*
X7913624Y4052849D01*
X7915478Y4042740D01*
X7916087Y4032656D01*
X7916087Y3872331D01*
X7915478Y3862247D01*
X7913624Y3852138D01*
X7910550Y3842308D01*
X7906334Y3832961D01*
X7901025Y3824147D01*
X7894675Y3816070D01*
X7887436Y3808806D01*
X7879334Y3802456D01*
X7870545Y3797147D01*
X7861172Y3792931D01*
X7851368Y3789857D01*
X7841259Y3788029D01*
G37*
G36*
X7576997Y3787419D02*
G01*
X7566736Y3788029D01*
X7556627Y3789857D01*
X7546822Y3792931D01*
X7537450Y3797147D01*
X7528661Y3802456D01*
X7520559Y3808806D01*
X7513294Y3816070D01*
X7506970Y3824147D01*
X7501661Y3832961D01*
X7497445Y3842308D01*
X7494371Y3852138D01*
X7492517Y3862247D01*
X7491907Y3872331D01*
X7491907Y4032656D01*
X7492517Y4042740D01*
X7494371Y4052849D01*
X7497445Y4062653D01*
X7501661Y4072026D01*
X7506970Y4080840D01*
X7513294Y4088917D01*
X7520559Y4096181D01*
X7528661Y4102531D01*
X7537450Y4107814D01*
X7546822Y4112031D01*
X7556627Y4115130D01*
X7566736Y4116959D01*
X7576997Y4117568D01*
X7587259Y4116959D01*
X7597368Y4115130D01*
X7607172Y4112031D01*
X7616545Y4107814D01*
X7625334Y4102531D01*
X7633436Y4096181D01*
X7640675Y4088917D01*
X7647025Y4080840D01*
X7652334Y4072026D01*
X7656550Y4062653D01*
X7659624Y4052849D01*
X7661478Y4042740D01*
X7662087Y4032656D01*
X7662087Y3872331D01*
X7661478Y3862247D01*
X7659624Y3852138D01*
X7656550Y3842308D01*
X7652334Y3832961D01*
X7647025Y3824147D01*
X7640675Y3816070D01*
X7633436Y3808806D01*
X7625334Y3802456D01*
X7616545Y3797147D01*
X7607172Y3792931D01*
X7597368Y3789857D01*
X7587259Y3788029D01*
G37*
G36*
X7322997Y3787419D02*
G01*
X7312736Y3788029D01*
X7302627Y3789857D01*
X7292822Y3792931D01*
X7283450Y3797147D01*
X7274661Y3802456D01*
X7266559Y3808806D01*
X7259320Y3816070D01*
X7252970Y3824147D01*
X7247661Y3832961D01*
X7243445Y3842308D01*
X7240371Y3852138D01*
X7238517Y3862247D01*
X7237907Y3872331D01*
X7237907Y4032656D01*
X7238517Y4042740D01*
X7240371Y4052849D01*
X7243445Y4062653D01*
X7247661Y4072026D01*
X7252970Y4080840D01*
X7259320Y4088917D01*
X7266559Y4096181D01*
X7274661Y4102531D01*
X7283450Y4107814D01*
X7292822Y4112031D01*
X7302627Y4115130D01*
X7312736Y4116959D01*
X7322997Y4117568D01*
X7333259Y4116959D01*
X7343368Y4115130D01*
X7353172Y4112031D01*
X7362545Y4107814D01*
X7371334Y4102531D01*
X7379436Y4096181D01*
X7386700Y4088917D01*
X7393025Y4080840D01*
X7398334Y4072026D01*
X7402550Y4062653D01*
X7405624Y4052849D01*
X7407478Y4042740D01*
X7408087Y4032656D01*
X7408087Y3872331D01*
X7407478Y3862247D01*
X7405624Y3852138D01*
X7402550Y3842308D01*
X7398334Y3832961D01*
X7393025Y3824147D01*
X7386700Y3816070D01*
X7379436Y3808806D01*
X7371334Y3802456D01*
X7362545Y3797147D01*
X7353172Y3792931D01*
X7343368Y3789857D01*
X7333259Y3788029D01*
G37*
G36*
X7068997Y3787419D02*
G01*
X7058736Y3788029D01*
X7048627Y3789857D01*
X7038822Y3792931D01*
X7029450Y3797147D01*
X7020661Y3802456D01*
X7012559Y3808806D01*
X7005320Y3816070D01*
X6998970Y3824147D01*
X6993661Y3832961D01*
X6989445Y3842308D01*
X6986371Y3852138D01*
X6984517Y3862247D01*
X6983907Y3872331D01*
X6983907Y4032656D01*
X6984517Y4042740D01*
X6986371Y4052849D01*
X6989445Y4062653D01*
X6993661Y4072026D01*
X6998970Y4080840D01*
X7005320Y4088917D01*
X7012559Y4096181D01*
X7020661Y4102531D01*
X7029450Y4107814D01*
X7038822Y4112031D01*
X7048627Y4115130D01*
X7058736Y4116959D01*
X7068997Y4117568D01*
X7079259Y4116959D01*
X7089368Y4115130D01*
X7099172Y4112031D01*
X7108545Y4107814D01*
X7117334Y4102531D01*
X7125436Y4096181D01*
X7132700Y4088917D01*
X7139025Y4080840D01*
X7144334Y4072026D01*
X7148550Y4062653D01*
X7151624Y4052849D01*
X7153478Y4042740D01*
X7154087Y4032656D01*
X7154087Y3872331D01*
X7153478Y3862247D01*
X7151624Y3852138D01*
X7148550Y3842308D01*
X7144334Y3832961D01*
X7139025Y3824147D01*
X7132700Y3816070D01*
X7125436Y3808806D01*
X7117334Y3802456D01*
X7108545Y3797147D01*
X7099172Y3792931D01*
X7089368Y3789857D01*
X7079259Y3788029D01*
G37*
G01*
X6814997Y3952493D03*
G36*
X6560997Y3787419D02*
G01*
X6550736Y3788029D01*
X6540627Y3789857D01*
X6530822Y3792931D01*
X6521450Y3797147D01*
X6512661Y3802456D01*
X6504559Y3808806D01*
X6497320Y3816070D01*
X6490970Y3824147D01*
X6485661Y3832961D01*
X6481445Y3842308D01*
X6478371Y3852138D01*
X6476517Y3862247D01*
X6475907Y3872331D01*
X6475907Y4032656D01*
X6476517Y4042740D01*
X6478371Y4052849D01*
X6481445Y4062653D01*
X6485661Y4072026D01*
X6490970Y4080840D01*
X6497320Y4088917D01*
X6504559Y4096181D01*
X6512661Y4102531D01*
X6521450Y4107814D01*
X6530822Y4112031D01*
X6540627Y4115130D01*
X6550736Y4116959D01*
X6560997Y4117568D01*
X6571259Y4116959D01*
X6581368Y4115130D01*
X6591172Y4112031D01*
X6600545Y4107814D01*
X6609334Y4102531D01*
X6617436Y4096181D01*
X6624700Y4088917D01*
X6631025Y4080840D01*
X6636334Y4072026D01*
X6640550Y4062653D01*
X6643624Y4052849D01*
X6645478Y4042740D01*
X6646087Y4032656D01*
X6646087Y3872331D01*
X6645478Y3862247D01*
X6643624Y3852138D01*
X6640550Y3842308D01*
X6636334Y3832961D01*
X6631025Y3824147D01*
X6624700Y3816070D01*
X6617436Y3808806D01*
X6609334Y3802456D01*
X6600545Y3797147D01*
X6591172Y3792931D01*
X6581368Y3789857D01*
X6571259Y3788029D01*
G37*
G36*
X6306997Y3787419D02*
G01*
X6296736Y3788029D01*
X6286627Y3789857D01*
X6276822Y3792931D01*
X6267450Y3797147D01*
X6258661Y3802456D01*
X6250584Y3808806D01*
X6243320Y3816070D01*
X6236970Y3824147D01*
X6231661Y3832961D01*
X6227445Y3842308D01*
X6224371Y3852138D01*
X6222517Y3862247D01*
X6221907Y3872331D01*
X6221907Y4032656D01*
X6222517Y4042740D01*
X6224371Y4052849D01*
X6227445Y4062653D01*
X6231661Y4072026D01*
X6236970Y4080840D01*
X6243320Y4088917D01*
X6250584Y4096181D01*
X6258661Y4102531D01*
X6267450Y4107814D01*
X6276822Y4112031D01*
X6286627Y4115130D01*
X6296736Y4116959D01*
X6306997Y4117568D01*
X6317259Y4116959D01*
X6327368Y4115130D01*
X6337172Y4112031D01*
X6346545Y4107814D01*
X6355334Y4102531D01*
X6363436Y4096181D01*
X6370700Y4088917D01*
X6377025Y4080840D01*
X6382334Y4072026D01*
X6386550Y4062653D01*
X6389624Y4052849D01*
X6391478Y4042740D01*
X6392087Y4032656D01*
X6392087Y3872331D01*
X6391478Y3862247D01*
X6389624Y3852138D01*
X6386550Y3842308D01*
X6382334Y3832961D01*
X6377025Y3824147D01*
X6370700Y3816070D01*
X6363436Y3808806D01*
X6355334Y3802456D01*
X6346545Y3797147D01*
X6337172Y3792931D01*
X6327368Y3789857D01*
X6317259Y3788029D01*
G37*
G36*
X6052997Y3787419D02*
G01*
X6042736Y3788029D01*
X6032627Y3789857D01*
X6022822Y3792931D01*
X6013450Y3797147D01*
X6004661Y3802456D01*
X5996584Y3808806D01*
X5989320Y3816070D01*
X5982970Y3824147D01*
X5977661Y3832961D01*
X5973445Y3842308D01*
X5970371Y3852138D01*
X5968517Y3862247D01*
X5967933Y3872331D01*
X5967933Y4032656D01*
X5968517Y4042740D01*
X5970371Y4052849D01*
X5973445Y4062653D01*
X5977661Y4072026D01*
X5982970Y4080840D01*
X5989320Y4088917D01*
X5996584Y4096181D01*
X6004661Y4102531D01*
X6013450Y4107814D01*
X6022822Y4112031D01*
X6032627Y4115130D01*
X6042736Y4116959D01*
X6052997Y4117568D01*
X6063259Y4116959D01*
X6073368Y4115130D01*
X6083172Y4112031D01*
X6092545Y4107814D01*
X6101334Y4102531D01*
X6109436Y4096181D01*
X6116700Y4088917D01*
X6123025Y4080840D01*
X6128334Y4072026D01*
X6132550Y4062653D01*
X6135624Y4052849D01*
X6137478Y4042740D01*
X6138087Y4032656D01*
X6138087Y3872331D01*
X6137478Y3862247D01*
X6135624Y3852138D01*
X6132550Y3842308D01*
X6128334Y3832961D01*
X6123025Y3824147D01*
X6116700Y3816070D01*
X6109436Y3808806D01*
X6101334Y3802456D01*
X6092545Y3797147D01*
X6083172Y3792931D01*
X6073368Y3789857D01*
X6063259Y3788029D01*
G37*
G36*
X5798997Y3787419D02*
G01*
X5788736Y3788029D01*
X5778627Y3789857D01*
X5768822Y3792931D01*
X5759450Y3797147D01*
X5750661Y3802456D01*
X5742584Y3808806D01*
X5735320Y3816070D01*
X5728970Y3824147D01*
X5723661Y3832961D01*
X5719445Y3842308D01*
X5716371Y3852138D01*
X5714517Y3862247D01*
X5713933Y3872331D01*
X5713933Y4032656D01*
X5714517Y4042740D01*
X5716371Y4052849D01*
X5719445Y4062653D01*
X5723661Y4072026D01*
X5728970Y4080840D01*
X5735320Y4088917D01*
X5742584Y4096181D01*
X5750661Y4102531D01*
X5759450Y4107814D01*
X5768822Y4112031D01*
X5778627Y4115130D01*
X5788736Y4116959D01*
X5798997Y4117568D01*
X5809259Y4116959D01*
X5819368Y4115130D01*
X5829172Y4112031D01*
X5838545Y4107814D01*
X5847334Y4102531D01*
X5855436Y4096181D01*
X5862700Y4088917D01*
X5869025Y4080840D01*
X5874334Y4072026D01*
X5878550Y4062653D01*
X5881624Y4052849D01*
X5883478Y4042740D01*
X5884087Y4032656D01*
X5884087Y3872331D01*
X5883478Y3862247D01*
X5881624Y3852138D01*
X5878550Y3842308D01*
X5874334Y3832961D01*
X5869025Y3824147D01*
X5862700Y3816070D01*
X5855436Y3808806D01*
X5847334Y3802456D01*
X5838545Y3797147D01*
X5829172Y3792931D01*
X5819368Y3789857D01*
X5809259Y3788029D01*
G37*
D13*
G01*
X5545010Y3952493D03*
G36*
X5290997Y3787419D02*
G01*
X5280761Y3788029D01*
X5270627Y3789857D01*
X5260822Y3792931D01*
X5251450Y3797147D01*
X5242661Y3802456D01*
X5234584Y3808806D01*
X5227320Y3816070D01*
X5220970Y3824147D01*
X5215661Y3832961D01*
X5211445Y3842308D01*
X5208371Y3852138D01*
X5206542Y3862247D01*
X5205933Y3872331D01*
X5205933Y4032656D01*
X5206542Y4042740D01*
X5208371Y4052849D01*
X5211445Y4062653D01*
X5215661Y4072026D01*
X5220970Y4080840D01*
X5227320Y4088917D01*
X5234584Y4096181D01*
X5242661Y4102531D01*
X5251450Y4107814D01*
X5260822Y4112031D01*
X5270627Y4115130D01*
X5280761Y4116959D01*
X5290997Y4117568D01*
X5301259Y4116959D01*
X5311368Y4115130D01*
X5321172Y4112031D01*
X5330545Y4107814D01*
X5339334Y4102531D01*
X5347436Y4096181D01*
X5354700Y4088917D01*
X5361025Y4080840D01*
X5366334Y4072026D01*
X5370550Y4062653D01*
X5373624Y4052849D01*
X5375478Y4042740D01*
X5376087Y4032656D01*
X5376087Y3872331D01*
X5375478Y3862247D01*
X5373624Y3852138D01*
X5370550Y3842308D01*
X5366334Y3832961D01*
X5361025Y3824147D01*
X5354700Y3816070D01*
X5347436Y3808806D01*
X5339334Y3802456D01*
X5330545Y3797147D01*
X5321172Y3792931D01*
X5311368Y3789857D01*
X5301259Y3788029D01*
G37*
G36*
X5036997Y3787419D02*
G01*
X5026761Y3788029D01*
X5016627Y3789857D01*
X5006822Y3792931D01*
X4997450Y3797147D01*
X4988661Y3802456D01*
X4980584Y3808806D01*
X4973320Y3816070D01*
X4966970Y3824147D01*
X4961661Y3832961D01*
X4957445Y3842308D01*
X4954371Y3852138D01*
X4952542Y3862247D01*
X4951933Y3872331D01*
X4951933Y4032656D01*
X4952542Y4042740D01*
X4954371Y4052849D01*
X4957445Y4062653D01*
X4961661Y4072026D01*
X4966970Y4080840D01*
X4973320Y4088917D01*
X4980584Y4096181D01*
X4988661Y4102531D01*
X4997450Y4107814D01*
X5006822Y4112031D01*
X5016627Y4115130D01*
X5026761Y4116959D01*
X5036997Y4117568D01*
X5047259Y4116959D01*
X5057368Y4115130D01*
X5067172Y4112031D01*
X5076545Y4107814D01*
X5085334Y4102531D01*
X5093436Y4096181D01*
X5100700Y4088917D01*
X5107025Y4080840D01*
X5112334Y4072026D01*
X5116550Y4062653D01*
X5119624Y4052849D01*
X5121478Y4042740D01*
X5122087Y4032656D01*
X5122087Y3872331D01*
X5121478Y3862247D01*
X5119624Y3852138D01*
X5116550Y3842308D01*
X5112334Y3832961D01*
X5107025Y3824147D01*
X5100700Y3816070D01*
X5093436Y3808806D01*
X5085334Y3802456D01*
X5076545Y3797147D01*
X5067172Y3792931D01*
X5057368Y3789857D01*
X5047259Y3788029D01*
G37*
G36*
X5036997Y1882419D02*
G01*
X5026761Y1883029D01*
X5016627Y1884857D01*
X5006822Y1887956D01*
X4997450Y1892172D01*
X4988661Y1897456D01*
X4980584Y1903806D01*
X4973320Y1911070D01*
X4966970Y1919147D01*
X4961661Y1927961D01*
X4957445Y1937334D01*
X4954371Y1947138D01*
X4952542Y1957247D01*
X4951933Y1967331D01*
X4951933Y2127656D01*
X4952542Y2137740D01*
X4954371Y2147849D01*
X4957445Y2157679D01*
X4961661Y2167026D01*
X4966970Y2175840D01*
X4973320Y2183917D01*
X4980584Y2191181D01*
X4988661Y2197531D01*
X4997450Y2202840D01*
X5006822Y2207056D01*
X5016627Y2210130D01*
X5026761Y2211959D01*
X5036997Y2212568D01*
X5047259Y2211959D01*
X5057368Y2210130D01*
X5067172Y2207056D01*
X5076545Y2202840D01*
X5085334Y2197531D01*
X5093436Y2191181D01*
X5100700Y2183917D01*
X5107025Y2175840D01*
X5112334Y2167026D01*
X5116550Y2157679D01*
X5119624Y2147849D01*
X5121478Y2137740D01*
X5122087Y2127656D01*
X5122087Y1967331D01*
X5121478Y1957247D01*
X5119624Y1947138D01*
X5116550Y1937334D01*
X5112334Y1927961D01*
X5107025Y1919147D01*
X5100700Y1911070D01*
X5093436Y1903806D01*
X5085334Y1897456D01*
X5076545Y1892172D01*
X5067172Y1887956D01*
X5057368Y1884857D01*
X5047259Y1883029D01*
G37*
G36*
X5290997Y1882419D02*
G01*
X5280761Y1883029D01*
X5270627Y1884857D01*
X5260822Y1887956D01*
X5251450Y1892172D01*
X5242661Y1897456D01*
X5234584Y1903806D01*
X5227320Y1911070D01*
X5220970Y1919147D01*
X5215661Y1927961D01*
X5211445Y1937334D01*
X5208371Y1947138D01*
X5206542Y1957247D01*
X5205933Y1967331D01*
X5205933Y2127656D01*
X5206542Y2137740D01*
X5208371Y2147849D01*
X5211445Y2157679D01*
X5215661Y2167026D01*
X5220970Y2175840D01*
X5227320Y2183917D01*
X5234584Y2191181D01*
X5242661Y2197531D01*
X5251450Y2202840D01*
X5260822Y2207056D01*
X5270627Y2210130D01*
X5280761Y2211959D01*
X5290997Y2212568D01*
X5301259Y2211959D01*
X5311368Y2210130D01*
X5321172Y2207056D01*
X5330545Y2202840D01*
X5339334Y2197531D01*
X5347436Y2191181D01*
X5354700Y2183917D01*
X5361025Y2175840D01*
X5366334Y2167026D01*
X5370550Y2157679D01*
X5373624Y2147849D01*
X5375478Y2137740D01*
X5376087Y2127656D01*
X5376087Y1967331D01*
X5375478Y1957247D01*
X5373624Y1947138D01*
X5370550Y1937334D01*
X5366334Y1927961D01*
X5361025Y1919147D01*
X5354700Y1911070D01*
X5347436Y1903806D01*
X5339334Y1897456D01*
X5330545Y1892172D01*
X5321172Y1887956D01*
X5311368Y1884857D01*
X5301259Y1883029D01*
G37*
G01*
X5545010Y2047493D03*
G36*
X5798997Y1882419D02*
G01*
X5788736Y1883029D01*
X5778627Y1884857D01*
X5768822Y1887956D01*
X5759450Y1892172D01*
X5750661Y1897456D01*
X5742584Y1903806D01*
X5735320Y1911070D01*
X5728970Y1919147D01*
X5723661Y1927961D01*
X5719445Y1937334D01*
X5716371Y1947138D01*
X5714517Y1957247D01*
X5713933Y1967331D01*
X5713933Y2127656D01*
X5714517Y2137740D01*
X5716371Y2147849D01*
X5719445Y2157679D01*
X5723661Y2167026D01*
X5728970Y2175840D01*
X5735320Y2183917D01*
X5742584Y2191181D01*
X5750661Y2197531D01*
X5759450Y2202840D01*
X5768822Y2207056D01*
X5778627Y2210130D01*
X5788736Y2211959D01*
X5798997Y2212568D01*
X5809259Y2211959D01*
X5819368Y2210130D01*
X5829172Y2207056D01*
X5838545Y2202840D01*
X5847334Y2197531D01*
X5855436Y2191181D01*
X5862700Y2183917D01*
X5869025Y2175840D01*
X5874334Y2167026D01*
X5878550Y2157679D01*
X5881624Y2147849D01*
X5883478Y2137740D01*
X5884087Y2127656D01*
X5884087Y1967331D01*
X5883478Y1957247D01*
X5881624Y1947138D01*
X5878550Y1937334D01*
X5874334Y1927961D01*
X5869025Y1919147D01*
X5862700Y1911070D01*
X5855436Y1903806D01*
X5847334Y1897456D01*
X5838545Y1892172D01*
X5829172Y1887956D01*
X5819368Y1884857D01*
X5809259Y1883029D01*
G37*
G36*
X6052997Y1882419D02*
G01*
X6042736Y1883029D01*
X6032627Y1884857D01*
X6022822Y1887956D01*
X6013450Y1892172D01*
X6004661Y1897456D01*
X5996584Y1903806D01*
X5989320Y1911070D01*
X5982970Y1919147D01*
X5977661Y1927961D01*
X5973445Y1937334D01*
X5970371Y1947138D01*
X5968517Y1957247D01*
X5967933Y1967331D01*
X5967933Y2127656D01*
X5968517Y2137740D01*
X5970371Y2147849D01*
X5973445Y2157679D01*
X5977661Y2167026D01*
X5982970Y2175840D01*
X5989320Y2183917D01*
X5996584Y2191181D01*
X6004661Y2197531D01*
X6013450Y2202840D01*
X6022822Y2207056D01*
X6032627Y2210130D01*
X6042736Y2211959D01*
X6052997Y2212568D01*
X6063259Y2211959D01*
X6073368Y2210130D01*
X6083172Y2207056D01*
X6092545Y2202840D01*
X6101334Y2197531D01*
X6109436Y2191181D01*
X6116700Y2183917D01*
X6123025Y2175840D01*
X6128334Y2167026D01*
X6132550Y2157679D01*
X6135624Y2147849D01*
X6137478Y2137740D01*
X6138087Y2127656D01*
X6138087Y1967331D01*
X6137478Y1957247D01*
X6135624Y1947138D01*
X6132550Y1937334D01*
X6128334Y1927961D01*
X6123025Y1919147D01*
X6116700Y1911070D01*
X6109436Y1903806D01*
X6101334Y1897456D01*
X6092545Y1892172D01*
X6083172Y1887956D01*
X6073368Y1884857D01*
X6063259Y1883029D01*
G37*
G36*
X6306997Y1882419D02*
G01*
X6296736Y1883029D01*
X6286627Y1884857D01*
X6276822Y1887956D01*
X6267450Y1892172D01*
X6258661Y1897456D01*
X6250584Y1903806D01*
X6243320Y1911070D01*
X6236970Y1919147D01*
X6231661Y1927961D01*
X6227445Y1937334D01*
X6224371Y1947138D01*
X6222517Y1957247D01*
X6221907Y1967331D01*
X6221907Y2127656D01*
X6222517Y2137740D01*
X6224371Y2147849D01*
X6227445Y2157679D01*
X6231661Y2167026D01*
X6236970Y2175840D01*
X6243320Y2183917D01*
X6250584Y2191181D01*
X6258661Y2197531D01*
X6267450Y2202840D01*
X6276822Y2207056D01*
X6286627Y2210130D01*
X6296736Y2211959D01*
X6306997Y2212568D01*
X6317259Y2211959D01*
X6327368Y2210130D01*
X6337172Y2207056D01*
X6346545Y2202840D01*
X6355334Y2197531D01*
X6363436Y2191181D01*
X6370700Y2183917D01*
X6377025Y2175840D01*
X6382334Y2167026D01*
X6386550Y2157679D01*
X6389624Y2147849D01*
X6391478Y2137740D01*
X6392087Y2127656D01*
X6392087Y1967331D01*
X6391478Y1957247D01*
X6389624Y1947138D01*
X6386550Y1937334D01*
X6382334Y1927961D01*
X6377025Y1919147D01*
X6370700Y1911070D01*
X6363436Y1903806D01*
X6355334Y1897456D01*
X6346545Y1892172D01*
X6337172Y1887956D01*
X6327368Y1884857D01*
X6317259Y1883029D01*
G37*
G36*
X6560997Y1882419D02*
G01*
X6550736Y1883029D01*
X6540627Y1884857D01*
X6530822Y1887956D01*
X6521450Y1892172D01*
X6512661Y1897456D01*
X6504559Y1903806D01*
X6497320Y1911070D01*
X6490970Y1919147D01*
X6485661Y1927961D01*
X6481445Y1937334D01*
X6478371Y1947138D01*
X6476517Y1957247D01*
X6475907Y1967331D01*
X6475907Y2127656D01*
X6476517Y2137740D01*
X6478371Y2147849D01*
X6481445Y2157679D01*
X6485661Y2167026D01*
X6490970Y2175840D01*
X6497320Y2183917D01*
X6504559Y2191181D01*
X6512661Y2197531D01*
X6521450Y2202840D01*
X6530822Y2207056D01*
X6540627Y2210130D01*
X6550736Y2211959D01*
X6560997Y2212568D01*
X6571259Y2211959D01*
X6581368Y2210130D01*
X6591172Y2207056D01*
X6600545Y2202840D01*
X6609334Y2197531D01*
X6617436Y2191181D01*
X6624700Y2183917D01*
X6631025Y2175840D01*
X6636334Y2167026D01*
X6640550Y2157679D01*
X6643624Y2147849D01*
X6645478Y2137740D01*
X6646087Y2127656D01*
X6646087Y1967331D01*
X6645478Y1957247D01*
X6643624Y1947138D01*
X6640550Y1937334D01*
X6636334Y1927961D01*
X6631025Y1919147D01*
X6624700Y1911070D01*
X6617436Y1903806D01*
X6609334Y1897456D01*
X6600545Y1892172D01*
X6591172Y1887956D01*
X6581368Y1884857D01*
X6571259Y1883029D01*
G37*
D14*
G01*
X6814997Y2047493D03*
G36*
X7068997Y1882419D02*
G01*
X7058736Y1883029D01*
X7048627Y1884857D01*
X7038822Y1887956D01*
X7029450Y1892172D01*
X7020661Y1897456D01*
X7012559Y1903806D01*
X7005320Y1911070D01*
X6998970Y1919147D01*
X6993661Y1927961D01*
X6989445Y1937334D01*
X6986371Y1947138D01*
X6984517Y1957247D01*
X6983907Y1967331D01*
X6983907Y2127656D01*
X6984517Y2137740D01*
X6986371Y2147849D01*
X6989445Y2157679D01*
X6993661Y2167026D01*
X6998970Y2175840D01*
X7005320Y2183917D01*
X7012559Y2191181D01*
X7020661Y2197531D01*
X7029450Y2202840D01*
X7038822Y2207056D01*
X7048627Y2210130D01*
X7058736Y2211959D01*
X7068997Y2212568D01*
X7079259Y2211959D01*
X7089368Y2210130D01*
X7099172Y2207056D01*
X7108545Y2202840D01*
X7117334Y2197531D01*
X7125436Y2191181D01*
X7132700Y2183917D01*
X7139025Y2175840D01*
X7144334Y2167026D01*
X7148550Y2157679D01*
X7151624Y2147849D01*
X7153478Y2137740D01*
X7154087Y2127656D01*
X7154087Y1967331D01*
X7153478Y1957247D01*
X7151624Y1947138D01*
X7148550Y1937334D01*
X7144334Y1927961D01*
X7139025Y1919147D01*
X7132700Y1911070D01*
X7125436Y1903806D01*
X7117334Y1897456D01*
X7108545Y1892172D01*
X7099172Y1887956D01*
X7089368Y1884857D01*
X7079259Y1883029D01*
G37*
G36*
X7322997Y1882419D02*
G01*
X7312736Y1883029D01*
X7302627Y1884857D01*
X7292822Y1887956D01*
X7283450Y1892172D01*
X7274661Y1897456D01*
X7266559Y1903806D01*
X7259320Y1911070D01*
X7252970Y1919147D01*
X7247661Y1927961D01*
X7243445Y1937334D01*
X7240371Y1947138D01*
X7238517Y1957247D01*
X7237907Y1967331D01*
X7237907Y2127656D01*
X7238517Y2137740D01*
X7240371Y2147849D01*
X7243445Y2157679D01*
X7247661Y2167026D01*
X7252970Y2175840D01*
X7259320Y2183917D01*
X7266559Y2191181D01*
X7274661Y2197531D01*
X7283450Y2202840D01*
X7292822Y2207056D01*
X7302627Y2210130D01*
X7312736Y2211959D01*
X7322997Y2212568D01*
X7333259Y2211959D01*
X7343368Y2210130D01*
X7353172Y2207056D01*
X7362545Y2202840D01*
X7371334Y2197531D01*
X7379436Y2191181D01*
X7386700Y2183917D01*
X7393025Y2175840D01*
X7398334Y2167026D01*
X7402550Y2157679D01*
X7405624Y2147849D01*
X7407478Y2137740D01*
X7408087Y2127656D01*
X7408087Y1967331D01*
X7407478Y1957247D01*
X7405624Y1947138D01*
X7402550Y1937334D01*
X7398334Y1927961D01*
X7393025Y1919147D01*
X7386700Y1911070D01*
X7379436Y1903806D01*
X7371334Y1897456D01*
X7362545Y1892172D01*
X7353172Y1887956D01*
X7343368Y1884857D01*
X7333259Y1883029D01*
G37*
G36*
X7576997Y1882419D02*
G01*
X7566736Y1883029D01*
X7556627Y1884857D01*
X7546822Y1887956D01*
X7537450Y1892172D01*
X7528661Y1897456D01*
X7520559Y1903806D01*
X7513294Y1911070D01*
X7506970Y1919147D01*
X7501661Y1927961D01*
X7497445Y1937334D01*
X7494371Y1947138D01*
X7492517Y1957247D01*
X7491907Y1967331D01*
X7491907Y2127656D01*
X7492517Y2137740D01*
X7494371Y2147849D01*
X7497445Y2157679D01*
X7501661Y2167026D01*
X7506970Y2175840D01*
X7513294Y2183917D01*
X7520559Y2191181D01*
X7528661Y2197531D01*
X7537450Y2202840D01*
X7546822Y2207056D01*
X7556627Y2210130D01*
X7566736Y2211959D01*
X7576997Y2212568D01*
X7587259Y2211959D01*
X7597368Y2210130D01*
X7607172Y2207056D01*
X7616545Y2202840D01*
X7625334Y2197531D01*
X7633436Y2191181D01*
X7640675Y2183917D01*
X7647025Y2175840D01*
X7652334Y2167026D01*
X7656550Y2157679D01*
X7659624Y2147849D01*
X7661478Y2137740D01*
X7662087Y2127656D01*
X7662087Y1967331D01*
X7661478Y1957247D01*
X7659624Y1947138D01*
X7656550Y1937334D01*
X7652334Y1927961D01*
X7647025Y1919147D01*
X7640675Y1911070D01*
X7633436Y1903806D01*
X7625334Y1897456D01*
X7616545Y1892172D01*
X7607172Y1887956D01*
X7597368Y1884857D01*
X7587259Y1883029D01*
G37*
G36*
X7830997Y1882419D02*
G01*
X7820736Y1883029D01*
X7810627Y1884857D01*
X7800822Y1887956D01*
X7791450Y1892172D01*
X7782661Y1897456D01*
X7774559Y1903806D01*
X7767294Y1911070D01*
X7760970Y1919147D01*
X7755661Y1927961D01*
X7751445Y1937334D01*
X7748371Y1947138D01*
X7746517Y1957247D01*
X7745907Y1967331D01*
X7745907Y2127656D01*
X7746517Y2137740D01*
X7748371Y2147849D01*
X7751445Y2157679D01*
X7755661Y2167026D01*
X7760970Y2175840D01*
X7767294Y2183917D01*
X7774559Y2191181D01*
X7782661Y2197531D01*
X7791450Y2202840D01*
X7800822Y2207056D01*
X7810627Y2210130D01*
X7820736Y2211959D01*
X7830997Y2212568D01*
X7841259Y2211959D01*
X7851368Y2210130D01*
X7861172Y2207056D01*
X7870545Y2202840D01*
X7879334Y2197531D01*
X7887436Y2191181D01*
X7894675Y2183917D01*
X7901025Y2175840D01*
X7906334Y2167026D01*
X7910550Y2157679D01*
X7913624Y2147849D01*
X7915478Y2137740D01*
X7916087Y2127656D01*
X7916087Y1967331D01*
X7915478Y1957247D01*
X7913624Y1947138D01*
X7910550Y1937334D01*
X7906334Y1927961D01*
X7901025Y1919147D01*
X7894675Y1911070D01*
X7887436Y1903806D01*
X7879334Y1897456D01*
X7870545Y1892172D01*
X7861172Y1887956D01*
X7851368Y1884857D01*
X7841259Y1883029D01*
G37*
G01*
X8084997Y2047493D03*
G36*
X8338997Y1882419D02*
G01*
X8328736Y1883029D01*
X8318627Y1884857D01*
X8308822Y1887956D01*
X8299450Y1892172D01*
X8290661Y1897456D01*
X8282559Y1903806D01*
X8275294Y1911070D01*
X8268970Y1919147D01*
X8263661Y1927961D01*
X8259445Y1937334D01*
X8256371Y1947138D01*
X8254517Y1957247D01*
X8253907Y1967331D01*
X8253907Y2127656D01*
X8254517Y2137740D01*
X8256371Y2147849D01*
X8259445Y2157679D01*
X8263661Y2167026D01*
X8268970Y2175840D01*
X8275294Y2183917D01*
X8282559Y2191181D01*
X8290661Y2197531D01*
X8299450Y2202840D01*
X8308822Y2207056D01*
X8318627Y2210130D01*
X8328736Y2211959D01*
X8338997Y2212568D01*
X8349259Y2211959D01*
X8359368Y2210130D01*
X8369172Y2207056D01*
X8378545Y2202840D01*
X8387334Y2197531D01*
X8395436Y2191181D01*
X8402675Y2183917D01*
X8409025Y2175840D01*
X8414334Y2167026D01*
X8418550Y2157679D01*
X8421624Y2147849D01*
X8423478Y2137740D01*
X8424087Y2127656D01*
X8424087Y1967331D01*
X8423478Y1957247D01*
X8421624Y1947138D01*
X8418550Y1937334D01*
X8414334Y1927961D01*
X8409025Y1919147D01*
X8402675Y1911070D01*
X8395436Y1903806D01*
X8387334Y1897456D01*
X8378545Y1892172D01*
X8369172Y1887956D01*
X8359368Y1884857D01*
X8349259Y1883029D01*
G37*
G36*
X8592997Y1882419D02*
G01*
X8582736Y1883029D01*
X8572627Y1884857D01*
X8562822Y1887956D01*
X8553450Y1892172D01*
X8544661Y1897456D01*
X8536559Y1903806D01*
X8529294Y1911070D01*
X8522970Y1919147D01*
X8517661Y1927961D01*
X8513445Y1937334D01*
X8510371Y1947138D01*
X8508517Y1957247D01*
X8507907Y1967331D01*
X8507907Y2127656D01*
X8508517Y2137740D01*
X8510371Y2147849D01*
X8513445Y2157679D01*
X8517661Y2167026D01*
X8522970Y2175840D01*
X8529294Y2183917D01*
X8536559Y2191181D01*
X8544661Y2197531D01*
X8553450Y2202840D01*
X8562822Y2207056D01*
X8572627Y2210130D01*
X8582736Y2211959D01*
X8592997Y2212568D01*
X8603259Y2211959D01*
X8613368Y2210130D01*
X8623172Y2207056D01*
X8632545Y2202840D01*
X8641334Y2197531D01*
X8649411Y2191181D01*
X8656675Y2183917D01*
X8663025Y2175840D01*
X8668334Y2167026D01*
X8672550Y2157679D01*
X8675624Y2147849D01*
X8677478Y2137740D01*
X8678087Y2127656D01*
X8678087Y1967331D01*
X8677478Y1957247D01*
X8675624Y1947138D01*
X8672550Y1937334D01*
X8668334Y1927961D01*
X8663025Y1919147D01*
X8656675Y1911070D01*
X8649411Y1903806D01*
X8641334Y1897456D01*
X8632545Y1892172D01*
X8623172Y1887956D01*
X8613368Y1884857D01*
X8603259Y1883029D01*
G37*
G36*
X8846997Y1882419D02*
G01*
X8836736Y1883029D01*
X8826627Y1884857D01*
X8816822Y1887956D01*
X8807450Y1892172D01*
X8798661Y1897456D01*
X8790559Y1903806D01*
X8783294Y1911070D01*
X8776970Y1919147D01*
X8771661Y1927961D01*
X8767445Y1937334D01*
X8764371Y1947138D01*
X8762517Y1957247D01*
X8761907Y1967331D01*
X8761907Y2127656D01*
X8762517Y2137740D01*
X8764371Y2147849D01*
X8767445Y2157679D01*
X8771661Y2167026D01*
X8776970Y2175840D01*
X8783294Y2183917D01*
X8790559Y2191181D01*
X8798661Y2197531D01*
X8807450Y2202840D01*
X8816822Y2207056D01*
X8826627Y2210130D01*
X8836736Y2211959D01*
X8846997Y2212568D01*
X8857259Y2211959D01*
X8867368Y2210130D01*
X8877172Y2207056D01*
X8886545Y2202840D01*
X8895334Y2197531D01*
X8903411Y2191181D01*
X8910675Y2183917D01*
X8917025Y2175840D01*
X8922334Y2167026D01*
X8926550Y2157679D01*
X8929624Y2147849D01*
X8931478Y2137740D01*
X8932062Y2127656D01*
X8932062Y1967331D01*
X8931478Y1957247D01*
X8929624Y1947138D01*
X8926550Y1937334D01*
X8922334Y1927961D01*
X8917025Y1919147D01*
X8910675Y1911070D01*
X8903411Y1903806D01*
X8895334Y1897456D01*
X8886545Y1892172D01*
X8877172Y1887956D01*
X8867368Y1884857D01*
X8857259Y1883029D01*
G37*
G36*
X9100997Y1882419D02*
G01*
X9090736Y1883029D01*
X9080627Y1884857D01*
X9070822Y1887956D01*
X9061450Y1892172D01*
X9052661Y1897456D01*
X9044559Y1903806D01*
X9037294Y1911070D01*
X9030970Y1919147D01*
X9025661Y1927961D01*
X9021445Y1937334D01*
X9018371Y1947138D01*
X9016517Y1957247D01*
X9015907Y1967331D01*
X9015907Y2127656D01*
X9016517Y2137740D01*
X9018371Y2147849D01*
X9021445Y2157679D01*
X9025661Y2167026D01*
X9030970Y2175840D01*
X9037294Y2183917D01*
X9044559Y2191181D01*
X9052661Y2197531D01*
X9061450Y2202840D01*
X9070822Y2207056D01*
X9080627Y2210130D01*
X9090736Y2211959D01*
X9100997Y2212568D01*
X9111259Y2211959D01*
X9121368Y2210130D01*
X9131172Y2207056D01*
X9140545Y2202840D01*
X9149334Y2197531D01*
X9157411Y2191181D01*
X9164675Y2183917D01*
X9171025Y2175840D01*
X9176334Y2167026D01*
X9180550Y2157679D01*
X9183624Y2147849D01*
X9185478Y2137740D01*
X9186062Y2127656D01*
X9186062Y1967331D01*
X9185478Y1957247D01*
X9183624Y1947138D01*
X9180550Y1937334D01*
X9176334Y1927961D01*
X9171025Y1919147D01*
X9164675Y1911070D01*
X9157411Y1903806D01*
X9149334Y1897456D01*
X9140545Y1892172D01*
X9131172Y1887956D01*
X9121368Y1884857D01*
X9111259Y1883029D01*
G37*
D13*
G01*
X9354985Y2047493D03*
G36*
X9608997Y1882419D02*
G01*
X9598736Y1883029D01*
X9588627Y1884857D01*
X9578822Y1887956D01*
X9569450Y1892172D01*
X9560661Y1897456D01*
X9552559Y1903806D01*
X9545294Y1911070D01*
X9538970Y1919147D01*
X9533661Y1927961D01*
X9529445Y1937334D01*
X9526371Y1947138D01*
X9524517Y1957247D01*
X9523907Y1967331D01*
X9523907Y2127656D01*
X9524517Y2137740D01*
X9526371Y2147849D01*
X9529445Y2157679D01*
X9533661Y2167026D01*
X9538970Y2175840D01*
X9545294Y2183917D01*
X9552559Y2191181D01*
X9560661Y2197531D01*
X9569450Y2202840D01*
X9578822Y2207056D01*
X9588627Y2210130D01*
X9598736Y2211959D01*
X9608997Y2212568D01*
X9619234Y2211959D01*
X9629368Y2210130D01*
X9639172Y2207056D01*
X9648545Y2202840D01*
X9657334Y2197531D01*
X9665411Y2191181D01*
X9672675Y2183917D01*
X9679025Y2175840D01*
X9684334Y2167026D01*
X9688550Y2157679D01*
X9691624Y2147849D01*
X9693452Y2137740D01*
X9694062Y2127656D01*
X9694062Y1967331D01*
X9693452Y1957247D01*
X9691624Y1947138D01*
X9688550Y1937334D01*
X9684334Y1927961D01*
X9679025Y1919147D01*
X9672675Y1911070D01*
X9665411Y1903806D01*
X9657334Y1897456D01*
X9648545Y1892172D01*
X9639172Y1887956D01*
X9629368Y1884857D01*
X9619234Y1883029D01*
G37*
G36*
X9862997Y1882419D02*
G01*
X9852736Y1883029D01*
X9842627Y1884857D01*
X9832822Y1887956D01*
X9823450Y1892172D01*
X9814661Y1897456D01*
X9806559Y1903806D01*
X9799294Y1911070D01*
X9792970Y1919147D01*
X9787661Y1927961D01*
X9783445Y1937334D01*
X9780371Y1947138D01*
X9778517Y1957247D01*
X9777907Y1967331D01*
X9777907Y2127656D01*
X9778517Y2137740D01*
X9780371Y2147849D01*
X9783445Y2157679D01*
X9787661Y2167026D01*
X9792970Y2175840D01*
X9799294Y2183917D01*
X9806559Y2191181D01*
X9814661Y2197531D01*
X9823450Y2202840D01*
X9832822Y2207056D01*
X9842627Y2210130D01*
X9852736Y2211959D01*
X9862997Y2212568D01*
X9873234Y2211959D01*
X9883368Y2210130D01*
X9893172Y2207056D01*
X9902545Y2202840D01*
X9911334Y2197531D01*
X9919411Y2191181D01*
X9926675Y2183917D01*
X9933025Y2175840D01*
X9938334Y2167026D01*
X9942550Y2157679D01*
X9945624Y2147849D01*
X9947452Y2137740D01*
X9948062Y2127656D01*
X9948062Y1967331D01*
X9947452Y1957247D01*
X9945624Y1947138D01*
X9942550Y1937334D01*
X9938334Y1927961D01*
X9933025Y1919147D01*
X9926675Y1911070D01*
X9919411Y1903806D01*
X9911334Y1897456D01*
X9902545Y1892172D01*
X9893172Y1887956D01*
X9883368Y1884857D01*
X9873234Y1883029D01*
G37*
G36*
X4956860Y2914904D02*
G01*
X4946751Y2915513D01*
X4936642Y2917367D01*
X4926838Y2920441D01*
X4917465Y2924657D01*
X4908651Y2929966D01*
X4900574Y2936290D01*
X4893309Y2943555D01*
X4886985Y2951657D01*
X4881676Y2960446D01*
X4877460Y2969818D01*
X4874386Y2979623D01*
X4872532Y2989732D01*
X4871923Y2999994D01*
X4872532Y3010255D01*
X4874386Y3020364D01*
X4877460Y3030169D01*
X4881676Y3039541D01*
X4886985Y3048330D01*
X4893309Y3056432D01*
X4900574Y3063697D01*
X4908651Y3070021D01*
X4917465Y3075330D01*
X4926838Y3079546D01*
X4936642Y3082620D01*
X4946751Y3084474D01*
X4956860Y3085084D01*
X5117160Y3085084D01*
X5127243Y3084474D01*
X5137378Y3082620D01*
X5147183Y3079546D01*
X5156530Y3075330D01*
X5165343Y3070021D01*
X5173421Y3063697D01*
X5180685Y3056432D01*
X5187035Y3048330D01*
X5192344Y3039541D01*
X5196560Y3030169D01*
X5199634Y3020364D01*
X5201462Y3010255D01*
X5202072Y2999994D01*
X5201462Y2989732D01*
X5199634Y2979623D01*
X5196560Y2969818D01*
X5192344Y2960446D01*
X5187035Y2951657D01*
X5180685Y2943555D01*
X5173421Y2936290D01*
X5165343Y2929966D01*
X5156530Y2924657D01*
X5147183Y2920441D01*
X5137378Y2917367D01*
X5127243Y2915513D01*
X5117160Y2914904D01*
G37*
G36*
X4956860Y2660904D02*
G01*
X4946751Y2661513D01*
X4936642Y2663367D01*
X4926838Y2666441D01*
X4917465Y2670657D01*
X4908651Y2675966D01*
X4900574Y2682316D01*
X4893309Y2689555D01*
X4886985Y2697657D01*
X4881676Y2706446D01*
X4877460Y2715818D01*
X4874386Y2725623D01*
X4872532Y2735732D01*
X4871923Y2745994D01*
X4872532Y2756255D01*
X4874386Y2766364D01*
X4877460Y2776169D01*
X4881676Y2785541D01*
X4886985Y2794330D01*
X4893309Y2802432D01*
X4900574Y2809697D01*
X4908651Y2816021D01*
X4917465Y2821330D01*
X4926838Y2825546D01*
X4936642Y2828620D01*
X4946751Y2830474D01*
X4956860Y2831084D01*
X5117160Y2831084D01*
X5127243Y2830474D01*
X5137378Y2828620D01*
X5147183Y2825546D01*
X5156530Y2821330D01*
X5165343Y2816021D01*
X5173421Y2809697D01*
X5180685Y2802432D01*
X5187035Y2794330D01*
X5192344Y2785541D01*
X5196560Y2776169D01*
X5199634Y2766364D01*
X5201462Y2756255D01*
X5202072Y2745994D01*
X5201462Y2735732D01*
X5199634Y2725623D01*
X5196560Y2715818D01*
X5192344Y2706446D01*
X5187035Y2697657D01*
X5180685Y2689555D01*
X5173421Y2682316D01*
X5165343Y2675966D01*
X5156530Y2670657D01*
X5147183Y2666441D01*
X5137378Y2663367D01*
X5127243Y2661513D01*
X5117160Y2660904D01*
G37*
G36*
X4956860Y3168904D02*
G01*
X4946751Y3169513D01*
X4936642Y3171367D01*
X4926838Y3174441D01*
X4917465Y3178657D01*
X4908651Y3183966D01*
X4900574Y3190290D01*
X4893309Y3197555D01*
X4886985Y3205657D01*
X4881676Y3214446D01*
X4877460Y3223818D01*
X4874386Y3233623D01*
X4872532Y3243732D01*
X4871923Y3253994D01*
X4872532Y3264255D01*
X4874386Y3274364D01*
X4877460Y3284169D01*
X4881676Y3293541D01*
X4886985Y3302330D01*
X4893309Y3310432D01*
X4900574Y3317671D01*
X4908651Y3324021D01*
X4917465Y3329330D01*
X4926838Y3333546D01*
X4936642Y3336620D01*
X4946751Y3338474D01*
X4956860Y3339084D01*
X5117160Y3339084D01*
X5127243Y3338474D01*
X5137378Y3336620D01*
X5147183Y3333546D01*
X5156530Y3329330D01*
X5165343Y3324021D01*
X5173421Y3317671D01*
X5180685Y3310432D01*
X5187035Y3302330D01*
X5192344Y3293541D01*
X5196560Y3284169D01*
X5199634Y3274364D01*
X5201462Y3264255D01*
X5202072Y3253994D01*
X5201462Y3243732D01*
X5199634Y3233623D01*
X5196560Y3223818D01*
X5192344Y3214446D01*
X5187035Y3205657D01*
X5180685Y3197555D01*
X5173421Y3190290D01*
X5165343Y3183966D01*
X5156530Y3178657D01*
X5147183Y3174441D01*
X5137378Y3171367D01*
X5127243Y3169513D01*
X5117160Y3168904D01*
G37*
D15*
G01*
X8999981Y4564989D03*
G01*
X8999981Y5434990D03*
D16*
G01*
X500126Y4872989D03*
D17*
G01*
X500126Y5126989D03*
D18*
G01*
X4119118Y599947D03*
D19*
G01*
X4373118Y599947D03*
G01*
X4627118Y599947D03*
G01*
X4881118Y599947D03*
G01*
X7008113Y599947D03*
G01*
X6754113Y599947D03*
G01*
X6500113Y599947D03*
G01*
X6246113Y599947D03*
D18*
G01*
X5992114Y599947D03*
D20*
G01*
X3499993Y6277000D03*
D21*
G01*
X3499993Y6149987D03*
G01*
X3499993Y6022987D03*
D22*
G01*
X2999993Y5514987D03*
G01*
X2999993Y6784987D03*
D23*
G01*
X1999995Y6625107D03*
G01*
X1999995Y5974867D03*
D24*
G01*
X8520704Y6420700D03*
G01*
X8379282Y6279281D03*
D25*
G01*
X7372986Y6499987D03*
D17*
G01*
X7626997Y6499974D03*
D26*
G01*
X6234988Y6190005D03*
G01*
X6235014Y6809968D03*
D27*
G01*
X5764987Y6489979D03*
M02*
